<svg width="40" height="41" viewBox="0 0 40 41" fill="none" xmlns="http://www.w3.org/2000/svg">
<g filter="url(#filter0_d_255_4439)">
<circle cx="20" cy="17" r="10.625" stroke="#1AD0D1" stroke-width="1.25" shape-rendering="crispEdges"/>
</g>
<g filter="url(#filter1_d_255_4439)">
<path fill-rule="evenodd" clip-rule="evenodd" d="M20.1796 12C19.7654 12 19.4296 12.2509 19.4296 12.5603V20.7582L17.7491 19.2934C17.4795 19.0584 17.0061 19.0312 16.6916 19.2326C16.3771 19.434 16.3406 19.7877 16.6102 20.0227L19.6102 22.6376C19.7526 22.7618 19.9607 22.8333 20.1796 22.8333C20.3985 22.8333 20.6066 22.7618 20.749 22.6376L23.749 20.0227C24.0186 19.7877 23.9822 19.434 23.6678 19.2326C23.3533 19.0312 22.8798 19.0584 22.6102 19.2934L20.9296 20.7582V12.5603C20.9296 12.2509 20.5938 12 20.1796 12Z" fill="#30ACFF"/>
<path d="M19.3921 20.8013L19.4868 20.8839V20.7582V12.5603C19.4868 12.4277 19.5586 12.3032 19.6835 12.2099C19.8084 12.1166 19.9836 12.0572 20.1796 12.0572C20.3756 12.0572 20.5508 12.1166 20.6757 12.2099C20.8006 12.3032 20.8724 12.4277 20.8724 12.5603V20.7582V20.8839L20.9672 20.8013L22.6478 19.3365L22.6478 19.3365C22.7712 19.2289 22.9441 19.1668 23.1254 19.1564C23.3066 19.146 23.4913 19.1875 23.6369 19.2808C23.7821 19.3737 23.8579 19.4982 23.8705 19.6209C23.8831 19.7431 23.8341 19.8727 23.7115 19.9796L23.7463 20.0196L23.7115 19.9796L20.7115 22.5945L20.7114 22.5946C20.5811 22.7082 20.387 22.7762 20.1796 22.7762C19.9722 22.7762 19.7782 22.7082 19.6478 22.5946L19.6478 22.5945L16.6478 19.9796L16.6127 20.0199L16.6478 19.9796C16.5252 19.8727 16.4761 19.7431 16.4887 19.6209C16.5014 19.4982 16.5771 19.3738 16.7224 19.2808L16.7224 19.2808C16.8681 19.1875 17.0527 19.146 17.2339 19.1564C17.4152 19.1668 17.5881 19.2289 17.7115 19.3365L19.3921 20.8013Z" stroke="url(#paint0_linear_255_4439)" stroke-width="0.114333"/>
</g>
<defs>
<filter id="filter0_d_255_4439" x="0" y="0.4375" width="40" height="40" filterUnits="userSpaceOnUse" color-interpolation-filters="sRGB">
<feFlood floodOpacity="0" result="BackgroundImageFix"/>
<feColorMatrix in="SourceAlpha" type="matrix" values="0 0 0 0 0 0 0 0 0 0 0 0 0 0 0 0 0 0 127 0" result="hardAlpha"/>
<feMorphology radius="1.25" operator="dilate" in="SourceAlpha" result="effect1_dropShadow_255_4439"/>
<feOffset dy="3.4375"/>
<feGaussianBlur stdDeviation="3.75"/>
<feComposite in2="hardAlpha" operator="out"/>
<feColorMatrix type="matrix" values="0 0 0 0 0.372549 0 0 0 0 0.86098 0 0 0 0 0.996078 0 0 0 0.24 0"/>
<feBlend mode="normal" in2="BackgroundImageFix" result="effect1_dropShadow_255_4439"/>
<feBlend mode="normal" in="SourceGraphic" in2="effect1_dropShadow_255_4439" result="shape"/>
</filter>
<filter id="filter1_d_255_4439" x="12.9997" y="10.1707" width="12.988" height="16.321" filterUnits="userSpaceOnUse" color-interpolation-filters="sRGB">
<feFlood floodOpacity="0" result="BackgroundImageFix"/>
<feColorMatrix in="SourceAlpha" type="matrix" values="0 0 0 0 0 0 0 0 0 0 0 0 0 0 0 0 0 0 127 0" result="hardAlpha"/>
<feOffset dx="-0.685995" dy="0.91466"/>
<feGaussianBlur stdDeviation="1.37199"/>
<feComposite in2="hardAlpha" operator="out"/>
<feColorMatrix type="matrix" values="0 0 0 0 0.372549 0 0 0 0 0.705098 0 0 0 0 0.996078 0 0 0 0.24 0"/>
<feBlend mode="normal" in2="BackgroundImageFix" result="effect1_dropShadow_255_4439"/>
<feBlend mode="normal" in="SourceGraphic" in2="effect1_dropShadow_255_4439" result="shape"/>
</filter>
<linearGradient id="paint0_linear_255_4439" x1="24.5987" y1="11.9017" x2="18.7853" y2="19.3211" gradientUnits="userSpaceOnUse">
<stop stop-color="#30ACFF"/>
<stop offset="1" stop-color="#30ACFF"/>
</linearGradient>
</defs>
</svg>
