<svg width="24" height="24" viewBox="0 0 24 24" fill="none" xmlns="http://www.w3.org/2000/svg">
<path d="M22.8142 11.7184C22.7916 11.7022 20.6552 9.95995 20.0006 6.69445C19.5388 4.84836 18.5625 3.52293 17.0944 2.75311C14.3096 1.2925 10.7788 2.3526 9.90766 2.65674C7.15164 2.24624 5.15281 2.74686 3.96378 4.13363C1.87738 6.57549 3.21783 10.7859 3.27541 10.9647C3.29794 11.0323 3.33299 11.0924 3.37429 11.1475C2.0601 12.3815 1 14.1525 1 16.6556C1 21.7757 4.21401 22.9647 5.00894 22.9875C5.27428 22.9937 5.56341 23 5.87129 23C8.3895 23 12.068 22.5156 12.779 17.2263C12.7915 17.1587 12.8077 17.0948 12.824 17.0273C17.8769 14.8169 22.6154 12.8331 22.6641 12.8145C22.8718 12.7282 23.0195 12.5354 23.052 12.3114C23.0846 12.0874 22.9945 11.8633 22.818 11.7219L22.8142 11.7184ZM11.5124 17.0026C11.5124 17.0026 11.5087 17.0251 11.5062 17.0377C10.8691 21.8502 7.49722 21.7637 5.05668 21.706C5.02789 21.706 2.27813 21.1966 2.27813 16.6557C2.27813 14.3803 3.30946 12.5455 5.34078 11.2024C6.90152 10.1711 8.49731 9.82188 8.53486 9.81563C8.8803 9.74554 9.10557 9.40513 9.03175 9.05966C8.96166 8.71423 8.62124 8.48895 8.27578 8.56277C8.24699 8.56903 7.1193 8.81309 5.76007 9.50147C5.76007 9.48896 5.75381 9.47894 5.75005 9.46643C5.53853 8.77806 5.55731 8.27115 5.80513 7.96327C6.51352 7.08839 9.14442 7.3262 10.137 7.41508C10.1821 7.41883 10.2272 7.41508 10.2747 7.41508C14.126 6.93822 16.3849 9.73804 17.2372 11.0959C15.6164 11.5665 12.2747 13.0146 11.5112 17.0071L11.5124 17.0026ZM13.4574 15.3492C14.9856 12.6583 18.1382 12.1777 18.2962 12.1552C18.4977 12.1264 18.6742 12.005 18.7731 11.8285C18.8694 11.6495 18.8782 11.4342 18.7918 11.2515C18.7668 11.1939 16.017 5.45534 10.186 6.1314C7.9757 5.93615 5.80282 5.9324 4.81276 7.15645C4.27707 7.81604 4.18194 8.71968 4.5274 9.84486C4.55994 9.94999 4.62001 10.0439 4.69386 10.1177C4.60124 10.179 4.50862 10.2429 4.41851 10.3067C4.18446 9.42932 3.56994 6.57459 4.93792 4.97255C5.83782 3.91869 7.49743 3.57576 9.86932 3.95375C9.9782 3.97002 10.0908 3.96 10.196 3.92121C11.574 3.40554 14.4478 2.81855 16.499 3.89617C17.6305 4.48944 18.3889 5.53951 18.7519 6.9851C19.2425 9.4332 20.4728 11.1254 21.2763 12.0126C19.8283 12.6247 16.7868 13.91 13.4613 15.358L13.4574 15.3492Z" fill="#1AD0D1"/>
<path d="M11.4299 9.70703C11.311 9.71704 8.52375 9.94734 6.86798 12.1326C5.75655 13.597 5.43239 15.5546 5.913 17.9512C5.97433 18.2554 6.23966 18.4669 6.54129 18.4669C6.58259 18.4669 6.62515 18.4631 6.66645 18.4544C7.01188 18.3843 7.23969 18.0476 7.16959 17.7009C6.76533 15.6884 7.00563 14.0774 7.88051 12.9172C9.17841 11.1963 11.495 10.9885 11.5264 10.9885C11.8794 10.9635 12.1422 10.6556 12.1159 10.3027C12.0909 9.94969 11.783 9.68686 11.43 9.70938L11.4299 9.70703Z" fill="#1AD0D1"/>
</svg>
