<svg width="24" height="24" viewBox="0 0 24 24" fill="none" xmlns="http://www.w3.org/2000/svg">
<path d="M13.1986 8.74206L18.3257 3.63893C18.4534 3.51116 18.6131 3.44727 18.8048 3.44727C18.9965 3.44727 19.1642 3.51116 19.3079 3.63893C19.4517 3.76671 19.5236 3.93043 19.5236 4.13008C19.5236 4.32973 19.4517 4.50143 19.3079 4.64518L13.7017 10.2754C13.5579 10.4191 13.3902 10.491 13.1986 10.491C13.0069 10.491 12.8392 10.4191 12.6954 10.2754L9.77253 7.35247C9.62878 7.20872 9.5569 7.04102 9.5569 6.84935C9.5569 6.65768 9.62878 6.48997 9.77253 6.34622C9.91628 6.20247 10.088 6.1306 10.2876 6.1306C10.4873 6.1306 10.659 6.20247 10.8027 6.34622L13.1986 8.74206ZM13.9652 20.865L19.9069 18.9962C19.9069 18.6768 19.7831 18.4053 19.5355 18.1816C19.288 17.958 18.9965 17.8542 18.6611 17.8702H13.6538C13.3982 17.8861 13.1467 17.8702 12.8991 17.8223C12.6515 17.7743 12.4079 17.7105 12.1684 17.6306L10.5871 17.1514C10.3954 17.0876 10.2517 16.9598 10.1559 16.7681C10.06 16.5764 10.0441 16.3848 10.1079 16.1931C10.1718 16.0014 10.2956 15.8577 10.4793 15.7618C10.663 15.666 10.8507 15.658 11.0423 15.7379L12.5757 16.241C12.7514 16.3049 12.931 16.3528 13.1147 16.3848C13.2984 16.4167 13.4781 16.4327 13.6538 16.4327H14.9954C15.0274 16.4327 15.0274 16.4327 14.9954 16.4327C14.9954 16.0973 14.8837 15.8058 14.66 15.5582C14.4364 15.3106 14.1649 15.123 13.8454 14.9952L8.62253 13.0066H6.61003V18.7087L13.9652 20.865ZM13.6538 22.2306L6.61003 20.2181C6.57807 20.6493 6.39838 20.9848 6.07096 21.2243C5.74355 21.4639 5.44407 21.5837 5.17253 21.5837H2.89648C2.49718 21.5837 2.15777 21.444 1.87826 21.1645C1.59874 20.885 1.45898 20.5455 1.45898 20.1462V13.0066C1.45898 12.6074 1.59874 12.2679 1.87826 11.9884C2.15777 11.7089 2.49718 11.5691 2.89648 11.5691H8.59857C8.67844 11.5691 8.7623 11.5771 8.85013 11.5931C8.93796 11.6091 9.02182 11.633 9.10169 11.665L14.3246 13.6296C14.9954 13.8851 15.5265 14.2525 15.9178 14.7316C16.3092 15.2108 16.5048 15.7778 16.5048 16.4327H18.6611C19.4757 16.4327 20.1665 16.7282 20.7335 17.3191C21.3005 17.9101 21.584 18.6129 21.584 19.4275C21.584 19.6032 21.54 19.7629 21.4522 19.9066C21.3644 20.0504 21.2406 20.1462 21.0809 20.1941L14.4684 22.2306C14.3406 22.2626 14.2048 22.2785 14.0611 22.2785C13.9173 22.2785 13.7816 22.2626 13.6538 22.2306ZM2.89648 20.1462H5.14857V13.0066H2.89648V20.1462Z" fill="#1AD0D1"/>
</svg>
