<svg width="24" height="24" viewBox="0 0 24 24" fill="none" xmlns="http://www.w3.org/2000/svg">
<path d="M4.8125 20.625C4.42917 20.625 4.09375 20.4813 3.80625 20.1938C3.51875 19.9062 3.375 19.5708 3.375 19.1875V4.8125C3.375 4.42917 3.51875 4.09375 3.80625 3.80625C4.09375 3.51875 4.42917 3.375 4.8125 3.375H19.1875C19.5708 3.375 19.9062 3.51875 20.1938 3.80625C20.4813 4.09375 20.625 4.42917 20.625 4.8125V19.1875C20.625 19.5708 20.4813 19.9062 20.1938 20.1938C19.9062 20.4813 19.5708 20.625 19.1875 20.625H4.8125ZM4.8125 19.1875H19.1875V7.13646H4.8125V19.1875Z" fill="#1AD0D1"/>
</svg>
