<svg width="25" height="18" viewBox="0 0 25 18" fill="none" xmlns="http://www.w3.org/2000/svg">
<path d="M1.96998 17.9999H5.78717V8.72954L0.333984 4.63965V16.364C0.333984 17.2679 1.06608 18 1.96998 18V17.9999Z" fill="#1AD0D1"/>
<path d="M18.875 17.9999H22.6922C23.5961 17.9999 24.3282 17.2678 24.3282 16.364V4.63965L18.875 8.72954V17.9999Z" fill="#34A853"/>
<path d="M18.875 1.64034V8.72947L24.3282 4.63959V2.45834C24.3282 0.43657 22.0202 -0.718138 20.4019 0.495196L18.875 1.64034Z" fill="#FBBC04"/>
<path fill-rule="evenodd" clip-rule="evenodd" d="M5.78906 8.72878V1.63965L12.3328 6.54753L18.8766 1.63965V8.72878L12.3328 13.6366L5.78906 8.72878Z" fill="#EA4335"/>
<path d="M0.333984 2.45834V4.63959L5.78717 8.72948V1.64035L4.26027 0.495198C2.64199 -0.718136 0.333984 0.436572 0.333984 2.45825V2.45834Z" fill="#C5221F"/>
</svg>
