<svg width="24" height="24" viewBox="0 0 24 24" fill="none" xmlns="http://www.w3.org/2000/svg">
<path d="M5.58724 19.352V7.73423H1.72566V19.352H5.58764H5.58724ZM3.65726 6.14829C5.00359 6.14829 5.84177 5.25618 5.84177 4.14129C5.81657 3.001 5.00359 2.13379 3.68286 2.13379C2.36123 2.13379 1.49805 3.001 1.49805 4.14119C1.49805 5.25607 2.33592 6.14818 3.63195 6.14818H3.65695L3.65726 6.14829ZM7.72467 19.352H11.5859V12.8648C11.5859 12.5181 11.6112 12.1704 11.7132 11.9227C11.9922 11.2287 12.6276 10.5103 13.6946 10.5103C15.0915 10.5103 15.6506 11.5755 15.6506 13.1375V19.352H19.5118V12.6907C19.5118 9.12239 17.607 7.46185 15.0665 7.46185C12.9836 7.46185 12.0688 8.62603 11.5605 9.41895H11.5863V7.73463H7.72488C7.77528 8.82452 7.72457 19.3524 7.72457 19.3524L7.72467 19.352Z" fill="#1AD0D1"/>
</svg>
