<svg width="24" height="24" viewBox="0 0 24 24" fill="none" xmlns="http://www.w3.org/2000/svg">
<path d="M8.66979 5.55521C8.52604 5.69896 8.35833 5.77083 8.16667 5.77083C7.975 5.77083 7.80729 5.69896 7.66354 5.55521L6.13021 4.02187C5.98646 3.87812 5.91458 3.71042 5.91458 3.51875C5.91458 3.32708 5.98646 3.15937 6.13021 3.01562C6.27396 2.87188 6.44167 2.8 6.63333 2.8C6.825 2.8 6.99271 2.87188 7.13646 3.01562L8.66979 4.54896C8.81354 4.69271 8.88542 4.86042 8.88542 5.05208C8.88542 5.24375 8.81354 5.41146 8.66979 5.55521ZM15.3302 5.55521C15.1865 5.41146 15.1146 5.24375 15.1146 5.05208C15.1146 4.86042 15.1865 4.69271 15.3302 4.54896L16.8635 3.01562C17.0073 2.87188 17.175 2.8 17.3667 2.8C17.5583 2.8 17.726 2.87188 17.8698 3.01562C18.0135 3.15937 18.0854 3.32708 18.0854 3.51875C18.0854 3.71042 18.0135 3.87812 17.8698 4.02187L16.3365 5.55521C16.1927 5.69896 16.025 5.77083 15.8333 5.77083C15.6417 5.77083 15.474 5.69896 15.3302 5.55521ZM11.9957 4.8125C11.7909 4.8125 11.6206 4.74358 11.4849 4.60574C11.3491 4.46806 11.2812 4.2974 11.2812 4.09375V1.21875C11.2812 1.0151 11.3506 0.844361 11.4892 0.706521C11.6277 0.56884 11.7994 0.5 12.0043 0.5C12.2091 0.5 12.3794 0.56884 12.5151 0.706521C12.6509 0.844361 12.7188 1.0151 12.7188 1.21875V4.09375C12.7188 4.2974 12.6494 4.46806 12.5108 4.60574C12.3723 4.74358 12.2006 4.8125 11.9957 4.8125ZM3.375 22.5417V15.2583C3.375 15.1837 3.37899 15.1092 3.38698 15.0348C3.39497 14.9602 3.41493 14.883 3.44688 14.8031L5.31563 9.14896C5.41146 8.8455 5.58516 8.60592 5.83672 8.43021C6.08828 8.2545 6.36979 8.16667 6.68125 8.16667H17.3188C17.6302 8.16667 17.9117 8.2545 18.1633 8.43021C18.4148 8.60592 18.5885 8.8455 18.6844 9.14896L20.5531 14.8031C20.5851 14.883 20.605 14.9602 20.613 15.0348C20.621 15.1092 20.625 15.1837 20.625 15.2583V22.5417C20.625 22.8079 20.5312 23.0342 20.3437 23.2204C20.1564 23.4068 19.9288 23.5 19.6609 23.5C19.3932 23.5 19.1675 23.4068 18.9839 23.2204C18.8002 23.0342 18.7083 22.8079 18.7083 22.5417V21.4875H5.29167V22.5417C5.29167 22.8079 5.19791 23.0342 5.0104 23.2204C4.82304 23.4068 4.59544 23.5 4.32758 23.5C4.05989 23.5 3.8342 23.4068 3.65052 23.2204C3.46684 23.0342 3.375 22.8079 3.375 22.5417ZM5.36354 13.5813H18.6365L17.3188 9.60417H6.68125L5.36354 13.5813ZM7.34633 18.8521C7.71754 18.8521 8.02689 18.7263 8.27448 18.4747C8.52206 18.2232 8.64583 17.9177 8.64583 17.5583C8.64583 17.1857 8.52005 16.8689 8.26849 16.6079C8.01693 16.3471 7.71146 16.2167 7.35208 16.2167C6.97944 16.2167 6.66266 16.3465 6.40166 16.6062C6.14085 16.8661 6.01042 17.1816 6.01042 17.5526C6.01042 17.9238 6.14027 18.2331 6.39998 18.4807C6.65983 18.7283 6.97531 18.8521 7.34633 18.8521ZM16.6719 18.8521C17.0445 18.8521 17.3613 18.7263 17.6223 18.4747C17.8831 18.2232 18.0135 17.9177 18.0135 17.5583C18.0135 17.1857 17.8837 16.8689 17.624 16.6079C17.3641 16.3471 17.0486 16.2167 16.6776 16.2167C16.3064 16.2167 15.9971 16.3465 15.7495 16.6062C15.5019 16.8661 15.3781 17.1816 15.3781 17.5526C15.3781 17.9238 15.5039 18.2331 15.7555 18.4807C16.007 18.7283 16.3125 18.8521 16.6719 18.8521ZM4.8125 20.05H19.1875V15.0188H4.8125V20.05Z" fill="#1AD0D1"/>
</svg>
