<svg width="32" height="33" viewBox="0 0 32 33" fill="none" xmlns="http://www.w3.org/2000/svg">
<g filter="url(#filter0_d_255_2806)">
<path d="M20.3072 9.86485C20.2548 9.83258 20.1875 9.83931 20.1445 9.88368L14.886 15.1449C14.8497 15.1798 14.8376 15.2349 14.8564 15.2833L16.7348 20.168C16.7549 20.2191 16.8033 20.2514 16.8571 20.2514H16.8612C16.9163 20.2501 16.9647 20.2151 16.9822 20.1627L20.3637 10.0168C20.3825 9.96031 20.3583 9.89712 20.3072 9.86485Z" fill="#30ACFF" fill-opacity="0.74" shape-rendering="crispEdges"/>
<path d="M20.1921 9.9312L20.1921 9.93121L20.1928 9.93048C20.2127 9.90995 20.2447 9.90555 20.2716 9.9219C20.2979 9.93868 20.3083 9.97021 20.2999 9.99553L20.3637 10.0168L20.2999 9.99553L16.9184 20.1414C16.9101 20.1661 16.8874 20.1832 16.8602 20.1842H16.8571C16.8308 20.1842 16.8074 20.1687 16.7974 20.1436C16.7974 20.1435 16.7973 20.1434 16.7973 20.1434L14.9192 15.2592L14.9191 15.259C14.9099 15.2354 14.9163 15.2091 14.9327 15.1933L14.9327 15.1933L14.9336 15.1924L20.1921 9.9312Z" stroke="url(#paint0_linear_255_2806)" stroke-width="0.134454" shape-rendering="crispEdges"/>
</g>
<g filter="url(#filter1_d_255_2806)">
<path d="M20.0012 9.55832C19.9703 9.50722 19.9071 9.48302 19.8493 9.50319L9.70206 12.8847C9.64962 12.9022 9.61466 12.9506 9.61332 13.0057C9.61198 13.0622 9.64559 13.1119 9.69668 13.1321L14.5827 15.0091C14.5989 15.0144 14.6137 15.0171 14.6298 15.0171C14.6634 15.0171 14.697 15.0037 14.7212 14.9795L19.9824 9.721C20.0254 9.67798 20.0335 9.61075 20.0012 9.55832Z" fill="#30ACFF" fill-opacity="0.74" shape-rendering="crispEdges"/>
<path d="M19.9437 9.59313L19.944 9.59355C19.9599 9.61952 19.9558 9.65249 19.9349 9.67347L14.6737 14.9319L14.6737 14.932C14.6624 14.9432 14.646 14.9499 14.6298 14.9499C14.6222 14.9499 14.6149 14.9488 14.6053 14.9457L9.72136 13.0696C9.72128 13.0695 9.7212 13.0695 9.72112 13.0695C9.69631 13.0596 9.67986 13.0354 9.68053 13.0073C9.68121 12.9799 9.6984 12.9568 9.72332 12.9485L19.8705 9.56697L19.8705 9.56697L19.8714 9.56667C19.8984 9.55726 19.9288 9.56843 19.9437 9.59313ZM14.6298 15.0171C14.6634 15.0171 14.697 15.0037 14.7212 14.9795L9.61332 13.0057C9.61198 13.0622 9.64559 13.1119 9.69668 13.1321L14.5827 15.0091C14.5989 15.0144 14.6137 15.0171 14.6298 15.0171Z" stroke="url(#paint1_linear_255_2806)" stroke-width="0.134454" shape-rendering="crispEdges"/>
</g>
<g filter="url(#filter2_d_255_2806)">
<circle cx="16" cy="14" r="8.5" stroke="#1AD0D1" shape-rendering="crispEdges"/>
</g>
<defs>
<filter id="filter0_d_255_2806" x="10.814" y="7.69347" width="11.9753" height="16.86" filterUnits="userSpaceOnUse" color-interpolation-filters="sRGB">
<feFlood flood-opacity="0" result="BackgroundImageFix"/>
<feColorMatrix in="SourceAlpha" type="matrix" values="0 0 0 0 0 0 0 0 0 0 0 0 0 0 0 0 0 0 127 0" result="hardAlpha"/>
<feOffset dx="-0.806723" dy="1.07563"/>
<feGaussianBlur stdDeviation="1.61345"/>
<feComposite in2="hardAlpha" operator="out"/>
<feColorMatrix type="matrix" values="0 0 0 0 0.372549 0 0 0 0 0.705098 0 0 0 0 0.996078 0 0 0 0.24 0"/>
<feBlend mode="normal" in2="BackgroundImageFix" result="effect1_dropShadow_255_2806"/>
<feBlend mode="normal" in="SourceGraphic" in2="effect1_dropShadow_255_2806" result="shape"/>
</filter>
<filter id="filter1_d_255_2806" x="5.57967" y="7.34483" width="16.862" height="11.9753" filterUnits="userSpaceOnUse" color-interpolation-filters="sRGB">
<feFlood flood-opacity="0" result="BackgroundImageFix"/>
<feColorMatrix in="SourceAlpha" type="matrix" values="0 0 0 0 0 0 0 0 0 0 0 0 0 0 0 0 0 0 127 0" result="hardAlpha"/>
<feOffset dx="-0.806723" dy="1.07563"/>
<feGaussianBlur stdDeviation="1.61345"/>
<feComposite in2="hardAlpha" operator="out"/>
<feColorMatrix type="matrix" values="0 0 0 0 0.372549 0 0 0 0 0.705098 0 0 0 0 0.996078 0 0 0 0.24 0"/>
<feBlend mode="normal" in2="BackgroundImageFix" result="effect1_dropShadow_255_2806"/>
<feBlend mode="normal" in="SourceGraphic" in2="effect1_dropShadow_255_2806" result="shape"/>
</filter>
<filter id="filter2_d_255_2806" x="0" y="0.75" width="32" height="32" filterUnits="userSpaceOnUse" color-interpolation-filters="sRGB">
<feFlood flood-opacity="0" result="BackgroundImageFix"/>
<feColorMatrix in="SourceAlpha" type="matrix" values="0 0 0 0 0 0 0 0 0 0 0 0 0 0 0 0 0 0 127 0" result="hardAlpha"/>
<feMorphology radius="1" operator="dilate" in="SourceAlpha" result="effect1_dropShadow_255_2806"/>
<feOffset dy="2.75"/>
<feGaussianBlur stdDeviation="3"/>
<feComposite in2="hardAlpha" operator="out"/>
<feColorMatrix type="matrix" values="0 0 0 0 0.372549 0 0 0 0 0.86098 0 0 0 0 0.996078 0 0 0 0.24 0"/>
<feBlend mode="normal" in2="BackgroundImageFix" result="effect1_dropShadow_255_2806"/>
<feBlend mode="normal" in="SourceGraphic" in2="effect1_dropShadow_255_2806" result="shape"/>
</filter>
<linearGradient id="paint0_linear_255_2806" x1="20.249" y1="9.75027" x2="14.499" y2="15.3753" gradientUnits="userSpaceOnUse">
<stop stop-color="#30ACFF"/>
<stop offset="1" stop-color="#30ACFF"/>
</linearGradient>
<linearGradient id="paint1_linear_255_2806" x1="14.8171" y1="9.49609" x2="14.8171" y2="15.0171" gradientUnits="userSpaceOnUse">
<stop stop-color="#30ACFF"/>
<stop offset="1" stop-color="#30ACFF"/>
</linearGradient>
</defs>
</svg>
