<svg width="24" height="24" viewBox="0 0 24 24" fill="none" xmlns="http://www.w3.org/2000/svg">
<path d="M12.0007 9.60547C10.9465 9.60547 10.084 9.27005 9.41315 8.59922C8.74232 7.92839 8.4069 7.06589 8.4069 6.01172C8.4069 4.95755 8.74232 4.09505 9.41315 3.42422C10.084 2.75339 10.9465 2.41797 12.0007 2.41797C13.0548 2.41797 13.9173 2.75339 14.5882 3.42422C15.259 4.09505 15.5944 4.95755 15.5944 6.01172C15.5944 7.06589 15.259 7.92839 14.5882 8.59922C13.9173 9.27005 13.0548 9.60547 12.0007 9.60547ZM12.0007 8.16797C12.6236 8.16797 13.1387 7.96432 13.546 7.55703C13.9533 7.14974 14.1569 6.63464 14.1569 6.01172C14.1569 5.3888 13.9533 4.8737 13.546 4.46641C13.1387 4.05911 12.6236 3.85547 12.0007 3.85547C11.3777 3.85547 10.8626 4.05911 10.4553 4.46641C10.048 4.8737 9.8444 5.3888 9.8444 6.01172C9.8444 6.63464 10.048 7.14974 10.4553 7.55703C10.8626 7.96432 11.3777 8.16797 12.0007 8.16797ZM12.0033 11.2826C13.1868 11.2826 14.2809 11.4303 15.2856 11.7258C16.2901 12.0213 17.1996 12.3527 18.0142 12.7201C18.5093 12.9437 18.9087 13.2711 19.2121 13.7023C19.5156 14.1336 19.6673 14.6527 19.6673 15.2596V20.1471C19.6673 20.5305 19.5236 20.8659 19.2361 21.1534C18.9486 21.4409 18.6132 21.5846 18.2298 21.5846H9.8444C9.17644 21.5846 8.61016 21.352 8.14552 20.8867C7.68087 20.4215 7.44857 19.8545 7.44857 19.1857C7.44857 18.5169 7.68087 17.951 8.14552 17.4878C8.61016 17.0245 9.17644 16.793 9.8444 16.793H12.6715L14.3965 12.9596C13.9812 12.8798 13.5699 12.8199 13.1626 12.7799C12.7553 12.74 12.3671 12.7201 11.998 12.7201C10.8424 12.7201 9.81527 12.8518 8.9165 13.1154C8.01772 13.3789 7.22494 13.6784 6.53815 14.0138C6.31452 14.1256 6.13086 14.2953 5.98711 14.5229C5.84336 14.7505 5.77148 14.9961 5.77148 15.2596V20.8659C5.77148 21.0695 5.70215 21.2402 5.56353 21.3779C5.42505 21.5157 5.25335 21.5846 5.04842 21.5846C4.84366 21.5846 4.67339 21.5157 4.53763 21.3779C4.40187 21.2402 4.33398 21.0695 4.33398 20.8659V15.2596C4.33398 14.6527 4.48572 14.1336 4.78919 13.7023C5.09266 13.2711 5.48398 12.9429 5.96315 12.7177C6.77773 12.3519 7.69213 12.0213 8.70638 11.7258C9.72063 11.4303 10.8196 11.2826 12.0033 11.2826ZM9.8444 20.1471H11.1382L12.0246 18.2305H9.8444C9.58886 18.2305 9.36523 18.3263 9.17357 18.518C8.9819 18.7096 8.88607 18.9333 8.88607 19.1888C8.88607 19.4443 8.9819 19.668 9.17357 19.8596C9.36523 20.0513 9.58886 20.1471 9.8444 20.1471ZM12.7194 20.1471H18.2298V15.2596C18.2298 14.9961 18.154 14.7505 18.0022 14.5229C17.8505 14.2953 17.6628 14.1256 17.4392 14.0138C17.2475 13.918 17.0159 13.8141 16.7444 13.7023C16.4729 13.5906 16.1614 13.4708 15.81 13.343L12.7194 20.1471Z" fill="#1AD0D1"/>
</svg>
