<svg width="24" height="24" viewBox="0 0 24 24" fill="none" xmlns="http://www.w3.org/2000/svg">
<path d="M21.375 7.3125H13.875C12.171 7.3125 11.1438 8.14877 10.7629 8.53152C10.6449 8.65006 10.586 8.70934 10.5851 8.71014C10.5844 8.71095 10.525 8.76993 10.4065 8.88789C10.0238 9.26879 9.1875 10.296 9.1875 12V14.8125M21.375 7.3125L16.6875 2.625M21.375 7.3125L16.6875 12" stroke="#1AD0D1" stroke-width="1.5" stroke-linecap="round" stroke-linejoin="round"/>
<path d="M3.9983 20.0018C5.37159 21.375 7.58187 21.375 12.0024 21.375C16.423 21.375 18.6333 21.375 20.0066 20.0018C21.1702 18.8381 21.3479 17.0737 21.375 13.873M3.9983 20.0018C2.625 18.6284 2.625 16.4182 2.625 11.9976M3.9983 20.0018C5.37123 21.3746 7.58058 21.375 12 21.375C16.4194 21.375 18.6292 21.375 20.002 20.002C21.1654 18.8387 21.343 17.0746 21.3701 13.8744M3.9983 20.0018C2.62536 18.6288 2.625 16.4194 2.625 12M3.9983 3.9934C5.16187 2.82982 6.92632 2.65214 10.127 2.625M2.67666 8.25C2.77916 6.19364 3.08506 4.91082 3.99794 3.99794C5.16121 2.83466 6.92519 2.65702 10.125 2.62989" stroke="#1AD0D1" stroke-width="1.5" stroke-linecap="round"/>
</svg>
