<svg width="24" height="24" viewBox="0 0 24 24" fill="none" xmlns="http://www.w3.org/2000/svg">
<path d="M9.1875 14.8125L14.8125 9.1875" stroke="#1AD0D1" stroke-width="1.5" stroke-linecap="round"/>
<path d="M15.2812 14.3438C15.2812 14.8615 14.8615 15.2812 14.3438 15.2812C13.826 15.2812 13.4062 14.8615 13.4062 14.3438C13.4062 13.826 13.826 13.4062 14.3438 13.4062C14.8615 13.4062 15.2812 13.826 15.2812 14.3438Z" fill="#1AD0D1"/>
<path d="M10.5938 9.65625C10.5938 10.174 10.174 10.5938 9.65625 10.5938C9.13849 10.5938 8.71875 10.174 8.71875 9.65625C8.71875 9.13849 9.13849 8.71875 9.65625 8.71875C10.174 8.71875 10.5938 9.13849 10.5938 9.65625Z" fill="#1AD0D1"/>
<path d="M21.375 12C21.375 16.4194 21.375 18.6292 20.002 20.002C18.6292 21.375 16.4194 21.375 12 21.375C7.58058 21.375 5.37087 21.375 3.99794 20.002C2.625 18.6292 2.625 16.4194 2.625 12C2.625 7.58058 2.625 5.37087 3.99794 3.99794C5.37087 2.625 7.58058 2.625 12 2.625C16.4194 2.625 18.6292 2.625 20.002 3.99794C20.915 4.91082 21.2209 6.19364 21.3233 8.25" stroke="#1AD0D1" stroke-width="1.5" stroke-linecap="round"/>
</svg>
