<svg width="24" height="24" viewBox="0 0 24 24" fill="none" xmlns="http://www.w3.org/2000/svg">
<path d="M9.65625 12.375L10.9956 13.875L14.3438 10.125" stroke="#1AD0D1" stroke-width="1.5" stroke-linecap="round" stroke-linejoin="round"/>
<path d="M3.5625 10.5157C3.5625 7.51788 3.5625 6.01901 3.91642 5.51476C4.27034 5.01051 5.67968 4.52809 8.49835 3.56324L9.03536 3.37942C10.5047 2.87647 11.2393 2.625 12 2.625C12.7607 2.625 13.4953 2.87647 14.9647 3.37942L15.5017 3.56324C18.3203 4.52809 19.7297 5.01051 20.0836 5.51476C20.4375 6.01901 20.4375 7.51788 20.4375 10.5157V11.9919C20.4375 14.3403 19.653 16.1516 18.5625 17.5351M3.74329 13.875C4.54712 17.9048 7.85288 19.9808 10.0299 20.9318C10.7063 21.2272 11.0444 21.375 12 21.375C12.9556 21.375 13.2938 21.2272 13.9701 20.9318C14.5121 20.695 15.1241 20.3886 15.75 19.9995" stroke="#1AD0D1" stroke-width="1.5" stroke-linecap="round"/>
</svg>
