<svg width="24" height="24" viewBox="0 0 24 24" fill="none" xmlns="http://www.w3.org/2000/svg">
<path d="M10.2422 9.07031C10.2422 8.0995 11.0292 7.3125 12 7.3125C12.9708 7.3125 13.7578 8.0995 13.7578 9.07031C13.7578 9.7148 13.4109 10.2783 12.8938 10.5843C12.4481 10.8479 12 11.2478 12 11.7656V12.9375" stroke="#1AD0D1" stroke-width="1.5" stroke-linecap="round"/>
<path d="M11.0625 15.75C11.0625 15.9986 11.1613 16.2371 11.3371 16.4129C11.5129 16.5887 11.7514 16.6875 12 16.6875C12.2486 16.6875 12.4871 16.5887 12.6629 16.4129C12.8387 16.2371 12.9375 15.9986 12.9375 15.75C12.9375 15.5014 12.8387 15.2629 12.6629 15.0871C12.4871 14.9113 12.2486 14.8125 12 14.8125C11.7514 14.8125 11.5129 14.9113 11.3371 15.0871C11.1613 15.2629 11.0625 15.5014 11.0625 15.75Z" fill="#1AD0D1"/>
<path d="M7.3125 3.87921C8.69144 3.08153 10.2924 2.625 12 2.625C17.1776 2.625 21.375 6.82233 21.375 12C21.375 17.1776 17.1776 21.375 12 21.375C6.82233 21.375 2.625 17.1776 2.625 12C2.625 10.2924 3.08153 8.69144 3.87921 7.3125" stroke="#1AD0D1" stroke-width="1.5" stroke-linecap="round"/>
</svg>
