<svg width="24" height="24" viewBox="0 0 24 24" fill="none" xmlns="http://www.w3.org/2000/svg">
<path d="M17.625 11.9999H16.8737C16.0958 11.9999 15.707 11.9999 15.3846 12.1824C15.0623 12.3649 14.8621 12.6984 14.462 13.3653L14.433 13.4136C14.0602 14.0349 13.8738 14.3456 13.6027 14.3405C13.3314 14.3354 13.1568 14.0179 12.8077 13.383L11.2258 10.507C10.9002 9.91502 10.7375 9.61903 10.4774 9.605C10.2174 9.59097 10.0237 9.8677 9.63633 10.4212L9.371 10.8002C8.95951 11.388 8.75376 11.6819 8.4485 11.8409C8.14324 11.9999 7.78446 11.9999 7.0669 11.9999H6.375" stroke="#1AD0D1" stroke-width="1.5" stroke-linecap="round"/>
<path d="M12 5.90717L11.4934 6.39476C11.6259 6.53248 11.8088 6.61029 12 6.61029C12.1912 6.61029 12.3741 6.53248 12.5066 6.39476L12 5.90717ZM3.24062 13.3095C3.44586 13.6391 3.87948 13.74 4.20913 13.5348C4.53878 13.3295 4.63964 12.8959 4.4344 12.5662L3.24062 13.3095ZM6.87158 15.5364C6.59667 15.2622 6.15148 15.2627 5.87722 15.5376C5.60296 15.8125 5.60349 16.2577 5.87842 16.532L6.87158 15.5364ZM3.32812 9.31636C3.32812 6.68866 4.50677 5.05823 5.98051 4.49765C7.45824 3.93554 9.51683 4.34117 11.4934 6.39476L12.5066 5.41957C10.2646 3.0902 7.63566 2.3635 5.48054 3.18328C3.32143 4.00457 1.92188 6.27021 1.92188 9.31636H3.32812ZM15.2837 19.0315C16.6827 17.9285 18.3597 16.4498 19.6932 14.7977C21.0118 13.164 22.0781 11.2587 22.0781 9.31632H20.6719C20.6719 10.7704 19.8541 12.3593 18.599 13.9145C17.3588 15.451 15.7724 16.8555 14.4131 17.9271L15.2837 19.0315ZM22.0781 9.31632C22.0781 6.27021 20.6785 4.00456 18.5195 3.18327C16.3643 2.36351 13.7354 3.0902 11.4934 5.41957L12.5066 6.39476C14.4832 4.34117 16.5417 3.93554 18.0195 4.49765C19.4932 5.05822 20.6719 6.68865 20.6719 9.31632H22.0781ZM8.71633 19.0314C9.91099 19.9732 10.7345 20.659 12 20.659V19.2528C11.315 19.2528 10.8897 18.9542 9.58692 17.9271L8.71633 19.0314ZM14.4131 17.9271C13.1103 18.9542 12.685 19.2528 12 19.2528V20.659C13.2655 20.659 14.089 19.9732 15.2837 19.0315L14.4131 17.9271ZM4.4344 12.5662C3.73503 11.4429 3.32812 10.3421 3.32812 9.31636H1.92188C1.92188 10.7038 2.46613 12.0655 3.24062 13.3095L4.4344 12.5662ZM9.58692 17.9271C8.72726 17.2494 7.77275 16.4354 6.87158 15.5364L5.87842 16.532C6.82825 17.4796 7.82643 18.3299 8.71633 19.0314L9.58692 17.9271Z" fill="#1AD0D1"/>
</svg>
