<svg width="24" height="24" viewBox="0 0 24 24" fill="none" xmlns="http://www.w3.org/2000/svg">
<path d="M11.9993 20.625C11.7118 20.625 11.4363 20.5731 11.1728 20.4693C10.9092 20.3654 10.6736 20.2097 10.466 20.0021L4.04518 13.5573C3.48615 12.9982 3.07487 12.3594 2.81133 11.6406C2.54779 10.9219 2.41602 10.1712 2.41602 9.38854C2.41602 7.74342 2.95109 6.32988 4.02122 5.14792C5.09136 3.96597 6.42506 3.375 8.02227 3.375C8.78893 3.375 9.51166 3.52674 10.1905 3.83021C10.8693 4.13368 11.4723 4.55695 11.9993 5.1C12.5105 4.55695 13.1054 4.13368 13.7842 3.83021C14.4631 3.52674 15.1858 3.375 15.9525 3.375C17.5497 3.375 18.8874 3.96597 19.9655 5.14792C21.0436 6.32988 21.5827 7.73542 21.5827 9.36458C21.5827 10.1472 21.4469 10.8979 21.1754 11.6167C20.9038 12.3354 20.4966 12.9743 19.9535 13.5333L13.5087 20.0021C13.3011 20.2097 13.0695 20.3654 12.8139 20.4693C12.5584 20.5731 12.2868 20.625 11.9993 20.625ZM12.9646 8.40625C13.0878 8.40625 13.1973 8.43821 13.2931 8.50208C13.3889 8.56596 13.4768 8.64583 13.5566 8.74167L15.2577 11.2812H19.765C19.8918 10.9709 19.9868 10.656 20.0501 10.3366C20.1135 10.0171 20.1452 9.69315 20.1452 9.36458C20.1452 8.13471 19.7463 7.06856 18.9485 6.16615C18.1508 5.26372 17.1536 4.8125 15.957 4.8125C15.395 4.8125 14.8544 4.9283 14.3353 5.1599C13.8162 5.39148 13.365 5.71491 12.9816 6.13021L12.3348 6.825C12.2868 6.87292 12.2389 6.91283 12.191 6.94479C12.1431 6.97675 12.0792 6.99271 11.9993 6.99271C11.9195 6.99271 11.8505 6.97771 11.7923 6.94767C11.7344 6.91748 11.6836 6.87661 11.64 6.825L10.9931 6.13021C10.6055 5.71779 10.1531 5.39507 9.6361 5.16205C9.11922 4.92902 8.58131 4.8125 8.02227 4.8125C6.8312 4.8125 5.83861 5.26324 5.04448 6.16471C4.25051 7.06616 3.85352 8.13279 3.85352 9.36458C3.85352 9.69554 3.88546 10.0219 3.94935 10.3435C4.01324 10.6652 4.10628 10.9778 4.22846 11.2812H9.12435C9.24543 11.2812 9.36034 11.3101 9.46911 11.3677C9.57802 11.4254 9.66279 11.5004 9.72331 11.5927L10.8254 13.2698L12.2629 8.90938C12.3121 8.76562 12.4014 8.64583 12.5307 8.55C12.66 8.45417 12.8046 8.40625 12.9646 8.40625ZM13.1733 10.7302L11.7118 15.0906C11.6644 15.2344 11.5754 15.3542 11.4447 15.45C11.314 15.5458 11.1715 15.5938 11.0171 15.5938C10.8893 15.5938 10.7775 15.5618 10.6816 15.4979C10.5858 15.434 10.5059 15.3542 10.4421 15.2583L8.74102 12.7188H5.2431L11.4962 18.9719C11.5761 19.0518 11.6543 19.1076 11.731 19.1396C11.8077 19.1715 11.8971 19.1875 11.9993 19.1875C12.1016 19.1875 12.191 19.1715 12.2677 19.1396C12.3443 19.1076 12.4226 19.0518 12.5025 18.9719L18.7316 12.7188H14.8743C14.7466 12.7188 14.6348 12.6868 14.5389 12.6229C14.4431 12.559 14.3553 12.4792 14.2754 12.3833L13.1733 10.7302Z" fill="#1AD0D1"/>
</svg>
