<svg width="20" height="20" viewBox="0 0 20 20" fill="none" xmlns="http://www.w3.org/2000/svg">
<path d="M5.04702 16.7114L5.36035 16.868C6.63796 17.6279 8.09858 18.0252 9.58508 18.0169C14.1613 18.0065 17.9213 14.2376 17.9213 9.6614C17.9213 7.44982 17.0429 5.32595 15.4809 3.76033C13.9211 2.17854 11.7899 1.28711 9.5689 1.28711C5.01359 1.28711 1.26562 5.0356 1.26562 9.59039C1.26562 9.62643 1.26563 9.66193 1.26615 9.69797C1.27987 11.2466 1.713 12.7625 2.51948 14.0846L2.72836 14.3979L1.89281 17.479L5.04702 16.7114Z" fill="#00E676"/>
<path d="M16.4133 2.82012C14.6352 1.00592 12.1959 -0.0118706 9.65581 0.00010449H9.63962C4.40858 0.00012085 0.103932 4.30479 0.103932 9.53584C0.103932 9.56038 0.104455 9.58441 0.104455 9.60896C0.124159 11.2721 0.554707 12.9046 1.35779 14.3611L0 19.3222L5.06031 18.0167C6.45822 18.7841 8.02981 19.1797 9.62448 19.1656C14.8749 19.1368 19.179 14.8076 19.1759 9.55673C19.1884 7.03389 18.1936 4.60767 16.4133 2.82012ZM9.65581 17.5467C8.24225 17.554 6.85358 17.1748 5.63996 16.45L5.32662 16.2933L2.31342 17.0767L3.09675 14.1L2.88787 13.7867C2.11195 12.5338 1.70088 11.0894 1.70086 9.61574C1.70086 5.26985 5.27702 1.69367 9.62293 1.69367C13.9688 1.69367 17.545 5.26985 17.545 9.61574C17.545 12.3522 16.1272 14.9016 13.8022 16.3456C12.5726 17.1332 11.1422 17.5502 9.68194 17.5467M14.2722 11.75L13.6978 11.4889C13.6978 11.4889 12.8622 11.1234 12.34 10.8623C12.2878 10.8623 12.2356 10.8101 12.1833 10.8101C12.0546 10.8132 11.9288 10.8492 11.8178 10.9145C11.7066 10.9798 11.7656 10.9667 11.0345 11.8023C10.9849 11.8999 10.883 11.961 10.7734 11.9589H10.7211C10.6426 11.9458 10.5699 11.9094 10.5123 11.8545L10.2512 11.75C9.69089 11.5129 9.1779 11.1768 8.7367 10.7578C8.63227 10.6534 8.47561 10.5489 8.37115 10.4445C7.98456 10.0742 7.6507 9.65243 7.37895 9.19118L7.32672 9.08674C7.28135 9.0229 7.24612 8.95244 7.22228 8.87784C7.20862 8.78738 7.2271 8.695 7.2745 8.61675C7.32202 8.5384 7.48339 8.35562 7.64005 8.19896C7.79672 8.0423 7.79672 7.93786 7.90116 7.83341C7.95484 7.75886 7.99193 7.67368 8.00995 7.58361C8.02796 7.49353 8.02648 7.40064 8.0056 7.31118C7.76223 6.63545 7.48333 5.97306 7.17006 5.32676C7.08609 5.19617 6.95527 5.10273 6.8045 5.06565H6.23006C6.12562 5.06565 6.02118 5.11787 5.91673 5.11787L5.86451 5.17009C5.76007 5.22231 5.65563 5.32676 5.55117 5.37898C5.44674 5.4312 5.39452 5.58787 5.29008 5.69231C4.925 6.15365 4.723 6.72291 4.71563 7.31118C4.72142 7.72499 4.8102 8.13343 4.97673 8.51229L5.02896 8.66895C5.49787 9.67148 6.15365 10.5754 6.96118 11.3323L7.17006 11.5412C7.32206 11.6671 7.46193 11.8069 7.58783 11.9589C8.66986 12.9005 9.95504 13.5794 11.3426 13.9434C11.4992 13.9956 11.7081 13.9956 11.8648 14.0478H12.387C12.66 14.0343 12.9269 13.9632 13.1703 13.8389C13.2983 13.781 13.4205 13.711 13.5359 13.63L13.6403 13.5256C13.7448 13.4211 13.8492 13.3689 13.9537 13.2645C14.0557 13.1735 14.1437 13.068 14.2148 12.9512C14.3151 12.7172 14.3855 12.4718 14.4237 12.2201V11.8545C14.3767 11.8123 14.324 11.7771 14.267 11.75" fill="white"/>
</svg>
