<svg xmlns="http://www.w3.org/2000/svg" width="24" height="28" fill="none"><path fill="#fff" d="M11.834 6.726q2.304 0 4.041-1.798 1.738-1.8 1.738-4.184 0-.262-.041-.744-.304.04-.456.068-2.123.304-3.737 2.082t-1.614 3.804q0 .235.069.772m5.503 21.077q1.64 0 3.628-2.247 1.986-2.247 3.034-5.28-3.903-2.012-3.903-5.775 0-3.143 3.158-5.376-2.193-2.743-5.793-2.743-1.517 0-2.772.455l-.524.193-.704.275q-.69.262-1.255.262-.441 0-1.158-.303l-.538-.22-.51-.207a6.1 6.1 0 0 0-2.4-.469q-3.435 0-5.517 2.316T0 14.79q0 5.335 3.338 9.856 2.317 3.157 4.234 3.157.814 0 1.614-.317l.676-.276.537-.193q1.132-.4 2.083-.4 1.007 0 2.317.51l.428.166q1.338.51 2.11.51"/></svg>