<svg width="108" height="86" viewBox="0 0 108 86" fill="none" xmlns="http://www.w3.org/2000/svg">
<path d="M78.2881 50.7578H64.6465V50.2334H78.2881V50.7578Z" fill="#114631"/>
<path d="M41.5577 50.7598H27.9121V50.2343H41.5577V50.7598Z" fill="#114631"/>
<mask id="mask0_255_3308" style="mask-type:luminance" maskUnits="userSpaceOnUse" x="-18" y="-25" width="142" height="142">
<path d="M-17.2793 -24.2194H123.495V116.555H-17.2793V-24.2194Z" fill="white"/>
</mask>
<g mask="url(#mask0_255_3308)">
<path d="M3.84766 77.7633L4.37854 77.6841C4.39667 77.91 4.4734 78.0995 4.60823 78.2534C4.74331 78.4071 4.92482 78.4836 5.15277 78.4836C5.38072 78.4836 5.56248 78.4119 5.69732 78.2676C5.8324 78.1236 5.89994 77.947 5.89994 77.7379C5.89994 77.5294 5.86443 77.355 5.79316 77.2157C5.7219 77.0762 5.62804 76.9635 5.51133 76.8771C5.39438 76.7904 5.26675 76.7114 5.12819 76.6394C4.98963 76.5674 4.85108 76.4917 4.71227 76.4125C4.57371 76.333 4.44608 76.2456 4.32913 76.1493C4.07014 75.9283 3.94077 75.6042 3.94077 75.1766C3.94077 74.8404 4.04755 74.5486 4.26084 74.3011C4.47414 74.0538 4.77981 73.9299 5.17736 73.9299C5.48029 73.9299 5.74648 74.0024 5.97642 74.1464L5.95457 74.2472C5.93644 74.3095 5.91359 74.3937 5.88603 74.4992C5.85897 74.6048 5.83587 74.6939 5.81775 74.7659C5.60246 74.6505 5.38445 74.5928 5.1637 74.5928C4.94295 74.5928 4.77336 74.6495 4.65491 74.7622C4.53622 74.8752 4.47712 75.0192 4.47712 75.1945C4.47712 75.3701 4.54814 75.5188 4.69042 75.6415C4.8327 75.7636 4.99957 75.8744 5.19126 75.9727C5.38271 76.0715 5.57341 76.1818 5.76312 76.3042C5.95283 76.4266 6.11398 76.6032 6.24732 76.8338C6.38042 77.0645 6.44721 77.3382 6.44721 77.6553C6.44721 78.0876 6.33945 78.4407 6.12416 78.7143C5.90888 78.9884 5.59154 79.125 5.17189 79.125C4.7525 79.125 4.4287 78.9872 4.20075 78.7106C3.97256 78.4347 3.85511 78.1188 3.84766 77.7633Z" fill="#114631"/>
<path d="M8.81712 76.8853L8.42305 75.0838L8.05108 76.8853H8.81712ZM9.81855 79.0469H9.2385L8.9373 77.5699H7.93065L7.64063 79.0469H7.08789L8.10025 74.0035H8.75132L9.81855 79.0469Z" fill="#114631"/>
<path d="M12.0071 77.5199V73.9964H12.505V77.7074C12.505 77.9619 12.4715 78.1829 12.4039 78.3701C12.3364 78.5576 12.245 78.7016 12.1303 78.8024C12.0153 78.9032 11.8939 78.9777 11.7663 79.0256C11.6386 79.0738 11.5018 79.0977 11.3558 79.0977C11.2101 79.0977 11.0722 79.0738 10.9426 79.0256C10.8133 78.9777 10.6911 78.9032 10.5761 78.8024C10.4612 78.7016 10.37 78.5576 10.3025 78.3701C10.2349 78.1829 10.2012 77.9619 10.2012 77.7074V73.9964H10.699V77.5199C10.699 78.1491 10.917 78.464 11.3531 78.464C11.7891 78.464 12.0071 78.1491 12.0071 77.5199Z" fill="#114631"/>
<path d="M15.394 77.6777V75.5594C15.394 75.2472 15.3292 75.0166 15.1998 74.8678C15.0702 74.7191 14.8961 74.6443 14.6771 74.6443H14.0916V78.4487H14.6443C14.9215 78.4487 15.1156 78.3841 15.2271 78.2543C15.3384 78.1247 15.394 77.9325 15.394 77.6777ZM14.7318 79.0469H13.5938V73.9958H14.6225C15.0347 73.9958 15.3493 74.1447 15.5663 74.4427C15.7833 74.7404 15.8919 75.1367 15.8919 75.6316V77.6059C15.8919 78.5666 15.5052 79.0469 14.7318 79.0469Z" fill="#114631"/>
<path d="M17.7857 79.0469H17.2824V74.6371L16.9375 74.623V74.0032H17.7857V79.0469Z" fill="#114631"/>
<path d="M21.2068 79.0469H20.709V74.0032H22.5365V74.6515H21.2068V76.0711H22.0332L21.8582 76.7051H21.2068V79.0469Z" fill="#114631"/>
<path d="M25.2563 79.0469H23.4395V74.0032H25.2673V74.6515H23.9373V76.0711H24.791L24.6435 76.7051H23.9373V78.4561H25.2563V79.0469Z" fill="#114631"/>
<path d="M28.0564 77.6777V75.5594C28.0564 75.2472 27.9915 75.0166 27.8619 74.8678C27.7326 74.7191 27.5582 74.6443 27.3395 74.6443H26.7537V78.4487H27.3065C27.5838 78.4487 27.778 78.3841 27.8895 78.2543C28.0007 78.1247 28.0564 77.9325 28.0564 77.6777ZM27.3941 79.0469H26.2559V73.9958H27.2849C27.6968 73.9958 28.0117 74.1447 28.2287 74.4427C28.4457 74.7404 28.5542 75.1367 28.5542 75.6316V77.6059C28.5542 78.5666 28.1676 79.0469 27.3941 79.0469Z" fill="#114631"/>
<path d="M31.3303 79.0469H29.5137V74.0032H31.3412V74.6515H30.0115V76.0711H30.8652L30.7175 76.7051H30.0115V78.4561H31.3303V79.0469Z" fill="#114631"/>
<path d="M32.8299 76.8853H33.5686C33.7767 76.8853 33.9225 76.8108 34.0064 76.6621C34.0975 76.494 34.1489 76.3403 34.1596 76.2007C34.178 76.0279 34.1869 75.8476 34.1869 75.6604C34.1869 75.286 34.1278 75.0252 34.0094 74.8787C33.8904 74.732 33.7183 74.6587 33.4921 74.6587H32.8299V76.8853ZM34.7123 79.0469H34.2035L33.804 77.5049C33.7747 77.5148 33.7327 77.5195 33.6781 77.5195H32.8299V79.0469H32.332V74.0035H33.6453C33.9955 74.0035 34.2599 74.1591 34.4387 74.4715C34.6175 74.7839 34.7069 75.1802 34.7069 75.6604C34.7069 76.2512 34.6431 76.6763 34.5154 76.9357C34.4496 77.0703 34.3657 77.188 34.2636 77.2888L34.7123 79.0469Z" fill="#114631"/>
<path d="M37.0925 76.8853L36.6984 75.0838L36.3265 76.8853H37.0925ZM38.0939 79.0469H37.5139L37.2129 77.5699H36.206L35.916 79.0469H35.3633L36.3756 74.0035H37.0267L38.0939 79.0469Z" fill="#114631"/>
<path d="M39.3469 79.0469H38.849V74.6515H38.0117V74.0032H40.2115V74.6515H39.3469V79.0469Z" fill="#114631"/>
<path d="M41.6783 79.0469H41.175V74.6371L40.8301 74.623V74.0032H41.6783V79.0469Z" fill="#114631"/>
<path d="M44.5232 77.6118V75.5439C44.5232 75.227 44.473 74.9867 44.3727 74.8235C44.2724 74.6599 44.1052 74.5784 43.8718 74.5784C43.6384 74.5784 43.4716 74.6589 43.3712 74.8198C43.2709 74.9807 43.2208 75.2196 43.2208 75.5369V77.619C43.2208 77.8879 43.2781 78.097 43.3931 78.246C43.5081 78.3947 43.6657 78.4692 43.8664 78.4692C44.067 78.4692 44.2267 78.3935 44.3454 78.2423C44.4638 78.091 44.5232 77.881 44.5232 77.6118ZM45.021 75.3999V77.7126C45.021 78.1978 44.909 78.5546 44.6846 78.7828C44.4603 79.011 44.1912 79.125 43.8773 79.125C43.5637 79.125 43.2925 79.011 43.0646 78.7828C42.8366 78.5546 42.7227 78.1978 42.7227 77.7126V75.3924C42.7227 74.8978 42.8257 74.5233 43.0318 74.2686C43.2379 74.014 43.5217 73.8867 43.8828 73.8867C44.2441 73.8867 44.5239 74.0212 44.7228 74.2902C44.9217 74.5591 45.021 74.9291 45.021 75.3999Z" fill="#114631"/>
<path d="M48.7764 79.0469H48.2731L46.5821 75.3289V79.0469H46.084V74.0032H46.5821L48.2731 77.707V74.0032H48.7764V79.0469Z" fill="#114631"/>
<path d="M53.4272 77.6118V75.5439C53.4272 75.227 53.3773 74.9867 53.277 74.8235C53.1764 74.6599 53.0095 74.5784 52.7761 74.5784C52.5425 74.5784 52.3756 74.6589 52.2753 74.8198C52.175 74.9807 52.1248 75.2196 52.1248 75.5369V77.619C52.1248 77.8879 52.1824 78.097 52.2971 78.246C52.4121 78.3947 52.57 78.4692 52.7707 78.4692C52.9713 78.4692 53.131 78.3935 53.2494 78.2423C53.3681 78.091 53.4272 77.881 53.4272 77.6118ZM53.9253 75.3999V77.7126C53.9253 78.1978 53.8133 78.5546 53.5886 78.7828C53.3644 79.011 53.0955 79.125 52.7816 79.125C52.4677 79.125 52.1968 79.011 51.9689 78.7828C51.7409 78.5546 51.627 78.1978 51.627 77.7126V75.3924C51.627 74.8978 51.73 74.5233 51.9361 74.2686C52.1422 74.014 52.4258 73.8867 52.7871 73.8867C53.1481 73.8867 53.4282 74.0212 53.6271 74.2902C53.8257 74.5591 53.9253 74.9291 53.9253 75.3999Z" fill="#114631"/>
<path d="M55.4844 79.0449H54.9863V74.0013H56.8141V74.6496H55.4844V76.0692H56.3106L56.1358 76.7031H55.4844V79.0449Z" fill="#114631"/>
<path d="M59.2891 77.7633L59.8199 77.6841C59.8381 77.91 59.9148 78.0995 60.0496 78.2534C60.1845 78.4071 60.3662 78.4836 60.5942 78.4836C60.8224 78.4836 61.0036 78.4119 61.1387 78.2676C61.2736 78.1236 61.3413 77.947 61.3413 77.7379C61.3413 77.5294 61.3056 77.355 61.2346 77.2157C61.1633 77.0762 61.0694 76.9635 60.9527 76.8771C60.8358 76.7904 60.7082 76.7114 60.5696 76.6394C60.431 76.5674 60.2922 76.4917 60.1534 76.4125C60.0151 76.333 59.8872 76.2456 59.7705 76.1493C59.5115 75.9283 59.3822 75.6042 59.3822 75.1766C59.3822 74.8404 59.4887 74.5486 59.7023 74.3011C59.9155 74.0538 60.2212 73.9299 60.6188 73.9299C60.9217 73.9299 61.1879 74.0024 61.4178 74.1464L61.3957 74.2472C61.3776 74.3095 61.3548 74.3937 61.3274 74.4992C61.3004 74.6048 61.2773 74.6939 61.2592 74.7659C61.0436 74.6505 60.8259 74.5928 60.6051 74.5928C60.3844 74.5928 60.2148 74.6495 60.0961 74.7622C59.9776 74.8752 59.9183 75.0192 59.9183 75.1945C59.9183 75.3701 59.9895 75.5188 60.1318 75.6415C60.2741 75.7636 60.441 75.8744 60.6324 75.9727C60.8241 76.0715 61.0146 76.1818 61.2045 76.3042C61.3942 76.4266 61.5554 76.6032 61.6887 76.8338C61.8218 77.0645 61.8886 77.3382 61.8886 77.6553C61.8886 78.0876 61.7809 78.4407 61.5656 78.7143C61.3503 78.9884 61.0327 79.125 60.6133 79.125C60.1939 79.125 59.8701 78.9872 59.6422 78.7106C59.414 78.4347 59.2963 78.1188 59.2891 77.7633Z" fill="#114631"/>
<path d="M63.3533 76.8853H64.0647C64.2289 76.8853 64.3729 76.8324 64.497 76.7267C64.5591 76.674 64.621 76.5419 64.683 76.3306C64.7161 76.2296 64.7324 76.1191 64.7324 75.9991V75.6604C64.7324 75.286 64.6741 75.024 64.5574 74.875C64.4404 74.7263 64.2691 74.6515 64.0429 74.6515H63.3533V76.8853ZM63.3533 79.0469H62.8555V74.0035H64.136C64.5045 74.0035 64.7789 74.1572 64.9596 74.4643C65.1402 74.7717 65.2306 75.168 65.2306 75.6532C65.2306 76.8975 64.8819 77.5195 64.1854 77.5195H63.3533V79.0469Z" fill="#114631"/>
<path d="M67.851 77.6118V75.5439C67.851 75.227 67.8011 74.9867 67.7008 74.8235C67.6002 74.6599 67.4334 74.5784 67.2 74.5784C66.9663 74.5784 66.7997 74.6589 66.6991 74.8198C66.5988 74.9807 66.5486 75.2196 66.5486 75.5369V77.619C66.5486 77.8879 66.606 78.097 66.721 78.246C66.8359 78.3947 66.9939 78.4692 67.1942 78.4692C67.3951 78.4692 67.5548 78.3935 67.6732 78.2423C67.7919 78.091 67.851 77.881 67.851 77.6118ZM68.3491 75.3999V77.7126C68.3491 78.1978 68.2371 78.5546 68.0124 78.7828C67.7882 79.011 67.519 79.125 67.2052 79.125C66.8918 79.125 66.6207 79.011 66.3927 78.7828C66.1648 78.5546 66.0508 78.1978 66.0508 77.7126V75.3924C66.0508 74.8978 66.1538 74.5233 66.3599 74.2686C66.566 74.014 66.8498 73.8867 67.2109 73.8867C67.5722 73.8867 67.852 74.0212 68.0509 74.2902C68.2496 74.5591 68.3491 74.9291 68.3491 75.3999Z" fill="#114631"/>
<path d="M69.9102 76.8853H70.6489C70.857 76.8853 71.0028 76.8108 71.0867 76.6621C71.1778 76.494 71.2292 76.3403 71.2399 76.2007C71.2583 76.0279 71.2675 75.8476 71.2675 75.6604C71.2675 75.286 71.2081 75.0252 71.0894 74.8787C70.9708 74.732 70.7984 74.6587 70.5725 74.6587H69.9102V76.8853ZM71.7927 79.0469H71.2836L70.8843 77.5049C70.855 77.5148 70.8133 77.5195 70.7584 77.5195H69.9102V79.0469H69.4121V74.0035H70.7254C71.0758 74.0035 71.3402 74.1591 71.519 74.4715C71.6978 74.7839 71.7874 75.1802 71.7874 75.6604C71.7874 76.2512 71.7234 76.6763 71.5957 76.9357C71.5299 77.0703 71.446 77.188 71.3437 77.2888L71.7927 79.0469Z" fill="#114631"/>
<path d="M73.5266 79.0469H73.0285V74.6515H72.1914V74.0032H74.3912V74.6515H73.5266V79.0469Z" fill="#114631"/>
<path d="M74.8672 77.7633L75.3983 77.6841C75.4164 77.91 75.4932 78.0995 75.628 78.2534C75.7628 78.4071 75.9446 78.4836 76.1726 78.4836C76.4005 78.4836 76.582 78.4119 76.7168 78.2676C76.8519 78.1236 76.9197 77.947 76.9197 77.7379C76.9197 77.5294 76.884 77.355 76.8127 77.2157C76.7417 77.0762 76.6476 76.9635 76.5309 76.8771C76.4142 76.7904 76.2865 76.7114 76.1477 76.6394C76.0092 76.5674 75.8706 76.4917 75.7321 76.4125C75.5932 76.333 75.4656 76.2456 75.3489 76.1493C75.0897 75.9283 74.9603 75.6042 74.9603 75.1766C74.9603 74.8404 75.0671 74.5486 75.2804 74.3011C75.4937 74.0538 75.7996 73.9299 76.1971 73.9299C76.4998 73.9299 76.766 74.0024 76.9962 74.1464L76.9741 74.2472C76.956 74.3095 76.9331 74.3937 76.9058 74.4992C76.8785 74.6048 76.8557 74.6939 76.8375 74.7659C76.622 74.6505 76.404 74.5928 76.1835 74.5928C75.9627 74.5928 75.7931 74.6495 75.6747 74.7622C75.5558 74.8752 75.4967 75.0192 75.4967 75.1945C75.4967 75.3701 75.5677 75.5188 75.7102 75.6415C75.8525 75.7636 76.0193 75.8744 76.2108 75.9727C76.4025 76.0715 76.5929 76.1818 76.7826 76.3042C76.9724 76.4266 77.1338 76.6032 77.2671 76.8338C77.4002 77.0645 77.4667 77.3382 77.4667 77.6553C77.4667 78.0876 77.359 78.4407 77.1439 78.7143C76.9287 78.9884 76.6111 79.125 76.1917 79.125C75.7723 79.125 75.4482 78.9872 75.2203 78.7106C74.9923 78.4347 74.8746 78.1188 74.8672 77.7633Z" fill="#114631"/>
<path d="M83.1635 79.0469H82.6656V75.9631L81.8994 79.0469H81.4837L80.7283 75.9701V79.0469H80.2305V74.0032H80.7283L81.6915 77.7211L82.6656 74.0032H83.1635V79.0469Z" fill="#114631"/>
<path d="M86.1174 79.0469H84.3008V74.0032H86.1283V74.6515H84.7984V76.0711H85.6523L85.5043 76.7051H84.7984V78.4561H86.1174V79.0469Z" fill="#114631"/>
<path d="M88.9194 77.6777V75.5594C88.9194 75.2472 88.8546 75.0166 88.7252 74.8678C88.5956 74.7191 88.4215 74.6443 88.2025 74.6443H87.617V78.4487H88.1697C88.4471 78.4487 88.6413 78.3841 88.7525 78.2543C88.8638 78.1247 88.9194 77.9325 88.9194 77.6777ZM88.2571 79.0469H87.1191V73.9958H88.1479C88.5601 73.9958 88.8747 74.1447 89.0917 74.4427C89.3087 74.7404 89.4175 75.1367 89.4175 75.6316V77.6059C89.4175 78.5666 89.0306 79.0469 88.2571 79.0469Z" fill="#114631"/>
<path d="M91.3111 79.0469H90.8075V74.6371L90.4629 74.623V74.0032H91.3111V79.0469Z" fill="#114631"/>
<path d="M94.2667 78.2739L94.3486 78.8793C94.0385 79.0377 93.743 79.1172 93.4621 79.1172C93.4035 79.1172 93.3151 79.1095 93.1964 79.0953C93.078 79.0809 92.9521 79.0268 92.819 78.9332C92.6859 78.8393 92.5782 78.6908 92.4962 78.4865C92.414 78.2821 92.373 78.0291 92.373 77.7262V75.4131C92.373 75.0484 92.4123 74.772 92.4907 74.5848C92.5692 74.3976 92.6886 74.2389 92.8491 74.1093C93.0134 73.9891 93.2084 73.929 93.4346 73.929C93.7154 73.929 93.9746 74.0082 94.2118 74.1669L94.0695 74.7291C93.8944 74.6424 93.7129 74.5992 93.5252 74.5992C93.337 74.5992 93.181 74.6603 93.0571 74.7829C92.933 74.9054 92.8712 75.0938 92.8712 75.3486V77.7118C92.8712 77.9278 92.9111 78.0961 92.9913 78.2163C93.0934 78.3703 93.2578 78.4468 93.484 78.4468C93.7102 78.4468 93.9712 78.3891 94.2667 78.2739Z" fill="#114631"/>
<path d="M95.8424 79.0469H95.3388V74.6371L94.9941 74.623V74.0032H95.8424V79.0469Z" fill="#114631"/>
<path d="M99.6634 79.0469H99.1598L97.4688 75.3289V79.0469H96.9707V74.0032H97.4688L99.1598 77.707V74.0032H99.6634V79.0469Z" fill="#114631"/>
<path d="M102.618 79.0449H100.801V74.0013H102.629V74.6496H101.299V76.0692H102.152L102.005 76.7031H101.299V78.4542H102.618V79.0449Z" fill="#114631"/>
<path d="M11.9523 72.3106C11.9523 72.0546 12.1134 71.8745 12.3116 71.8745C12.5095 71.8745 12.6709 72.0546 12.6709 72.3106C12.6709 72.5755 12.5095 72.7461 12.3116 72.7461C12.1134 72.7461 11.9523 72.5755 11.9523 72.3106ZM10.999 72.3106C10.999 72.0546 11.1604 71.8745 11.3583 71.8745C11.5562 71.8745 11.7176 72.0546 11.7176 72.3106C11.7176 72.5755 11.5562 72.7461 11.3583 72.7461C11.1604 72.7461 10.999 72.5755 10.999 72.3106ZM12.1723 68.0188C12.0916 67.9808 12.0695 67.9142 12.0988 67.8008L12.1869 67.4504C12.2234 67.3272 12.2823 67.289 12.3774 67.3367L12.9128 67.5924C13.6314 67.9334 13.9542 67.9808 14.2181 67.9808H14.4086V68.7481H14.1228C14.2181 68.8998 14.2618 69.0607 14.2618 69.2218C14.2618 70.2357 12.986 70.8324 11.7176 70.8324C10.4269 70.8324 9.22461 70.2734 9.22461 68.4451C9.22461 67.9334 9.33461 67.3272 9.55436 66.7683C9.60577 66.6354 9.64972 66.5788 9.75972 66.6451L9.99437 66.7872C10.0823 66.8438 10.1118 66.9009 10.0604 67.0332C9.89182 67.469 9.80367 67.9713 9.80367 68.3788C9.80367 69.6008 10.5444 70.0648 11.7102 70.0648C12.9495 70.0648 13.6828 69.5439 13.6828 69.1081C13.6828 68.7669 13.2942 68.5588 12.766 68.3028L12.1723 68.0188Z" fill="#114631"/>
<path d="M17.3122 63.2512C17.3122 62.9955 17.4736 62.8152 17.6715 62.8152C17.8697 62.8152 18.0308 62.9955 18.0308 63.2512C18.0308 63.5164 17.8697 63.687 17.6715 63.687C17.4736 63.687 17.3122 63.5164 17.3122 63.2512ZM15.6039 67.9788H17.9576C18.5294 67.9788 18.7055 67.6659 18.7055 66.9933C18.7055 66.1123 18.3755 65.4967 17.7448 65.4967C16.7478 65.4967 15.9997 67.0313 15.6039 67.9788ZM15.0538 67.9788V65.089C15.0538 64.9566 15.0978 64.8998 15.1931 64.8998H15.4718C15.5671 64.8998 15.6185 64.9566 15.6185 65.089V66.6903C16.1097 65.6671 16.8429 64.7292 17.7597 64.7292C18.6908 64.7292 19.2848 65.6387 19.2848 67.1356C19.2848 68.2914 18.8227 68.7461 17.789 68.7461H14.3352C14.2252 68.7461 14.1152 68.6984 14.1152 68.3672C14.1152 68.026 14.2252 67.9788 14.3352 67.9788H15.0538Z" fill="#114631"/>
<path d="M20.7014 67.2682C20.7014 67.8271 20.7821 67.9788 21.2146 67.9788H21.42V68.7461H21.0974C20.43 68.7461 20.1367 68.3769 20.1367 67.6662V62.2756C20.1367 62.1522 20.1588 62.0956 20.2395 62.0765L20.5621 62.0102C20.6574 61.9913 20.7014 62.0482 20.7014 62.1713V67.2682Z" fill="#114631"/>
<path d="M21.963 70.3179C21.963 70.0621 22.1244 69.8823 22.3223 69.8823C22.5205 69.8823 22.6816 70.0621 22.6816 70.3179C22.6816 70.5833 22.5205 70.7539 22.3223 70.7539C22.1244 70.7539 21.963 70.5833 21.963 70.3179ZM21.8456 67.978C22.2563 67.978 22.337 67.836 22.337 67.2959V65.0882C22.337 64.9559 22.3809 64.899 22.4763 64.899H22.7549C22.8502 64.899 22.9016 64.9559 22.9016 65.0882V67.656C22.9016 68.3664 22.6009 68.7453 21.9337 68.7453H21.3472C21.2372 68.7453 21.1272 68.6979 21.1272 68.3664C21.1272 68.0252 21.2372 67.978 21.3472 67.978H21.8456ZM21.0098 70.3179C21.0098 70.0621 21.1712 69.8823 21.3691 69.8823C21.5672 69.8823 21.7284 70.0621 21.7284 70.3179C21.7284 70.5833 21.5672 70.7539 21.3691 70.7539C21.1712 70.7539 21.0098 70.5833 21.0098 70.3179Z" fill="#114631"/>
<path d="M25.7899 68.7474H25.0495C24.9174 69.6948 24.536 70.2254 23.7294 70.8032C23.6487 70.8601 23.5901 70.8318 23.5536 70.7275L23.4215 70.4054C23.3776 70.3011 23.4215 70.2443 23.5094 70.178C24.2794 69.6001 24.5506 69.1261 24.5506 67.601V65.0903C24.5506 64.958 24.5948 64.9011 24.6902 64.9011H24.9688C25.0641 64.9011 25.1153 64.958 25.1153 65.0903V67.9802H25.7899V68.7474Z" fill="#114631"/>
<path d="M26.2075 67.9788C26.6401 67.9788 26.7208 67.8271 26.7208 67.2682V62.2754C26.7208 62.1522 26.7429 62.0956 26.8233 62.0762L27.1459 62.0102C27.2415 61.9913 27.2854 62.0479 27.2854 62.1711V67.6659C27.2854 68.3769 26.9922 68.7461 26.3247 68.7461H25.7161C25.6061 68.7461 25.4961 68.6984 25.4961 68.3669C25.4961 68.0257 25.6061 67.9788 25.7161 67.9788H26.2075Z" fill="#114631"/>
<path d="M28.3711 62.2773C28.3711 62.1542 28.3929 62.0973 28.4736 62.0782L28.7964 62.0121C28.8918 61.993 28.9358 62.0499 28.9358 62.173V68.5489C28.9358 68.6815 28.8844 68.748 28.7964 68.748H28.5104C28.4225 68.748 28.3711 68.6815 28.3711 68.5489V62.2773Z" fill="#114631"/>
<path d="M34.0618 70.3179C34.0618 70.0621 34.2232 69.8823 34.4211 69.8823C34.6192 69.8823 34.7804 70.0621 34.7804 70.3179C34.7804 70.5833 34.6192 70.7539 34.4211 70.7539C34.2232 70.7539 34.0618 70.5833 34.0618 70.3179ZM36.1515 67.978C36.5622 67.978 36.6429 67.836 36.6429 67.2959V65.0882C36.6429 64.9559 36.6869 64.899 36.7822 64.899H37.0608C37.1562 64.899 37.2076 64.9559 37.2076 65.0882V67.6086C37.3762 67.8452 37.6037 67.978 37.9334 67.978H38.0069V68.7453H37.9334C37.5669 68.7453 37.2955 68.5559 37.1122 68.2336C36.9729 68.5747 36.6943 68.7453 36.2397 68.7453H33.248C32.1331 68.7453 31.5469 68.0061 31.5469 66.7844V65.6948C31.5469 65.5622 31.598 65.5051 31.6934 65.5051H31.972C32.0673 65.5051 32.1115 65.5622 32.1115 65.6948V66.3106C32.1115 67.5234 32.4048 67.978 33.4166 67.978H36.1515Z" fill="#114631"/>
<path d="M42.3178 67.2418C42.3178 65.9628 41.9217 65.4987 41.3427 65.4987C40.3455 65.4987 39.5973 67.0332 39.2015 67.981H42.3178V67.2418ZM38.6515 67.981V62.2776C38.6515 62.1544 38.6736 62.0976 38.7541 62.0784L39.0769 62.0121C39.1722 61.9933 39.2162 62.0501 39.2162 62.1733V66.6923C39.7073 65.669 40.4406 64.7314 41.3571 64.7314C42.2885 64.7314 42.8822 65.6409 42.8822 67.1375V67.981H43.469V68.748H37.9329C37.8229 68.748 37.7129 68.7006 37.7129 68.3691C37.7129 68.0279 37.8229 67.981 37.9329 67.981H38.6515Z" fill="#114631"/>
<path d="M43.9676 67.9788C44.3783 67.9788 44.459 67.8368 44.459 67.2967V62.2754C44.459 62.1522 44.4809 62.0956 44.5616 62.0762L44.8842 62.0102C44.9795 61.9913 45.0235 62.0479 45.0235 62.1711V67.6093C45.1923 67.846 45.4195 67.9788 45.7495 67.9788H45.8228V68.7461H45.7495C45.3828 68.7461 45.1116 68.5566 44.9284 68.2343C44.7888 68.5755 44.5104 68.7461 44.0555 68.7461H43.3958C43.2858 68.7461 43.1758 68.6984 43.1758 68.3669C43.1758 68.0257 43.2858 67.9788 43.3958 67.9788H43.9676Z" fill="#114631"/>
<path d="M46.2405 67.9788C46.673 67.9788 46.7537 67.8271 46.7537 67.2682V62.2754C46.7537 62.1522 46.7758 62.0956 46.8565 62.0762L47.1791 62.0102C47.2744 61.9913 47.3184 62.0479 47.3184 62.1711V67.6659C47.3184 68.3769 47.0251 68.7461 46.3579 68.7461H45.7493C45.6393 68.7461 45.5293 68.6984 45.5293 68.3669C45.5293 68.0257 45.6393 67.9788 45.7493 67.9788H46.2405Z" fill="#114631"/>
<path d="M52.6574 72.3106C52.6574 72.0546 52.8188 71.8745 53.0167 71.8745C53.2148 71.8745 53.3762 72.0546 53.3762 72.3106C53.3762 72.5755 53.2148 72.7461 53.0167 72.7461C52.8188 72.7461 52.6574 72.5755 52.6574 72.3106ZM51.7044 72.3106C51.7044 72.0546 51.8658 71.8745 52.0637 71.8745C52.2616 71.8745 52.4227 72.0546 52.4227 72.3106C52.4227 72.5755 52.2616 72.7461 52.0637 72.7461C51.8658 72.7461 51.7044 72.5755 51.7044 72.3106ZM54.366 69.0324C54.366 68.0945 52.4595 68.0754 52.4595 66.408C52.4595 65.1955 53.1781 64.6365 53.9627 64.6365C54.3881 64.6365 54.8057 64.7974 55.18 65.1101C55.246 65.1669 55.2681 65.2238 55.2388 65.2998L55.1065 65.6787C55.07 65.7924 55.026 65.8113 54.9381 65.745C54.6078 65.5079 54.256 65.3944 53.9555 65.3944C53.4348 65.3944 53.0388 65.7164 53.0388 66.408C53.0388 67.6113 54.9453 67.5164 54.9453 69.0041C54.9453 70.0743 53.9334 70.8324 52.4227 70.8324C51.1323 70.8324 49.9297 70.2734 49.9297 68.4451C49.9297 67.9334 50.0397 67.3272 50.2597 66.7683C50.3111 66.6354 50.355 66.5788 50.465 66.6451L50.6997 66.7872C50.7876 66.8438 50.8169 66.9009 50.7657 67.0332C50.5971 67.469 50.509 67.9713 50.509 68.3788C50.509 69.6008 51.2644 70.0648 52.4155 70.0648C53.3762 70.0648 54.366 69.6862 54.366 69.0324Z" fill="#114631"/>
<path d="M56.0156 68.7461C55.9131 68.7461 55.8691 68.6795 55.8691 68.5566V68.1588C55.8691 68.0357 55.9131 67.9788 56.0156 67.9788H57.9443C58.3771 67.9788 58.4647 67.8368 58.4647 67.2967V66.8607C58.4647 65.8659 58.1715 65.4967 57.2843 65.4967C57.0864 65.4967 56.8589 65.5153 56.595 65.5536C56.5366 65.563 56.5145 65.563 56.4924 65.563C56.397 65.563 56.3456 65.5153 56.3456 65.4016V65.0515C56.3456 64.9378 56.3824 64.8998 56.4556 64.8715C56.7124 64.7766 57.0131 64.7292 57.3138 64.7292C58.3915 64.7292 59.0296 65.2124 59.0296 66.7755V67.6568C59.0296 68.3672 58.7289 68.7461 58.0615 68.7461H56.0156Z" fill="#114631"/>
<path d="M62.0285 66.7013C62.0285 66.0758 61.8159 65.6686 61.2952 65.6686C60.7745 65.6686 60.5034 66.1141 60.5034 66.7868C60.5034 67.7435 60.7894 67.9804 61.4492 67.9804H62.0139C62.0213 67.8192 62.0285 67.6486 62.0285 67.4594V66.7013ZM61.9111 68.7477H61.3099C60.4373 68.7477 59.9238 68.1321 59.9238 66.7962C59.9238 65.6497 60.4373 64.9013 61.2734 64.9013C62.0578 64.9013 62.5929 65.4697 62.5929 66.7013V67.592C62.5929 67.7246 62.5857 67.8572 62.5857 67.9804H63.319V68.7477H62.5122C62.3513 69.6287 61.926 70.2065 60.9066 70.8037C60.8259 70.8508 60.7745 70.832 60.7303 70.7277L60.5985 70.4056C60.5545 70.3013 60.5985 70.235 60.6866 70.1782C61.3978 69.7141 61.7499 69.354 61.9111 68.7477Z" fill="#114631"/>
<path d="M65.7091 65.4798C65.3573 65.4798 64.9612 65.5461 64.6973 65.6216C64.9905 65.8776 65.1812 66.2091 65.4966 66.8914C65.5403 66.9955 65.5845 67.0998 65.6359 67.1849C66.1345 66.768 66.4131 66.2848 66.4131 65.9722C66.4131 65.6787 66.2224 65.4798 65.7091 65.4798ZM63.3921 67.9808C64.074 67.9808 64.668 67.8007 65.1445 67.5261C65.1077 67.4598 65.0712 67.3933 65.0417 67.3175C64.5508 66.2659 64.4331 66.0762 64.0226 65.8679C63.9494 65.8302 63.9422 65.7447 63.9566 65.6598L64.0373 65.1386C64.0519 65.0534 64.0812 65.006 64.1547 64.9871C64.6384 64.8449 65.2694 64.7123 65.6798 64.7123C66.6403 64.7123 66.9924 65.1575 66.9924 65.7924C66.9924 66.3889 66.6331 67.1092 66.0391 67.687C66.3031 67.8956 66.6624 67.9808 67.2489 67.9808H67.3956V68.748H67.2489C66.4424 68.748 65.9145 68.5397 65.5259 68.1037C64.9468 68.4925 64.2352 68.748 63.4433 68.748H63.2454C63.1356 68.748 63.0254 68.7006 63.0254 68.3691C63.0254 68.0279 63.1356 67.9808 63.2454 67.9808H63.3921Z" fill="#114631"/>
<path d="M68.0255 67.9788C68.3923 67.9788 68.6634 67.7702 68.6634 67.1641V65.9417C68.6634 65.8093 68.7074 65.7522 68.8027 65.7522H69.0813C69.1767 65.7522 69.2281 65.8093 69.2281 65.9417V67.4482C69.2281 67.4956 69.2204 67.543 69.2204 67.5905C69.4406 67.846 69.712 67.9788 69.9539 67.9788C70.3204 67.9788 70.57 67.7702 70.57 67.1641V65.9417C70.57 65.8093 70.6139 65.7522 70.7093 65.7522H70.9879C71.083 65.7522 71.1346 65.8093 71.1346 65.9417V67.4482C71.1346 67.4956 71.1346 67.5525 71.1272 67.5996C71.3472 67.8557 71.6039 67.9788 71.8458 67.9788C72.2123 67.9788 72.4616 67.7702 72.4616 67.1641V65.089C72.4616 64.9566 72.5055 64.8998 72.6011 64.8998H72.8797C72.9751 64.8998 73.0265 64.9566 73.0265 65.089V67.4482C73.0265 67.505 73.0265 67.5525 73.019 67.5996C73.1948 67.846 73.4223 67.9788 73.752 67.9788H73.8255V68.7461H73.752C73.3562 68.7461 73.063 68.5283 72.8797 68.1494C72.7258 68.4998 72.4251 68.7461 71.963 68.7461C71.5379 68.7461 71.2153 68.5283 70.9951 68.1395C70.8414 68.4906 70.5407 68.7461 70.0711 68.7461C69.6457 68.7461 69.3088 68.5283 69.0888 68.1303C68.9274 68.4906 68.6195 68.7461 68.1427 68.7461H67.3216C67.2118 68.7461 67.1016 68.6984 67.1016 68.3669C67.1016 68.0257 67.2118 67.9788 67.3216 67.9788H68.0255Z" fill="#114631"/>
<path d="M74.2444 67.9808C74.6769 67.9808 74.7576 67.8291 74.7576 67.2701V62.2773C74.7576 62.1542 74.7795 62.0976 74.8602 62.0782L75.1827 62.0121C75.2781 61.9933 75.3223 62.0499 75.3223 62.173V67.6679C75.3223 68.3788 75.029 68.748 74.3618 68.748H73.753C73.6432 68.748 73.5332 68.7004 73.5332 68.3689C73.5332 68.0277 73.6432 67.9808 73.753 67.9808H74.2444Z" fill="#114631"/>
<path d="M76.4082 62.2754C76.4082 62.1522 76.4303 62.0954 76.511 62.0762L76.8336 62.0102C76.9292 61.9911 76.9729 62.0479 76.9729 62.1711V68.5469C76.9729 68.6795 76.9215 68.7461 76.8336 68.7461H76.5478C76.4596 68.7461 76.4082 68.6795 76.4082 68.5469V62.2754Z" fill="#114631"/>
<path d="M79.6563 68.7461C79.5537 68.7461 79.5098 68.6795 79.5098 68.5566V68.1588C79.5098 68.0357 79.5537 67.9788 79.6563 67.9788H81.5849C82.0174 67.9788 82.1053 67.8368 82.1053 67.2967V66.8607C82.1053 65.8659 81.8121 65.4967 80.9249 65.4967C80.727 65.4967 80.4995 65.5153 80.2356 65.5536C80.177 65.563 80.1551 65.563 80.133 65.563C80.0374 65.563 79.9863 65.5153 79.9863 65.4016V65.0515C79.9863 64.9378 80.023 64.8998 80.0963 64.8715C80.353 64.7766 80.6537 64.7292 80.9544 64.7292C82.0321 64.7292 82.67 65.2124 82.67 66.7755V67.6568C82.67 68.3672 82.3696 68.7461 81.7021 68.7461H79.6563Z" fill="#114631"/>
<path d="M84.2617 67.2682C84.2617 67.8271 84.3421 67.9788 84.7749 67.9788H84.9803V68.7461H84.6577C83.9903 68.7461 83.6973 68.3769 83.6973 67.6662V62.2756C83.6973 62.1522 83.7189 62.0956 83.7998 62.0765L84.1224 62.0102C84.2177 61.9913 84.2617 62.0482 84.2617 62.1713V67.2682Z" fill="#114631"/>
<path d="M87.956 67.9808C87.7435 67.6962 87.6553 67.4407 87.5379 66.768C87.377 65.7924 87.0981 65.489 86.5335 65.489C86.2916 65.489 85.9981 65.5935 85.683 65.8207C85.5949 65.887 85.5584 65.8679 85.5216 65.7542L85.3895 65.3755C85.3602 65.2995 85.3823 65.2427 85.4481 65.1858C85.7856 64.8824 86.1888 64.7311 86.5774 64.7311C87.5235 64.7311 87.9411 65.527 88.1174 66.6826C88.2125 67.3175 88.3446 67.6587 88.7039 67.9808H89.056V68.748H84.9058C84.7955 68.748 84.6855 68.7004 84.6855 68.3689C84.6855 68.0277 84.7955 67.9808 84.9058 67.9808H87.956Z" fill="#114631"/>
<path d="M90.362 63.3272C90.362 63.0715 90.5234 62.8914 90.7213 62.8914C90.9195 62.8914 91.0807 63.0715 91.0807 63.3272C91.0807 63.5924 90.9195 63.763 90.7213 63.763C90.5234 63.763 90.362 63.5924 90.362 63.3272ZM89.4088 63.3272C89.4088 63.0715 89.5702 62.8914 89.7681 62.8914C89.966 62.8914 90.1276 63.0715 90.1276 63.3272C90.1276 63.5924 89.966 63.763 89.7681 63.763C89.5702 63.763 89.4088 63.5924 89.4088 63.3272ZM89.4823 67.9788C89.8927 67.9788 89.9734 67.8368 89.9734 67.2967V65.0892C89.9734 64.9566 90.0174 64.8998 90.1127 64.8998H90.3913C90.4869 64.8998 90.5381 64.9566 90.5381 65.0892V67.657C90.5381 68.3672 90.2374 68.7461 89.5702 68.7461H88.9834C88.8737 68.7461 88.7637 68.6987 88.7637 68.3672C88.7637 68.026 88.8737 67.9788 88.9834 67.9788H89.4823Z" fill="#114631"/>
<path d="M94.1017 67.9788C94.5122 67.9788 94.5931 67.8368 94.5931 67.2967V62.2754C94.5931 62.1522 94.6147 62.0956 94.6957 62.0762L95.018 62.0102C95.1136 61.9913 95.1575 62.0479 95.1575 62.1711V67.6568C95.1575 68.3669 94.8571 68.7461 94.1896 68.7461H91.5938C91.4912 68.7461 91.4473 68.6795 91.4473 68.5566V68.1588C91.4473 68.0357 91.4912 67.9788 91.5938 67.9788H93.2289L92.1145 62.806C92.0852 62.6734 92.1217 62.6163 92.217 62.5786L92.4812 62.4648C92.5763 62.4274 92.6352 62.4743 92.6573 62.5974L93.8231 67.9788H94.1017Z" fill="#114631"/>
<path d="M96.2422 62.2773C96.2422 62.1542 96.2643 62.0973 96.3447 62.0782L96.6675 62.0121C96.7629 61.993 96.8066 62.0499 96.8066 62.173V68.5489C96.8066 68.6815 96.7552 68.748 96.6675 68.748H96.3815C96.2936 68.748 96.2422 68.6815 96.2422 68.5489V62.2773Z" fill="#114631"/>
<path d="M82.8943 21.6406C82.8861 21.6776 82.0406 25.3623 79.2247 26.4114C78.9514 26.4032 78.274 25.4199 77.9482 24.9474C77.3935 24.1424 76.8196 23.3098 76.0734 22.8812C75.6324 22.6282 75.0996 22.5644 74.5734 22.7012C66.0534 24.9221 65.564 25.6054 65.3288 25.9337C64.9939 26.4015 64.605 26.8638 64.1794 27.3205C62.9865 26.5323 62.0554 25.7199 62.0802 25.0609C62.1 24.5285 62.9043 23.8662 64.2864 23.2442C64.3592 23.2114 71.5875 19.9238 72.3304 18.3893C72.4769 18.0868 72.5998 17.5927 72.354 16.9555C71.7074 15.2814 68.7947 13.6374 68.0699 13.3456C67.2753 13.0258 64.1923 13.7446 58.9063 15.4828L59.4347 17.0901C62.728 16.0075 66.7012 14.8965 67.4953 14.939C68.8094 15.4922 70.8118 17.1368 70.8075 17.6443C70.2925 18.313 66.4435 20.4175 63.5919 21.701C61.4842 22.6498 60.4369 23.7282 60.3892 24.9975C60.339 26.3315 61.4189 27.4759 62.9398 28.5312C57.0519 33.8093 46.1362 37.9476 41.9355 37.9476V39.6401C46.5653 39.6401 58.2354 35.2319 64.4217 29.4671C65.0976 29.8629 65.8091 30.25 66.5152 30.6339C66.8892 30.8373 67.255 31.0362 67.6028 31.2301C67.6239 31.242 67.6441 31.253 67.6654 31.2651C67.7645 31.3205 67.8618 31.3754 67.9577 31.43C67.989 31.4479 68.0205 31.466 68.052 31.4841C68.1265 31.5269 68.1995 31.5693 68.2715 31.6115C68.3011 31.6289 68.3306 31.6458 68.3599 31.6632C68.4468 31.7148 68.531 31.7655 68.6135 31.8159C68.6517 31.8392 68.6887 31.8626 68.7262 31.8857C68.7818 31.9202 68.8362 31.9547 68.8893 31.9885C68.9216 32.0096 68.9544 32.0304 68.9862 32.051C69.0691 32.1054 69.1498 32.159 69.2258 32.2119C69.4493 32.3676 69.5851 32.6018 69.5801 32.8233C69.5762 32.9869 69.4977 33.115 69.3398 33.2144C68.3652 33.8287 65.0996 35.5688 62.2508 36.7664L62.1383 36.8059C61.1952 37.1362 59.4399 37.7507 58.1939 37.7507V39.443C58.254 39.443 58.3153 39.4405 58.3764 39.4385L58.3717 39.6399C58.3928 39.6404 58.4139 39.6406 58.4355 39.6406C59.0508 39.6406 59.9109 39.4447 61.0619 39.0432C61.6302 38.8448 62.2413 38.6057 62.8691 38.3425C66.2657 37.1518 69.2573 35.2669 70.2424 34.6461C70.8798 34.2444 71.255 33.594 71.2719 32.862C71.2902 32.0684 70.8867 31.3064 70.1927 30.8229C70.1053 30.7623 70.0124 30.7002 69.9161 30.6372C69.9037 30.629 69.8913 30.6208 69.8786 30.6126C69.7845 30.5515 69.6857 30.4884 69.5804 30.4234C69.5739 30.4196 69.5675 30.4157 69.5615 30.4119C69.4694 30.3551 69.3716 30.296 69.2693 30.2351C69.2494 30.2235 69.2295 30.2116 69.2094 30.1996C69.1076 30.1395 69.0018 30.078 68.8883 30.0127C68.8615 29.9975 68.834 29.9819 68.8071 29.9665C68.7262 29.9205 68.6435 29.8736 68.5568 29.8247C68.5007 29.7934 68.4441 29.7619 68.3875 29.7303C68.3547 29.7122 68.3244 29.6951 68.2909 29.6764L68.2907 29.6767C67.9773 29.5031 67.6537 29.3268 67.3235 29.147C66.8095 28.8677 66.2314 28.5533 65.6516 28.2204C66.0216 27.8089 66.362 27.3927 66.6667 26.9716C67.1559 26.6198 69.9377 25.6583 75.0002 24.3388C75.0909 24.3152 75.1795 24.3189 75.2312 24.3487C75.6439 24.5858 76.1278 25.2881 76.5549 25.9078C77.3624 27.0796 78.3666 28.5384 79.8319 27.9924C83.5056 26.622 84.5068 22.1892 84.5475 22.0012L82.8943 21.6406Z" fill="#114631"/>
<path d="M57.9799 19.5672L56.7131 15.2802C56.607 14.9206 56.2768 14.6738 55.9018 14.6738H55.9006C55.5252 14.6743 55.1949 14.9221 55.0896 15.2827L53.8371 19.5672H51.6548C51.2813 19.5672 50.9523 19.8121 50.8448 20.1694L49.7147 23.9229L48.9633 20.2441C48.8829 19.8503 48.5365 19.5672 48.1345 19.5672H47.2234H45.5538L44.2442 11.9995C44.1739 11.5943 43.8226 11.298 43.4111 11.2975H43.4104C42.9994 11.2975 42.6478 11.593 42.577 11.998L41.2538 19.5672H41.1453H39.5097H36.6305C37.15 19.0321 37.5714 18.5971 37.7966 18.3629C37.8773 18.2793 37.9721 18.1866 38.0764 18.0848C39.1307 17.0551 41.5999 14.6433 39.5919 10.9757C38.9393 9.78384 37.9443 8.86757 36.7904 8.39554C34.4233 7.42763 32.3673 8.61132 31.1893 9.78384C30.0116 8.61132 27.9553 7.42738 25.5882 8.39554C24.4343 8.86757 23.4393 9.78384 22.787 10.9757C20.7787 14.6435 23.2481 17.0553 24.3024 18.0851C24.4067 18.1869 24.5016 18.2793 24.582 18.3629C25.4273 19.2415 29.0501 22.9656 30.1402 24.086C30.3061 24.2563 30.5263 24.342 30.7468 24.342C30.9596 24.342 31.1724 24.2623 31.3368 24.1024C31.6718 23.7764 31.679 23.2407 31.3532 22.9058C30.2636 21.7861 26.6437 18.0652 25.8015 17.1897C25.7103 17.0948 25.6031 16.9898 25.4849 16.8746C24.1666 15.5871 22.9871 14.1337 24.2711 11.7884C24.738 10.936 25.4332 10.2872 26.2288 9.96163C28.6421 8.97534 30.4198 11.4646 30.4928 11.5687C30.6502 11.7966 30.91 11.932 31.1873 11.933H31.19C31.4662 11.933 31.7259 11.7971 31.8841 11.5709C31.9586 11.4644 33.738 8.97534 36.1498 9.96163C36.9456 10.2872 37.6406 10.936 38.1075 11.7884C39.3915 14.1337 38.212 15.5868 36.894 16.8743C36.7758 16.9898 36.6683 17.0948 36.5771 17.1897C36.1714 17.6116 35.1275 18.6867 34.0228 19.8238C33.7856 20.0676 33.7178 20.4296 33.8502 20.7427C33.9825 21.0561 34.2894 21.2595 34.6294 21.2595H39.5097H41.1453H41.965C42.3762 21.2595 42.7278 20.964 42.7983 20.5592L43.4061 17.0819L44.0076 20.5578C44.0778 20.9632 44.4297 21.2595 44.8414 21.2595H45.3477H47.2234H47.4437L48.7287 27.5497C48.8061 27.9296 49.1319 28.2079 49.519 28.2256C49.5322 28.2263 49.5449 28.2266 49.558 28.2266C49.9295 28.2266 50.2597 27.983 50.3678 27.6244L52.284 21.2595H54.4713C54.8473 21.2595 55.178 21.0117 55.2836 20.6509L55.9061 18.5206L56.5365 20.6534C56.6426 21.0127 56.9728 21.2595 57.3478 21.2595H59.7298V19.5672H57.9799Z" fill="#41B73E"/>
<path d="M76.5057 14.9549C75.8047 15.1543 75.4772 15.9395 75.5162 16.6121C75.5366 16.9645 75.6923 17.802 76.6929 17.9652C77.1978 18.0476 77.721 17.8455 78.0932 17.4256C78.455 17.0176 78.5905 16.4962 78.4559 16.0308C78.2988 15.4856 77.8123 15.0473 77.2454 14.9395C76.9728 14.8879 76.7232 14.8931 76.5057 14.9549ZM76.9194 19.6758C76.7535 19.6758 76.5869 19.6624 76.4208 19.6353C74.9339 19.393 73.9156 18.2448 73.8267 16.7097C73.7346 15.1156 74.6459 13.7245 76.0426 13.3272H76.0429C76.5162 13.1927 77.0272 13.1758 77.561 13.2771C78.7571 13.504 79.7467 14.4007 80.0816 15.561C80.3784 16.5866 80.1084 17.7035 79.3593 18.5482C78.7164 19.2733 77.8312 19.6758 76.9194 19.6758Z" fill="#114631"/>
<path d="M50.7069 56.9371C50.5242 56.9371 50.3543 56.9796 50.1845 57.0285C50.0633 57.7183 49.5667 58.2785 48.9136 58.4893C48.8933 58.5939 48.8809 58.6964 48.8809 58.8047C48.8809 58.8764 48.8933 58.9497 48.9052 59.0234C49.8773 58.7933 50.6103 57.955 50.7069 56.9371Z" fill="#4C7AC5"/>
<path d="M48.3961 58.5815C48.3798 58.5815 48.3666 58.5864 48.3423 58.5864C47.311 58.5864 46.468 57.7514 46.468 56.7142C46.468 55.675 47.311 54.8404 48.3423 54.8404C49.3062 54.8404 50.0837 55.5672 50.1979 56.4999C50.3553 56.4577 50.5249 56.4284 50.6948 56.4284C50.5577 55.2452 49.5612 54.3309 48.3423 54.3309C47.0324 54.3309 45.959 55.3971 45.959 56.7142C45.959 58.0223 47.0324 59.0957 48.3423 59.0957C48.3666 59.0957 48.3845 59.0915 48.4046 59.0915C48.3845 58.9932 48.3718 58.9015 48.3718 58.8052C48.3718 58.727 48.3845 58.6597 48.3961 58.5815Z" fill="#4C7AC5"/>
<path d="M53.2184 58.5815C53.2005 58.5815 53.1824 58.5864 53.163 58.5864C53.1451 58.5864 53.1335 58.5815 53.1201 58.5815C53.1201 58.6597 53.1404 58.727 53.1404 58.8052C53.1404 58.9015 53.1201 58.9932 53.1094 59.0915C53.1335 59.0915 53.1451 59.0957 53.163 59.0957C53.1873 59.0957 53.2005 59.0915 53.2253 59.0915C53.2122 58.9932 53.1943 58.9015 53.1943 58.8052C53.1943 58.727 53.2122 58.6597 53.2184 58.5815Z" fill="#211D1D"/>
<path d="M51.3258 57.0285C51.1639 56.9796 50.9871 56.9371 50.8105 56.9371C50.9069 57.9547 51.6357 58.793 52.6061 59.0234C52.6192 58.9497 52.6312 58.8762 52.6312 58.8044C52.6312 58.6964 52.6192 58.5939 52.5999 58.4893C51.9461 58.2785 51.4418 57.7181 51.3258 57.0285Z" fill="#211D1D"/>
<path d="M55.5311 56.9371C55.3481 56.9371 55.1723 56.9796 55.0134 57.0285C54.8927 57.7183 54.3907 58.2785 53.7361 58.4893C53.7175 58.5939 53.7051 58.6964 53.7051 58.8047C53.7051 58.8764 53.7175 58.9497 53.7274 59.0234C54.6983 58.7933 55.4328 57.955 55.5311 56.9371Z" fill="#211D1D"/>
<path d="M53.1635 54.8403C54.1287 54.8403 54.9119 55.5673 55.0206 56.5C55.1828 56.4578 55.3477 56.4285 55.5227 56.4285C55.3849 55.2453 54.3825 54.3308 53.1635 54.3308C51.951 54.3308 50.9561 55.2453 50.8105 56.4285C50.9873 56.4285 51.1507 56.4578 51.3141 56.5C51.4239 55.5673 52.2048 54.8403 53.1635 54.8403Z" fill="#211D1D"/>
<path d="M56.1484 57.0285C55.9835 56.9796 55.8085 56.9371 55.627 56.9371C55.725 57.9547 56.4566 58.793 57.4272 59.0234C57.4389 58.9497 57.4585 58.8762 57.4585 58.8044C57.4585 58.6964 57.4389 58.5939 57.4227 58.4893C56.7672 58.2785 56.2691 57.7181 56.1484 57.0285Z" fill="#EC222C"/>
<path d="M57.9917 54.3309C56.7735 54.3309 55.7798 55.2454 55.6348 56.4284C55.8093 56.4284 55.9792 56.4577 56.1376 56.4999C56.2459 55.5672 57.028 54.8404 57.9917 54.8404C59.0247 54.8404 59.866 55.675 59.866 56.7144C59.866 57.7514 59.0247 58.5864 57.9917 58.5864C57.9738 58.5864 57.9575 58.5815 57.9378 58.5815C57.9498 58.6599 57.9629 58.727 57.9629 58.8054C57.9629 58.9015 57.9443 58.9932 57.9334 59.0915C57.9575 59.0915 57.9738 59.0957 57.9917 59.0957C59.3088 59.0957 60.3775 58.0223 60.3775 56.7144C60.3775 55.3971 59.3088 54.3309 57.9917 54.3309Z" fill="#EC222C"/>
<path d="M50.7565 60.6868C49.7976 60.6868 49.0151 59.9598 48.9056 59.0254C48.7358 59.0676 48.5739 59.0924 48.4043 59.0924C48.5414 60.2754 49.5445 61.1914 50.7565 61.1914C51.9755 61.1914 52.9702 60.2754 53.1095 59.0924C52.9389 59.0924 52.7693 59.0676 52.6059 59.0254C52.4987 59.9598 51.714 60.6868 50.7565 60.6868Z" fill="#F7B51B"/>
<path d="M50.1858 57.0298C50.2054 56.9273 50.2186 56.8245 50.2186 56.7147C50.2186 56.6412 50.2054 56.5628 50.1982 56.5004C49.2216 56.7324 48.4943 57.5627 48.3965 58.582C48.5795 58.5758 48.7498 58.5396 48.9147 58.4907C49.0354 57.7999 49.532 57.2422 50.1858 57.0298Z" fill="#F7B51B"/>
<path d="M50.7065 56.9375C50.7182 56.9375 50.7376 56.9308 50.7557 56.9308C50.7674 56.9308 50.7914 56.9375 50.8093 56.9375C50.7984 56.8595 50.7852 56.7858 50.7852 56.714C50.7852 56.6157 50.7984 56.5241 50.8093 56.428H50.7557H50.6934C50.7135 56.5241 50.7316 56.6157 50.7316 56.714C50.7316 56.7858 50.7135 56.8595 50.7065 56.9375Z" fill="#F7B51B"/>
<path d="M51.3153 56.5004C51.3036 56.5628 51.293 56.641 51.293 56.7147C51.293 56.8245 51.3106 56.9273 51.327 57.0298C51.9771 57.2422 52.4796 57.7996 52.6013 58.4907C52.7662 58.5396 52.9358 58.5756 53.1218 58.582C53.0192 57.5627 52.2922 56.7324 51.3153 56.5004Z" fill="#F7B51B"/>
<path d="M48.8809 58.8038C48.8809 58.6955 48.8933 58.593 48.9137 58.4884C48.7485 58.5376 48.5782 58.5736 48.3952 58.5801C48.3835 58.6583 48.3711 58.7256 48.3711 58.8038C48.3711 58.9001 48.3835 58.9918 48.4039 59.0898C48.5735 59.0898 48.7354 59.0653 48.9052 59.0228C48.8933 58.9491 48.8809 58.8756 48.8809 58.8038Z" fill="#F7B51B"/>
<path d="M50.2183 56.7122C50.2183 56.8217 50.2049 56.9245 50.1855 57.0273C50.3551 56.9782 50.525 56.9357 50.7077 56.9357C50.7149 56.8577 50.7328 56.784 50.7328 56.7122C50.7328 56.6139 50.7149 56.5223 50.6946 56.4264C50.525 56.4264 50.3551 56.4557 50.198 56.4979C50.2049 56.5603 50.2183 56.6385 50.2183 56.7122Z" fill="#4C7AC5"/>
<path d="M53.1203 58.5798C52.9343 58.5736 52.7647 58.5374 52.5996 58.4884C52.619 58.593 52.6309 58.6955 52.6309 58.8035C52.6309 58.8753 52.619 58.9488 52.6058 59.0226C52.7692 59.065 52.939 59.0898 53.1094 59.0898C53.1203 58.9915 53.1407 58.8999 53.1407 58.8035C53.1407 58.7253 53.1203 58.658 53.1203 58.5798Z" fill="#211D1D"/>
<path d="M50.8112 56.936C50.9877 56.936 51.1645 56.9784 51.3264 57.0273C51.3101 56.9248 51.2922 56.822 51.2922 56.7125C51.2922 56.6387 51.3031 56.5603 51.3148 56.4979C51.1514 56.4557 50.9877 56.4264 50.8112 56.4264C50.8003 56.5225 50.7871 56.6142 50.7871 56.7125C50.7871 56.7842 50.8003 56.858 50.8112 56.936Z" fill="#F7B51B"/>
<path d="M55.5788 60.6868C54.6198 60.6868 53.8389 59.9598 53.7277 59.0254C53.566 59.0676 53.3962 59.0924 53.2266 59.0924C53.3651 60.2754 54.3581 61.1914 55.5788 61.1914C56.793 61.1914 57.7922 60.2754 57.933 59.0924C57.755 59.0924 57.5928 59.0676 57.428 59.0254C57.3192 59.9598 56.5358 60.6868 55.5788 60.6868Z" fill="#4DBD41"/>
<path d="M55.0128 57.0298C55.0259 56.9273 55.0369 56.8245 55.0369 56.7147C55.0369 56.6412 55.0259 56.5628 55.0205 56.5004C54.0421 56.7324 53.3151 57.5627 53.2188 58.582C53.4018 58.5758 53.5704 58.5396 53.7355 58.4907C53.849 57.7999 54.3528 57.2422 55.0128 57.0298Z" fill="#4DBD41"/>
<path d="M55.5314 56.9375C55.5475 56.9375 55.5657 56.9308 55.5788 56.9308C55.5967 56.9308 55.6146 56.9375 55.628 56.9375C55.6215 56.8595 55.6098 56.7858 55.6098 56.714C55.6098 56.6157 55.628 56.5241 55.6347 56.428H55.5788H55.5234C55.5366 56.5241 55.5475 56.6157 55.5475 56.714C55.5475 56.7858 55.5366 56.8595 55.5314 56.9375Z" fill="#4DBD41"/>
<path d="M56.1482 57.0298C56.803 57.2422 57.3019 57.7999 57.4226 58.4907C57.5842 58.5396 57.754 58.5758 57.9368 58.582C57.8405 57.5627 57.1072 56.7324 56.1366 56.5004C56.1289 56.5628 56.1172 56.6412 56.1172 56.7147C56.1172 56.8245 56.1289 56.9273 56.1482 57.0298Z" fill="#4DBD41"/>
<path d="M53.7051 58.8038C53.7051 58.6955 53.7178 58.593 53.7364 58.4884C53.5713 58.5376 53.4024 58.5736 53.2194 58.5801C53.2132 58.6583 53.1953 58.7256 53.1953 58.8038C53.1953 58.9001 53.2132 58.9918 53.2266 59.0898C53.3962 59.0898 53.5658 59.0653 53.7277 59.0228C53.7178 58.9491 53.7051 58.8756 53.7051 58.8038Z" fill="#4DBD41"/>
<path d="M55.0378 56.7122C55.0378 56.8217 55.0268 56.9245 55.0137 57.0273C55.1726 56.9782 55.3484 56.9357 55.5314 56.9357C55.5369 56.8577 55.5478 56.784 55.5478 56.7122C55.5478 56.6139 55.5369 56.5223 55.5235 56.4264C55.3484 56.4264 55.1835 56.4557 55.0216 56.4979C55.0268 56.5603 55.0378 56.6385 55.0378 56.7122Z" fill="#211D1D"/>
<path d="M57.9381 58.5798C57.7553 58.5736 57.5855 58.5374 57.4238 58.4884C57.44 58.593 57.4596 58.6955 57.4596 58.8035C57.4596 58.8753 57.44 58.9488 57.4283 59.0226C57.5932 59.065 57.7553 59.0898 57.9334 59.0898C57.9443 58.9915 57.9632 58.8999 57.9632 58.8035C57.9632 58.7253 57.95 58.658 57.9381 58.5798Z" fill="#EC222C"/>
<path d="M55.6273 56.9379C55.8085 56.9379 55.9838 56.9804 56.1487 57.0293C56.1291 56.9267 56.1177 56.8239 56.1177 56.7144C56.1177 56.6407 56.1291 56.5622 56.137 56.4999C55.9784 56.4577 55.8085 56.4284 55.634 56.4284C55.6273 56.5245 55.6094 56.6161 55.6094 56.7144C55.6094 56.7862 55.621 56.8599 55.6273 56.9379Z" fill="#4DBD41"/>
<path d="M55.0416 41.4282C56.9215 41.239 58.4938 42.1689 58.4938 42.1689C56.9573 40.3495 54.3972 40.4471 54.3972 40.4471C54.5474 40.2139 55.0416 40.0674 55.0416 40.0674C54.2666 39.7429 53.505 40.2907 53.505 40.2907C53.4683 39.7806 53.106 39.4206 53.106 39.4206C53.106 39.4206 52.7484 39.7806 52.7084 40.2907C52.7084 40.2907 51.9513 39.7429 51.1781 40.0674C51.1781 40.0674 51.667 40.2139 51.82 40.4471C51.82 40.4471 49.2607 40.3495 47.7246 42.1689C47.7246 42.1689 49.3009 41.239 51.1781 41.4282C51.1781 41.4282 48.4276 42.1311 47.8195 44.6875C47.8195 44.6875 49.5817 42.6059 51.2131 42.3946C51.2131 42.3946 49.2008 44.1775 49.6234 46.0373C49.6234 46.0373 50.7009 43.5723 51.8932 43.0976C51.8932 43.0976 50.9643 44.6485 51.6894 46.5265C51.6894 46.5265 51.7793 44.3704 52.7084 43.399V48.9537L52.2555 49.3125H53.106H53.9577L53.505 48.9537V43.399C54.4339 44.3704 54.5298 46.5265 54.5298 46.5265C55.2489 44.6485 54.3202 43.0976 54.3202 43.0976C55.5213 43.5723 56.595 46.0373 56.595 46.0373C57.0124 44.1775 55.0051 42.3946 55.0051 42.3946C56.6352 42.6059 58.394 44.6875 58.394 44.6875C57.7908 42.1311 55.0416 41.4282 55.0416 41.4282Z" fill="#25813B"/>
<path d="M46.2617 49.1073C46.2617 49.1073 47.1599 48.0917 49.1709 48.6079C50.3849 48.9218 51.7017 49.6623 52.9842 50.5202C54.339 51.422 55.653 52.4446 56.8976 52.9924C57.0796 53.0743 57.419 53.1662 57.7128 52.9377C57.7128 52.9377 57.8727 53.4771 56.7272 53.3735C56.7272 53.3735 55.5937 53.1662 53.0709 51.422C53.0709 51.422 48.9755 48.4408 46.2617 49.1073Z" fill="#25813B"/>
<path d="M56.4772 51.5064C56.4593 51.5064 56.4417 51.5064 56.4273 51.5123C55.6806 51.6246 54.4038 53.2244 54.4038 53.2244L54.3673 53.2562C54.376 53.2341 54.376 53.2195 54.376 53.1976C54.376 53.0792 54.2806 52.9838 54.1627 52.9838C54.0452 52.9838 53.9551 53.0792 53.9551 53.1976C53.9551 53.3146 54.0452 53.4102 54.1627 53.4102C54.1905 53.4102 54.2126 53.4102 54.2342 53.3965C54.5349 53.36 54.9871 52.8937 55.2498 52.6262C55.4812 52.3861 56.1114 51.8465 56.2651 51.7065L56.2601 51.7159C56.2601 51.8381 56.3602 51.9332 56.4772 51.9332C56.5959 51.9332 56.691 51.8381 56.691 51.7159C56.691 51.6025 56.5959 51.5064 56.4772 51.5064Z" fill="#25813B"/>
<path d="M59.9551 49.1073C59.9551 49.1073 59.06 48.0917 57.0477 48.6079C55.8342 48.9218 54.5152 49.6623 53.2327 50.5202C51.8779 51.422 50.5651 52.4446 49.319 52.9924C49.1336 53.0743 48.7983 53.1662 48.5041 52.9377C48.5041 52.9377 48.3407 53.4771 49.4911 53.3735C49.4911 53.3735 50.6284 53.1662 53.1472 51.422C53.1472 51.422 57.2411 48.4408 59.9551 49.1073Z" fill="#25813B"/>
<path d="M49.7406 51.5064C49.7588 51.5064 49.7727 51.5064 49.7871 51.5123C50.5377 51.6246 51.8115 53.2244 51.8115 53.2244L51.8483 53.2562C51.8418 53.2341 51.8384 53.2195 51.8384 53.1976C51.8384 53.0792 51.9384 52.9838 52.0559 52.9838C52.1691 52.9838 52.2635 53.0792 52.2635 53.1976C52.2635 53.3146 52.1691 53.4102 52.0559 53.4102C52.0291 53.4102 52.006 53.4102 51.9839 53.3965C51.6896 53.36 51.2221 52.8937 50.9688 52.6262C50.7379 52.3861 50.1129 51.8465 49.9542 51.7065V51.7159C49.9542 51.8381 49.8593 51.9332 49.7406 51.9332C49.6239 51.9332 49.5273 51.8381 49.5273 51.7159C49.5273 51.6025 49.6239 51.5064 49.7406 51.5064Z" fill="#25813B"/>
</g>
</svg>
