<svg xmlns="http://www.w3.org/2000/svg" width="158" height="134" fill="none"><path fill="#F5F5F5" d="M81.141 133.027c42.448 0 76.859-4.772 76.859-10.659s-34.411-10.659-76.859-10.659-76.859 4.772-76.859 10.659 34.411 10.659 76.86 10.659" opacity=".5"/><path fill="#F5F5F5" d="M67.312 103.232a28 28 0 0 0-.29-4.393c-.22-1.501-.923-6.294-3.45-9.917-3.82-5.475-8.151-3.034-12.59-8.694-2.54-3.24-1.826-4.937-4.731-7.53-2.567-2.29-5.322-3.134-8.257-3.617-7.429-1.222-19.548-.076-19.548-.076 1.023 11.747 4.972 16.603 8.38 18.87 4.782 3.18 8.46 1.232 12.722 5.039 5.548 4.955 1.906 10.57 7.081 15.727 0 0 2.265 2.257 19.846 5.598z"/><path stroke="#D6D6D6" stroke-linecap="round" stroke-linejoin="round" stroke-miterlimit="10" stroke-width=".466" d="M66.475 114.24S52.894 91.126 47.72 86.596s-29.274-17.59-29.274-17.59M35.886 78.863l-15.17.85M39.02 80.74l1.007-11.25M45.918 85.197l-13.13 4.851M51.473 90.963l1.69-8.53M55.71 97.006l-12.72 2.323M59.028 102.101l4.787-12.818M62.047 106.918l-14.712 2.169"/><path fill="#F5F5F5" d="M59.237 105.041a27.7 27.7 0 0 0-1.947-3.949c-.777-1.303-3.258-5.463-6.979-7.845-5.623-3.599-8.691.312-14.956-3.222-3.586-2.023-3.575-3.864-7.25-5.15-3.248-1.136-6.116-.863-9.013-.187C11.761 86.398 1 92.09 1 92.09c5.435 10.464 10.94 13.442 14.955 14.234 5.635 1.111 8.29-2.095 13.683-.206 7.021 2.459 5.801 9.04 12.554 11.827 0 0 2.956 1.22 20.478-2.412z"/><path stroke="#D6D6D6" stroke-linecap="round" stroke-linejoin="round" stroke-miterlimit="10" stroke-width=".466" d="M62.67 115.533S41.287 99.364 34.774 97.156C28.262 94.946 1 92.09 1 92.09M20.884 94.533l-13.695 6.583M24.497 95.07l-3.37-10.78M32.575 96.553l-10.28 9.501M39.912 99.758l-1.7-8.527M46.137 103.723l-10.867 7.008M51.15 107.162l-.475-13.674M55.781 110.459l-12.766 7.627"/><path fill="#4450E4" d="M108.717 115.708H62.412l4.46-30.62h37.386z"/><path fill="#4450E4" d="M143.138 90.486H27.991a5.297 5.297 0 0 1-5.297-5.297v-72.54a5.297 5.297 0 0 1 5.297-5.297h115.147a5.297 5.297 0 0 1 5.297 5.297v72.54a5.297 5.297 0 0 1-5.297 5.297"/><path fill="#CFD2F7" d="M140.087 81.765H31.043a5.297 5.297 0 0 1-5.297-5.297V15.153a5.297 5.297 0 0 1 5.297-5.298h109.044a5.297 5.297 0 0 1 5.297 5.297v61.316a5.297 5.297 0 0 1-5.297 5.297"/><path fill="#FDB6D6" d="M118.532 117.938H52.598v-3.186a4.46 4.46 0 0 1 4.46-4.459h57.015a4.46 4.46 0 0 1 4.459 4.459z"/><path stroke="#262626" stroke-linecap="round" stroke-linejoin="round" stroke-miterlimit="10" d="M29.647 81.766h109.625M55.5 116.345v-1.672c0-1.011.82-1.831 1.831-1.831h49.451M101.526 92.934l1.752 13.378"/><path fill="#fff" d="M84.459 88.963a2.565 2.565 0 1 0 0-5.131 2.565 2.565 0 0 0 0 5.13"/><path stroke="#fff" stroke-linecap="round" stroke-linejoin="round" stroke-miterlimit="10" d="M120.956 14.736h13.617a4.7 4.7 0 0 1 4.698 4.699v28.293"/><path fill="#1AD0D1" d="M131.348 23.699q1.18-2.838 2.333-4.39 1.152-1.552 3.004-2.476a8.7 8.7 0 0 1 2.256-.81 17 17 0 0 0 2.233-.624 7.7 7.7 0 0 0 1.949-1.024q.889-.645 1.469-2.04.98-2.357.071-3.836-.91-1.478-2.689-2.218-2.551-1.06-4.102-.04-1.553 1.019-2.793 3.324l-6.206-2.58q.98-2.356 2.55-3.961t3.548-2.362q1.979-.756 4.276-.648 2.296.106 4.702 1.108 5.195 2.16 7.323 5.526 2.126 3.367.147 8.13-.64 1.54-1.433 2.564a7.7 7.7 0 0 1-1.808 1.703q-1.016.678-2.27 1.116t-2.768.824q-1.4.378-2.338.805a5.7 5.7 0 0 0-1.596 1.058q-.657.63-1.103 1.431a18 18 0 0 0-.886 1.86zm-4.052 9.205 2.62-6.302 6.494 2.7-2.62 6.302z"/><path fill="#F5F5F5" d="M93.505 33.157V28.01a3.057 3.057 0 0 0-3.057-3.057H60.572a3.057 3.057 0 0 0-3.056 3.057v39.434a3.057 3.057 0 0 0 3.056 3.057h47.775a3.056 3.056 0 0 0 3.056-3.057v-31.23a3.056 3.056 0 0 0-3.056-3.057z"/><path fill="#1AD0D1" d="m90.478 40.346-6.02 6.019-6.018-6.019-3.632 3.632 6.018 6.019-6.018 6.019 3.632 3.632 6.019-6.019 6.019 6.019 3.632-3.632-6.02-6.02 6.02-6.018z"/><path fill="#F7A99C" d="M19.243 117.641v-3.963h-7.298v10.897l16.478.264v-1.981z"/><path fill="#AA01FF" d="M29.006 124.84v-.94c0-.96-.526-1.843-1.372-2.299l-6.95-3.751c-2.082.569-3.693.489-4.793.303-1.827-.31-3.573-1.14-4.16-.446-.168.199-.189.459-.182.638v5.763c0 .404.328.732.732.732z"/><path stroke="#1AD0D1" stroke-linecap="round" stroke-linejoin="round" stroke-miterlimit="10" stroke-width=".733" d="M29.007 124.211H11.549M25.16 120.344l-.978 1.292M24.444 119.939l-.978 1.293M23.695 119.564l-.978 1.293M22.593 118.879a15.5 15.5 0 0 1-5.607 1.018 15.5 15.5 0 0 1-5.437-1.018"/><path fill="#F7A99C" d="M40.047 117.641v-3.963h-7.298v10.897l16.478.264v-1.981z"/><path fill="#AA01FF" d="M49.81 124.84v-.94c0-.96-.527-1.843-1.372-2.299l-6.95-3.751c-2.083.569-3.693.489-4.793.303-1.827-.31-3.573-1.14-4.16-.446-.169.199-.189.459-.182.638v5.763c0 .404.328.732.732.732z"/><path stroke="#1AD0D1" stroke-linecap="round" stroke-linejoin="round" stroke-miterlimit="10" stroke-width=".733" d="M49.81 124.211H32.352M45.963 120.344l-.978 1.292M45.248 119.939l-.978 1.293M44.498 119.564l-.977 1.293M43.396 118.879a15.5 15.5 0 0 1-5.606 1.018 15.5 15.5 0 0 1-5.437-1.018"/><path fill="#4450E4" d="M35.853 61.207s6.01 19.087 6.935 21.729 1.783 6.34 1.585 9.576c-.199 3.236-3.303 23.181-3.303 23.181h-9.048s-.639-21.068-.947-22.719-2.95-10.99-2.95-10.99-.858 10.924-1.584 13.83-6.539 20.209-6.539 20.209H11.55l3.566-54.816z"/><path fill="#F7A99C" d="M49.647 49.572s2.87-2.435 3.595-4.027c.622-1.363 1.49-3.758 1.728-4.42.036-.1.14-.155.244-.131l.172.04c.532.127.861.662.733 1.194l-.286 1.194 3.032-1.992a.54.54 0 0 1 .614.887l-2 1.458 3.322-1.56a.545.545 0 0 1 .705.224l.005.007a.545.545 0 0 1-.204.743l.037-.01a.608.608 0 0 1 .396 1.147l-.211.086a.486.486 0 0 1 .622.369.95.95 0 0 1-.491 1.026c-.895.465-1.475.588-2.325 1.224-.672.503-.437.824-1.154 1.742-.874 1.118-1.618 1.15-3.124 2.256-.571.42-1.36 1.075-2.195 2.05z"/><path stroke="#262626" stroke-linecap="round" stroke-linejoin="round" stroke-miterlimit="10" stroke-width=".415" d="M59.678 41.734s.153.31-.137.53-2.549 1.892-2.549 1.892M61.307 43.19l-3.11 1.443M61.628 44.393l-3.128 1.44M55.604 41.115s.546.346.531.73c-.015.383-.567 2.846-.567 2.846"/><path fill="#1775AF" d="M32.022 115.693s-.819-21.602-.882-22.16c-.064-.56-3.143-11.993-3.143-11.993l.545-5.054s6.211 15.29 6.211 16.298c0 1.009.69 22.909.69 22.909z"/><path stroke="#262626" stroke-linecap="round" stroke-linejoin="round" stroke-miterlimit="10" stroke-width=".415" d="M26.894 94.49 29.1 70.617"/><path fill="#262626" d="M41.419 113.859h-9.466l.07 1.833h9.048zM20.551 114.385h-8.896l-.106 1.637h8.454z"/><path stroke="#fff" stroke-linecap="round" stroke-linejoin="round" stroke-miterlimit="10" stroke-width=".415" d="M41.969 84.822a22.85 22.85 0 0 1 .544 11.721"/><path fill="#1AD0D1" d="M52.032 47.005s-1.532 1.18-3.277 1.486c-2.046.359-3.82-.853-4.295-1.178-1.297-.885-1.776-1.934-2.633-3.162-2.54-3.636-4.118-5.895-6.327-7.174-1.141-.66-3.05-1.407-6.06-1.176-.675-.242-1.751-.05-2.472-.05H25.17c-1.181.141-9.883 1.152-11.362-.207-.583-.535-.593-1.063-.593-1.063-.007-.436.268-.89.989-1.439 1.762-1.341 4.994-2.343 6.076-2.662l-.66-4.933h-1.454c-1.453 0-6.604.859-9.378 1.828-3.889 1.359-5.973 2.35-7 4.604-1.288 2.823.083 5.857.44 6.645 1.785 3.95 5.745 5.548 8.137 6.514a20.5 20.5 0 0 0 5.292 1.345l-1.123 17.964 20.648 1.123h3.1c.238-2.745-.95-11.273-.796-14.06 2.637 3.67 7.003 5.522 11.149 4.726 4.589-.882 6.897-4.624 7.273-5.256-1.602-3.16-3.876-3.875-3.876-3.875"/><path fill="#fff" d="M26.379 45.703h-.2v-8.574h1.301V44.6c0 .608-.493 1.102-1.101 1.102"/><path fill="#1AD0D1" d="M38.314 64.522c-.711.132-10.485 1.77-17.39-5.521-5.828-6.153-5.139-13.94-5.017-15.09l-1.088 16.202h-.02l-.265 4.233 3.237.176-.002-.023a324 324 0 0 0 20.514.97z"/><path fill="#262626" d="M32.84 29.26c.353-1.817.298-3.237.195-4.144-.078-.69-.198-1.213-.565-1.71-.078-.105-.687-.906-1.732-1.115-1.25-.25-1.566.658-3.344.878-1.534.19-1.836-.419-2.867.018-1.127.478-1.683 1.593-1.852 1.931-.073.149-.44.905-.478 1.965-.03.84.163 1.47.239 1.729.32 1.087.695 2.74 1.155 5.385l.72-.027z"/><path fill="#F7A99C" d="M26.758 38.192a2.43 2.43 0 0 1-2.441-2.422l-.02-5.234 4.864-.018.02 5.233a2.43 2.43 0 0 1-2.423 2.441"/><path fill="#FF7769" d="m29.175 34.286-3.167-1.628c.032.275.212 1.56 1.342 2.446.721.567 1.48.696 1.83.733z"/><path fill="#F7A99C" d="M24.18 28.915c-.016-.079-.224-.198-.288-.24a1.5 1.5 0 0 0-.348-.163 1.4 1.4 0 0 0-.741-.038c-.485.111-.915.519-.996 1.018-.047.29.02.59.144.855.187.4.504.737.886.957.317.182.678.286 1.043.307.073.005.82-.012.815-.041z"/><path fill="#F7A99C" d="M23.512 28.966c.058.39.401 2.45 2.258 3.905.342.268 2.615 2.05 4.695 1.18 2.673-1.117 2.381-5.507 2.363-5.745-.064-.804-.252-3.171-2.212-4.434-1.6-1.031-3.334-.652-3.58-.594-.259.06-1.91.477-2.92 2.096-.917 1.468-.698 2.953-.604 3.592"/><path fill="#262626" d="M31.31 28.31c.044.342.308.591.591.556.283-.036.478-.342.435-.685-.044-.343-.308-.592-.59-.556-.284.035-.478.341-.435.684M28.222 28.696c.043.343.307.592.59.556s.478-.342.435-.684c-.044-.343-.308-.592-.59-.557-.284.036-.478.342-.435.685"/><path stroke="#262626" stroke-linecap="round" stroke-linejoin="round" stroke-miterlimit="10" stroke-width=".733" d="m30.379 28.822.473.64a.25.25 0 0 1-.07.36l-.435.265"/><path fill="#FF7769" d="M27.186 30.31a.702.702 0 1 0 1.393-.174.702.702 0 0 0-1.393.175"/><path stroke="#262626" stroke-linecap="round" stroke-linejoin="round" stroke-miterlimit="10" stroke-width=".733" d="M23.852 30.673c.003-.077.01-.599-.41-.976a1.27 1.27 0 0 0-.814-.316"/><path stroke="#262626" stroke-linecap="round" stroke-linejoin="round" stroke-miterlimit="10" stroke-width=".733" d="M23.484 29.8a.59.59 0 0 0-.5.17.57.57 0 0 0-.144.426"/><path fill="#262626" d="M23.45 28.487s.346.03.607.289c.26.258.352.701.352.701.666-.08 2.191-.362 3.574-1.562a6.5 6.5 0 0 0 1.478-1.862c.252.227.682.567 1.29.83.795.342 1.787.506 1.919.24.024-.05-.003-.193-.057-.479-.02-.103-.04-.256-.09-.403a4.6 4.6 0 0 0-.379-.826 4.8 4.8 0 0 0-1.19-1.363 4.6 4.6 0 0 0-1.016-.6c-1.153-.491-2.754-.491-4.132.243 0 0-1.539.821-2.217 2.427a4.3 4.3 0 0 0-.306 1.295c-.03.379.013.626.071.817.033.107.07.194.097.252"/><path fill="#FF7769" d="M32.464 29.2a.7.7 0 0 1 .375.06c-.014.376-.05.833-.133 1.318q-.033.009-.067.015a.702.702 0 0 1-.175-1.392"/><path stroke="#262626" stroke-linecap="round" stroke-linejoin="round" stroke-miterlimit="10" stroke-width=".25" d="M27.314 23.365c-.229-.088-.564-.21-.976-.328-.904-.26-1.355-.389-1.767-.336-1.203.155-1.895 1.741-2.185 2.406-.22.504-.578 1.359-.388 2.43.085.476.253.848.386 1.095M27.314 23.223c.407-.178.842-.322 1.234-.526.411-.214.77-.492 1.211-.656.463-.173.98-.242 1.453-.098.407.123.755.396 1.043.71.387.423.682.933.835 1.486.296 1.064.032 2.174-.142 3.235"/><path fill="#fff" d="M30.9 31.552c0 .346-.337.626-.752.626-.416 0-.753-.28-.753-.626s.337-.626.753-.626c.415 0 .752.28.752.626"/><path fill="#F7A99C" d="m19.733 26.292 1.39-.846s.284-1.224.67-1.483c.385-.259 2.436-1.055 2.436-1.055l.298.28s-1.604 1.465-1.937 2.115-.395 2.463-.395 2.463l-1.57 2.03-.384.29z"/><path stroke="#262626" stroke-linecap="round" stroke-linejoin="round" stroke-miterlimit="10" stroke-width=".415" d="m15.907 44.69-.731 9.388M37.128 45.457l.56 10.358"/><path stroke="#fff" stroke-linecap="round" stroke-linejoin="round" stroke-miterlimit="10" stroke-width=".415" d="M5.05 30.674c-.29.23-1.791 1.473-2.034 3.667-.265 2.391 1.173 4.027 1.398 4.275M40.725 52.1c.386.428 1.887 1.994 4.41 2.335 2.394.323 4.18-.66 4.694-.968"/><path fill="#F5F5F5" d="m106.335 60.324 3.221-1.722 4.778.876 2.389-2.549 5.653 1.513 3.146-4.3 5.617 3.443-1.911-12.142-7.412-5.19-17.035 2.682a1.17 1.17 0 0 0-.973 1.337z"/><path fill="#D6D6D6" d="m123.548 46.337 5.68-.894-7.412-5.19.858 5.448a.764.764 0 0 0 .874.636"/><path stroke="#262626" stroke-linecap="round" stroke-linejoin="round" stroke-miterlimit="10" stroke-width=".274" d="m121.816 40.254.858 5.447a.764.764 0 0 0 .874.636l5.68-.894"/><path fill="#F5F5F5" d="M108.631 76.266a1.17 1.17 0 0 0 1.337.973l22.315-3.512a1.17 1.17 0 0 0 .973-1.337l-2.117-13.451-5.617-3.443-3.146 4.3-5.653-1.513-2.389 2.548-4.778-.876-3.221 1.722z"/><path stroke="#262626" stroke-linecap="round" stroke-linejoin="round" stroke-miterlimit="10" stroke-width=".274" d="m106.34 60.324 3.221-1.722 4.778.876 2.388-2.549 5.654 1.513 3.146-4.3 5.617 3.443-1.911-12.142-7.412-5.19-17.035 2.682a1.17 1.17 0 0 0-.973 1.337z"/><path stroke="#262626" stroke-linecap="round" stroke-linejoin="round" stroke-miterlimit="10" stroke-width=".274" d="M108.635 76.266c.1.638.699 1.074 1.337.973l22.315-3.512a1.17 1.17 0 0 0 .973-1.337l-2.117-13.451-5.617-3.443-3.146 4.3-5.653-1.513-2.389 2.548-4.778-.876-3.221 1.722z"/><path fill="#FF7129" d="m20.009 22.558-.563.537-4.983-4.499 1.434-1.367zM21.24 21.636l-.766.142-1.71-6.492 1.95-.36zM18.585 23.783l-.064.776-6.713-.05.162-1.976zM98.789 122.215a4.276 4.276 0 0 1-.053-6.047l19.688-20.033 6.1 5.994-19.688 20.034a4.276 4.276 0 0 1-6.047.052"/><path fill="#DCF0FF" d="M133.918 103.8c9.55-.022 17.274-7.781 17.252-17.33-.022-9.55-7.782-17.274-17.331-17.252-9.55.022-17.273 7.781-17.251 17.33.022 9.55 7.781 17.274 17.33 17.252" opacity=".2"/><path fill="#fff" d="M117.693 92.61a17.2 17.2 0 0 0 2.44 4.397l31.029-10.733a17.3 17.3 0 0 0-.798-4.965zM116.625 87.657c.065.981.213 1.957.444 2.917L149.6 79.322a17 17 0 0 0-1.452-2.568z" opacity=".5"/><path fill="#FF7129" d="M147.862 72.282c-7.86-7.726-20.495-7.616-28.22.245s-7.616 20.495.245 28.22 20.495 7.615 28.22-.245 7.616-20.496-.245-28.22m-25.507 25.953c-6.473-6.362-6.563-16.767-.201-23.24 6.361-6.474 16.766-6.564 23.24-.202 6.473 6.362 6.563 16.767.201 23.24-6.361 6.474-16.766 6.564-23.24.202"/><path stroke="#fff" stroke-linecap="round" stroke-linejoin="round" stroke-miterlimit="10" d="m119.807 103.973-15.568 15.84M135.305 67.993c-4.905-.495-9.99 1.198-13.619 4.534-3.63 3.336-5.745 8.261-5.664 13.19"/></svg>