<svg width="158" height="134" viewBox="0 0 158 134" fill="none" xmlns="http://www.w3.org/2000/svg">
<path opacity="0.5" d="M81.1413 133.027C123.589 133.027 158 128.255 158 122.368C158 116.481 123.589 111.709 81.1413 111.709C38.6932 111.709 4.28223 116.481 4.28223 122.368C4.28223 128.255 38.6932 133.027 81.1413 133.027Z" fill="#F5F5F5"/>
<path d="M67.3116 103.232C67.3265 102.137 67.2831 100.62 67.022 98.8386C66.8018 97.338 66.0989 92.5445 63.5714 88.922C59.7513 83.4472 55.4207 85.8882 50.9818 80.2279C48.4415 76.9885 49.1558 75.291 46.2505 72.6978C43.6841 70.4072 40.9291 69.5636 37.9936 69.0809C30.5653 67.8592 18.4463 69.0052 18.4463 69.0052C19.4694 80.7516 23.4179 85.6083 26.8254 87.8746C31.6075 91.055 35.2859 89.1068 39.548 92.9136C45.0965 97.8693 41.4542 103.484 46.629 108.641C46.629 108.641 48.8943 110.898 66.4746 114.239L67.3116 103.232Z" fill="#F5F5F5"/>
<path d="M66.4746 114.24C66.4746 114.24 52.8936 91.1255 47.7202 86.5956C42.5468 82.0656 18.4463 69.0059 18.4463 69.0059" stroke="#D6D6D6" stroke-width="0.4657" stroke-miterlimit="10" stroke-linecap="round" stroke-linejoin="round"/>
<path d="M35.886 78.8633L20.7158 79.7124" stroke="#D6D6D6" stroke-width="0.4657" stroke-miterlimit="10" stroke-linecap="round" stroke-linejoin="round"/>
<path d="M39.0205 80.7407L40.0273 69.4902" stroke="#D6D6D6" stroke-width="0.4657" stroke-miterlimit="10" stroke-linecap="round" stroke-linejoin="round"/>
<path d="M45.918 85.1973L32.7881 90.0484" stroke="#D6D6D6" stroke-width="0.4657" stroke-miterlimit="10" stroke-linecap="round" stroke-linejoin="round"/>
<path d="M51.4727 90.9631L53.1622 82.4336" stroke="#D6D6D6" stroke-width="0.4657" stroke-miterlimit="10" stroke-linecap="round" stroke-linejoin="round"/>
<path d="M55.7097 97.0059L42.9902 99.3292" stroke="#D6D6D6" stroke-width="0.4657" stroke-miterlimit="10" stroke-linecap="round" stroke-linejoin="round"/>
<path d="M59.0283 102.101L63.8152 89.2832" stroke="#D6D6D6" stroke-width="0.4657" stroke-miterlimit="10" stroke-linecap="round" stroke-linejoin="round"/>
<path d="M62.0471 106.918L47.335 109.087" stroke="#D6D6D6" stroke-width="0.4657" stroke-miterlimit="10" stroke-linecap="round" stroke-linejoin="round"/>
<path d="M59.237 105.041C58.8324 104.024 58.2125 102.638 57.2901 101.092C56.5133 99.7892 54.0316 95.6285 50.3112 93.2472C44.6884 89.648 41.6199 93.559 35.3546 90.0248C31.7689 88.0022 31.7804 86.1606 28.1044 84.8746C24.8574 83.7387 21.9889 84.0123 19.0922 84.6881C11.7608 86.3981 1 92.089 1 92.089C6.43492 102.553 11.94 105.531 15.9549 106.323C21.5895 107.434 24.2441 104.228 29.6377 106.117C36.659 108.576 35.4393 115.157 42.1918 117.944C42.1918 117.944 45.1479 119.164 62.6705 115.532L59.237 105.041Z" fill="#F5F5F5"/>
<path d="M62.6705 115.533C62.6705 115.533 41.2861 99.3643 34.7743 97.1556C28.2621 94.9466 1 92.0898 1 92.0898" stroke="#D6D6D6" stroke-width="0.4657" stroke-miterlimit="10" stroke-linecap="round" stroke-linejoin="round"/>
<path d="M20.8837 94.5332L7.18945 101.116" stroke="#D6D6D6" stroke-width="0.4657" stroke-miterlimit="10" stroke-linecap="round" stroke-linejoin="round"/>
<path d="M24.4966 95.0703L21.127 84.2891" stroke="#D6D6D6" stroke-width="0.4657" stroke-miterlimit="10" stroke-linecap="round" stroke-linejoin="round"/>
<path d="M32.575 96.5527L22.2959 106.054" stroke="#D6D6D6" stroke-width="0.4657" stroke-miterlimit="10" stroke-linecap="round" stroke-linejoin="round"/>
<path d="M39.9118 99.7583L38.2129 91.2305" stroke="#D6D6D6" stroke-width="0.4657" stroke-miterlimit="10" stroke-linecap="round" stroke-linejoin="round"/>
<path d="M46.1365 103.723L35.2705 110.731" stroke="#D6D6D6" stroke-width="0.4657" stroke-miterlimit="10" stroke-linecap="round" stroke-linejoin="round"/>
<path d="M51.1502 107.162L50.6748 93.4883" stroke="#D6D6D6" stroke-width="0.4657" stroke-miterlimit="10" stroke-linecap="round" stroke-linejoin="round"/>
<path d="M55.781 110.459L43.0146 118.086" stroke="#D6D6D6" stroke-width="0.4657" stroke-miterlimit="10" stroke-linecap="round" stroke-linejoin="round"/>
<path d="M108.717 115.708H62.4121L66.8715 85.0879H104.258L108.717 115.708Z" fill="#4450E4"/>
<path d="M143.138 90.486H27.9914C25.0659 90.486 22.6943 88.1144 22.6943 85.189V12.6486C22.6943 9.72313 25.0659 7.35156 27.9914 7.35156H143.138C146.063 7.35156 148.435 9.72313 148.435 12.6486V85.189C148.435 88.1144 146.063 90.486 143.138 90.486Z" fill="#4450E4"/>
<path d="M140.087 81.7652H31.0431C28.1177 81.7652 25.7461 79.3936 25.7461 76.4681V15.1525C25.7461 12.227 28.1177 9.85547 31.0431 9.85547H140.087C143.013 9.85547 145.384 12.227 145.384 15.1525V76.4681C145.384 79.3936 143.013 81.7652 140.087 81.7652Z" fill="#CFD2F7"/>
<path d="M118.532 117.938H52.5977V114.752C52.5977 112.289 54.5942 110.293 57.0571 110.293H114.073C116.536 110.293 118.532 112.289 118.532 114.752V117.938Z" fill="#FDB6D6"/>
<path d="M29.6465 81.7656H139.272" stroke="#262626" stroke-miterlimit="10" stroke-linecap="round" stroke-linejoin="round"/>
<path d="M55.5 116.345V114.673C55.5 113.662 56.3199 112.842 57.3315 112.842H106.782" stroke="#262626" stroke-miterlimit="10" stroke-linecap="round" stroke-linejoin="round"/>
<path d="M101.526 92.9336L103.278 106.312" stroke="#262626" stroke-miterlimit="10" stroke-linecap="round" stroke-linejoin="round"/>
<path d="M84.4589 88.9627C85.8757 88.9627 87.0243 87.8142 87.0243 86.3974C87.0243 84.9806 85.8757 83.832 84.4589 83.832C83.0421 83.832 81.8936 84.9806 81.8936 86.3974C81.8936 87.8142 83.0421 88.9627 84.4589 88.9627Z" fill="white"/>
<path d="M120.956 14.7363H134.573C137.168 14.7363 139.271 16.8398 139.271 19.4347V47.7278" stroke="white" stroke-miterlimit="10" stroke-linecap="round" stroke-linejoin="round"/>
<path d="M131.348 23.6987C132.135 21.8067 132.912 20.3429 133.681 19.3084C134.449 18.2738 135.45 17.4487 136.685 16.8333C137.406 16.4562 138.157 16.1856 138.941 16.0221C139.723 15.8589 140.467 15.6508 141.174 15.3991C141.88 15.1476 142.53 14.8059 143.123 14.3753C143.716 13.9446 144.205 13.2647 144.592 12.3343C145.245 10.7632 145.269 9.48419 144.663 8.49896C144.057 7.51373 143.16 6.77403 141.974 6.28089C140.273 5.57418 138.906 5.56098 137.872 6.24026C136.837 6.91989 135.906 8.02805 135.079 9.56511L128.873 6.98552C129.526 5.41443 130.376 4.09338 131.423 3.02376C132.469 1.95449 133.652 1.16721 134.971 0.662263C136.29 0.158013 137.716 -0.0586874 139.247 0.0135467C140.777 0.0854334 142.345 0.454939 143.949 1.12171C147.413 2.56153 149.853 4.40385 151.272 6.64831C152.689 8.89313 152.739 11.6026 151.419 14.7778C150.992 15.8047 150.514 16.6586 149.986 17.3421C149.457 18.0248 148.854 18.5923 148.178 19.0448C147.501 19.4966 146.744 19.8689 145.908 20.1609C145.072 20.453 144.149 20.7274 143.14 20.9847C142.207 21.2368 141.428 21.5056 140.802 21.79C140.175 22.0755 139.643 22.428 139.206 22.8475C138.768 23.2674 138.4 23.7452 138.103 24.279C137.805 24.8138 137.51 25.4344 137.217 26.1394L131.348 23.6987ZM127.296 32.904L129.916 26.6016L136.41 29.3013L133.79 35.6038L127.296 32.904Z" fill="#1AD0D1"/>
<path d="M93.5048 33.1566V28.0099C93.5048 26.3218 92.1362 24.9531 90.4481 24.9531H60.5724C58.8843 24.9531 57.5156 26.3218 57.5156 28.0099V33.1566V67.4441C57.5156 69.1322 58.8843 70.5009 60.5724 70.5009H108.347C110.035 70.5009 111.403 69.1322 111.403 67.4441V36.2133C111.403 34.5252 110.035 33.1566 108.347 33.1566H93.5048Z" fill="#F5F5F5"/>
<path d="M90.4775 40.3457L84.4585 46.3647L78.4398 40.3461L74.8076 43.9779L80.8263 49.9969L74.8076 56.016L78.4398 59.6478L84.4585 53.6291L90.4775 59.6478L94.1097 56.016L88.0907 49.9969L94.1097 43.9779L90.4775 40.3457Z" fill="#1AD0D1"/>
<path d="M19.243 117.641V113.678H11.9453V124.575L28.423 124.839V122.858L19.243 117.641Z" fill="#F7A99C"/>
<path d="M29.0063 124.84V123.9C29.0063 122.94 28.4795 122.057 27.6342 121.601L20.6848 117.85C18.6015 118.419 16.9915 118.339 15.8913 118.153C14.0643 117.843 12.3181 117.013 11.7305 117.707C11.5625 117.906 11.5423 118.166 11.5489 118.345V124.108C11.5489 124.512 11.8767 124.84 12.281 124.84H29.0063Z" fill="#AA01FF"/>
<path d="M29.0066 124.211H11.5488" stroke="#1AD0D1" stroke-width="0.733" stroke-miterlimit="10" stroke-linecap="round" stroke-linejoin="round"/>
<path d="M25.1596 120.344L24.1816 121.636" stroke="#1AD0D1" stroke-width="0.733" stroke-miterlimit="10" stroke-linecap="round" stroke-linejoin="round"/>
<path d="M24.4438 119.939L23.4658 121.232" stroke="#1AD0D1" stroke-width="0.733" stroke-miterlimit="10" stroke-linecap="round" stroke-linejoin="round"/>
<path d="M23.6951 119.564L22.7168 120.857" stroke="#1AD0D1" stroke-width="0.733" stroke-miterlimit="10" stroke-linecap="round" stroke-linejoin="round"/>
<path d="M22.5927 118.879C21.4084 119.331 19.4539 119.91 16.9865 119.897C14.6059 119.884 12.7164 119.324 11.5488 118.879" stroke="#1AD0D1" stroke-width="0.733" stroke-miterlimit="10" stroke-linecap="round" stroke-linejoin="round"/>
<path d="M40.0467 117.641V113.678H32.749V124.575L49.2267 124.839V122.858L40.0467 117.641Z" fill="#F7A99C"/>
<path d="M49.81 124.84V123.9C49.81 122.94 49.2832 122.057 48.4379 121.601L41.4885 117.85C39.4052 118.419 37.7952 118.339 36.695 118.153C34.868 117.843 33.1218 117.013 32.5342 117.707C32.3662 117.906 32.346 118.166 32.3526 118.345V124.108C32.3526 124.512 32.6805 124.84 33.0847 124.84H49.81Z" fill="#AA01FF"/>
<path d="M49.8099 124.211H32.3525" stroke="#1AD0D1" stroke-width="0.733" stroke-miterlimit="10" stroke-linecap="round" stroke-linejoin="round"/>
<path d="M45.9633 120.344L44.9854 121.636" stroke="#1AD0D1" stroke-width="0.733" stroke-miterlimit="10" stroke-linecap="round" stroke-linejoin="round"/>
<path d="M45.2475 119.939L44.2695 121.232" stroke="#1AD0D1" stroke-width="0.733" stroke-miterlimit="10" stroke-linecap="round" stroke-linejoin="round"/>
<path d="M44.4984 119.564L43.5205 120.857" stroke="#1AD0D1" stroke-width="0.733" stroke-miterlimit="10" stroke-linecap="round" stroke-linejoin="round"/>
<path d="M43.3964 118.879C42.2121 119.331 40.2577 119.91 37.7902 119.897C35.41 119.884 33.5201 119.324 32.3525 118.879" stroke="#1AD0D1" stroke-width="0.733" stroke-miterlimit="10" stroke-linecap="round" stroke-linejoin="round"/>
<path d="M35.8532 61.207C35.8532 61.207 41.8632 80.2938 42.7876 82.9356C43.7121 85.5773 44.5709 89.2759 44.3726 92.5118C44.1743 95.7481 41.0703 115.693 41.0703 115.693H32.0223C32.0223 115.693 31.3833 94.625 31.0753 92.974C30.7673 91.3231 28.1255 81.9837 28.1255 81.9837C28.1255 81.9837 27.267 92.9081 26.5405 95.8137C25.814 98.7198 20.0023 116.023 20.0023 116.023H11.5488L15.1154 61.207H35.8532Z" fill="#4450E4"/>
<path d="M49.6465 49.5718C49.6465 49.5718 52.5161 47.1374 53.2422 45.5447C53.8638 44.1817 54.7327 41.7868 54.9703 41.1249C55.006 41.0249 55.1109 40.9697 55.2141 40.994L55.386 41.0346C55.9183 41.1607 56.2472 41.6955 56.1194 42.2275L55.8329 43.4215L58.865 41.4302C59.1251 41.2593 59.4755 41.3433 59.6297 41.6139C59.7658 41.8525 59.7009 42.1553 59.479 42.3168L57.479 43.7753L60.8014 42.2154C61.0588 42.0945 61.3654 42.1918 61.5064 42.4387L61.5106 42.446C61.6596 42.7075 61.5686 43.0402 61.3071 43.1891L61.3442 43.1784C61.6328 43.0954 61.9388 43.2353 62.0645 43.5076C62.2103 43.8229 62.0624 44.1959 61.7405 44.3261L61.529 44.4116C61.8047 44.3254 62.0944 44.4973 62.1506 44.7807C62.2329 45.1943 62.0336 45.6121 61.6596 45.8069C60.7653 46.2723 60.185 46.3949 59.3352 47.0311C58.6625 47.5343 58.898 47.8548 58.1805 48.7727C57.3068 49.8906 56.5625 49.9222 55.0574 51.0286C54.4858 51.4488 53.6965 52.1038 52.8623 53.0786L49.6465 49.5718Z" fill="#F7A99C"/>
<path d="M59.678 41.7344C59.678 41.7344 59.8305 42.0435 59.5409 42.2636C59.2516 42.4838 56.9922 44.1563 56.9922 44.1563" stroke="#262626" stroke-width="0.4147" stroke-miterlimit="10" stroke-linecap="round" stroke-linejoin="round"/>
<path d="M61.3072 43.1895L58.1963 44.6334" stroke="#262626" stroke-width="0.4147" stroke-miterlimit="10" stroke-linecap="round" stroke-linejoin="round"/>
<path d="M61.6276 44.3926L58.5 45.8321" stroke="#262626" stroke-width="0.4147" stroke-miterlimit="10" stroke-linecap="round" stroke-linejoin="round"/>
<path d="M55.6038 41.1152C55.6038 41.1152 56.1504 41.4611 56.1351 41.8445C56.1198 42.2279 55.5684 44.6908 55.5684 44.6908" stroke="#262626" stroke-width="0.4147" stroke-miterlimit="10" stroke-linecap="round" stroke-linejoin="round"/>
<path d="M32.0224 115.693C32.0224 115.693 31.2035 94.0906 31.1396 93.5322C31.0757 92.9738 27.9971 81.5399 27.9971 81.5399L28.5423 76.4863C28.5423 76.4863 34.7534 91.7756 34.7534 92.7841C34.7534 93.793 35.4434 115.693 35.4434 115.693H32.0224Z" fill="#1775AF"/>
<path d="M26.8936 94.4902L29.1009 70.6172" stroke="#262626" stroke-width="0.4147" stroke-miterlimit="10" stroke-linecap="round" stroke-linejoin="round"/>
<path d="M41.4186 113.859H31.9531L32.0229 115.692H41.0709L41.4186 113.859Z" fill="#262626"/>
<path d="M20.551 114.385H11.6554L11.5488 116.022H20.0026L20.551 114.385Z" fill="#262626"/>
<path d="M41.9688 84.8223C43.1665 88.5927 43.3565 92.6781 42.5133 96.5433" stroke="white" stroke-width="0.4147" stroke-miterlimit="10" stroke-linecap="round" stroke-linejoin="round"/>
<path d="M52.0321 47.0046C52.0321 47.0046 50.4999 48.1843 48.7545 48.4906C46.7094 48.8497 44.9358 47.6384 44.4597 47.3134C43.163 46.4278 42.6841 45.3787 41.8266 44.151C39.2866 40.515 37.7089 38.2563 35.5002 36.9773C34.3587 36.3161 32.4497 35.5698 29.4402 35.8007C28.7651 35.5586 27.6889 35.7503 26.9679 35.7503C26.3685 35.7503 25.7695 35.7503 25.1701 35.7503C23.9886 35.892 15.2872 36.903 13.8078 35.5444C13.2247 35.0089 13.2153 34.4814 13.2153 34.4814C13.2077 34.0452 13.4831 33.5913 14.204 33.0423C15.9658 31.7007 19.1976 30.6992 20.28 30.38L19.6195 25.4473C19.6195 25.4473 19.6195 25.4473 18.1665 25.4473C16.7135 25.4473 11.5619 26.3057 8.78823 27.275C4.89905 28.6339 2.81537 29.6257 1.78743 31.8785C0.499718 34.7016 1.87147 37.7357 2.22778 38.5241C4.01349 42.4737 7.97316 44.0722 10.3649 45.0376C12.4742 45.8892 14.3516 46.2312 15.6567 46.3833L14.534 64.3474L35.1818 65.4701H38.2826C38.5202 62.7253 37.3325 54.1968 37.4863 51.4109C40.1225 55.0796 44.4892 56.9323 48.6347 56.1356C53.224 55.2539 55.532 51.5116 55.9077 50.8799C54.3061 47.72 52.0321 47.0046 52.0321 47.0046Z" fill="#1AD0D1"/>
<path d="M26.3787 45.7025H26.1797V37.1289H27.4802V44.601C27.4802 45.2094 26.9871 45.7025 26.3787 45.7025Z" fill="white"/>
<path d="M38.3141 64.5219C37.6029 64.6538 27.8294 66.2926 20.9234 59.0008C15.0961 52.8481 15.7851 45.0617 15.9066 43.9102C15.5441 49.311 15.1812 54.7119 14.8186 60.1128H14.7988L14.5342 64.3461L17.7708 64.5222L17.7687 64.4993C22.5959 64.8813 27.5776 65.1664 32.7066 65.3345C34.5854 65.396 36.4444 65.4404 38.2832 65.4692C38.2933 65.1532 38.3037 64.8375 38.3141 64.5219Z" fill="#1AD0D1"/>
<path d="M32.8391 29.2595C33.1929 27.4432 33.1377 26.0235 33.0349 25.1161C32.9568 24.4257 32.8366 23.903 32.4699 23.4061C32.3925 23.3012 31.7833 22.5004 30.738 22.2913C29.4878 22.0409 29.1722 22.9491 27.3937 23.1693C25.8602 23.3589 25.558 22.7501 24.5266 23.1873C23.4 23.6648 22.844 24.7799 22.6753 25.1185C22.6016 25.2665 22.2346 26.0228 22.1974 27.0827C22.1679 27.9221 22.3596 28.5535 22.4356 28.8118C22.7551 29.8992 23.1312 31.5529 23.591 34.1968C23.831 34.1877 24.0713 34.179 24.3113 34.17C27.1541 32.5326 29.9966 30.8959 32.8391 29.2595Z" fill="#262626"/>
<path d="M26.7577 38.1921C25.4144 38.1973 24.3215 37.1124 24.3167 35.7695L24.2969 30.536L29.1609 30.5176L29.1807 35.7511C29.1855 37.094 28.101 38.1869 26.7577 38.1921Z" fill="#F7A99C"/>
<path d="M29.1753 34.2856L26.0078 32.6582C26.0398 32.9326 26.22 34.2171 27.3497 35.1044C28.071 35.6709 28.8295 35.8004 29.1795 35.8372L29.1753 34.2856Z" fill="#FF7769"/>
<path d="M24.1793 28.9152C24.164 28.836 23.9556 28.7165 23.8917 28.6759C23.7837 28.6068 23.6667 28.5516 23.5444 28.5123C23.3072 28.4359 23.0464 28.4182 22.8027 28.4741C22.3178 28.5853 21.8879 28.9926 21.807 29.4916C21.7601 29.7816 21.8271 30.0813 21.9511 30.3473C22.138 30.7474 22.4547 31.0836 22.8374 31.3037C23.1544 31.4864 23.5153 31.5899 23.8799 31.6114C23.9528 31.6156 24.7005 31.5986 24.695 31.5698C24.5227 30.6849 24.3508 29.8 24.1793 28.9152Z" fill="#F7A99C"/>
<path d="M23.5123 28.9661C23.5699 29.3564 23.913 31.4162 25.7696 32.8713C26.1116 33.1394 28.3849 34.9212 30.4651 34.0517C33.1381 32.9341 32.8464 28.5438 32.8277 28.3059C32.7641 27.502 32.5762 25.1346 30.6159 23.8715C29.0159 22.8408 27.282 23.2197 27.0361 23.2777C26.777 23.3384 25.1264 23.7552 24.1162 25.3735C23.199 26.8421 23.4181 28.3271 23.5123 28.9661Z" fill="#F7A99C"/>
<path d="M31.3107 28.3093C31.3537 28.652 31.618 28.901 31.901 28.8656C32.1841 28.8302 32.3785 28.5236 32.3355 28.1808C32.2924 27.838 32.0281 27.589 31.7451 27.6245C31.4621 27.6599 31.2676 27.9665 31.3107 28.3093Z" fill="#262626"/>
<path d="M28.2218 28.696C28.2648 29.0388 28.5291 29.2878 28.8122 29.2523C29.0952 29.2169 29.2897 28.9103 29.2466 28.5675C29.2035 28.2247 28.9393 27.9757 28.6562 28.0112C28.3735 28.0466 28.1787 28.3532 28.2218 28.696Z" fill="#262626"/>
<path d="M30.3786 28.8223L30.852 29.462C30.9391 29.5793 30.9065 29.7464 30.7815 29.8224L30.3467 30.0871" stroke="#262626" stroke-width="0.733" stroke-miterlimit="10" stroke-linecap="round" stroke-linejoin="round"/>
<path d="M27.1862 30.3109C27.2345 30.6953 27.5856 30.9683 27.97 30.9197C28.3545 30.8714 28.6274 30.5203 28.5788 30.1359C28.5305 29.7514 28.1794 29.4785 27.795 29.5271C27.4105 29.5754 27.1379 29.9265 27.1862 30.3109Z" fill="#FF7769"/>
<path d="M23.8524 30.6734C23.8549 30.5963 23.8611 30.074 23.4423 29.6972C23.1141 29.402 22.7321 29.3826 22.6279 29.3809" stroke="#262626" stroke-width="0.733" stroke-miterlimit="10" stroke-linecap="round" stroke-linejoin="round"/>
<path d="M23.4835 29.8001C23.4603 29.7963 23.1793 29.7574 22.9831 29.9699C22.8216 30.1446 22.8366 30.3606 22.8397 30.3964" stroke="#262626" stroke-width="0.733" stroke-miterlimit="10" stroke-linecap="round" stroke-linejoin="round"/>
<path d="M23.4506 28.4865C23.4506 28.4865 23.7961 28.5171 24.0566 28.7758C24.3171 29.0342 24.4094 29.477 24.4094 29.477C25.0752 29.3961 26.6001 29.1151 27.9833 27.9146C28.7331 27.2638 29.1908 26.5602 29.4606 26.0528C29.7127 26.2796 30.143 26.6203 30.7518 26.8828C31.546 27.2252 32.5382 27.3891 32.6698 27.1224C32.6941 27.0731 32.6674 26.93 32.6132 26.6442C32.5938 26.5407 32.5733 26.3876 32.5229 26.241C32.4246 25.9542 32.2968 25.6774 32.1444 25.4152C31.8388 24.8908 31.4321 24.4251 30.9536 24.0518C30.6424 23.8094 30.301 23.6059 29.9378 23.4513C28.7848 22.961 27.1838 22.9606 25.8058 23.6955C25.8058 23.6955 24.2674 24.5161 23.5892 26.1219C23.3561 26.6737 23.2974 27.2256 23.2829 27.4169C23.2537 27.7958 23.2964 28.0434 23.3541 28.2337C23.3867 28.3414 23.4232 28.4278 23.4506 28.4865Z" fill="#262626"/>
<path d="M32.4639 29.2006C32.5969 29.1839 32.7251 29.2075 32.839 29.2593C32.8255 29.6361 32.7893 30.0931 32.7063 30.5779C32.6838 30.5831 32.6622 30.5904 32.639 30.5935C32.2545 30.6418 31.9034 30.3692 31.8552 29.9848C31.8069 29.6003 32.0791 29.2489 32.4639 29.2006Z" fill="#FF7769"/>
<path d="M27.3136 23.3654C27.0851 23.2765 26.7503 23.1553 26.3381 23.0369C25.4344 22.7778 24.9826 22.6483 24.5714 22.7011C23.3678 22.8556 22.6763 24.442 22.3864 25.1074C22.1669 25.6109 21.8078 26.4656 21.9981 27.5362C22.0828 28.0127 22.2506 28.3853 22.3839 28.6316" stroke="#262626" stroke-width="0.25" stroke-miterlimit="10" stroke-linecap="round" stroke-linejoin="round"/>
<path d="M27.3135 23.2231C27.7205 23.0453 28.1556 22.9012 28.5477 22.6973C28.9592 22.4834 29.3187 22.2052 29.7594 22.041C30.2223 21.8684 30.739 21.7993 31.2117 21.9427C31.619 22.0663 31.9674 22.3386 32.2549 22.6525C32.6421 23.0755 32.937 23.586 33.0905 24.1385C33.3863 25.2033 33.1221 26.3128 32.9477 27.3741" stroke="#262626" stroke-width="0.25" stroke-miterlimit="10" stroke-linecap="round" stroke-linejoin="round"/>
<path d="M30.9003 31.5519C30.9003 31.8978 30.5634 32.1781 30.1481 32.1781C29.7324 32.1781 29.3955 31.8978 29.3955 31.5519C29.3955 31.206 29.7324 30.9258 30.1481 30.9258C30.5634 30.9261 30.9003 31.2064 30.9003 31.5519Z" fill="white"/>
<path d="M19.7334 26.2924L21.1229 25.4461C21.1229 25.4461 21.4066 24.222 21.7924 23.9632C22.1782 23.7045 24.2286 22.9082 24.2286 22.9082L24.5272 23.1871C24.5272 23.1871 22.9228 24.6526 22.5905 25.3034C22.2578 25.9542 22.1953 27.7659 22.1953 27.7659L20.6256 29.7954L20.2415 30.0861L19.7334 26.2924Z" fill="#F7A99C"/>
<path d="M15.9065 44.6895L15.1758 54.0775" stroke="#262626" stroke-width="0.4147" stroke-miterlimit="10" stroke-linecap="round" stroke-linejoin="round"/>
<path d="M37.1279 45.457L37.6881 55.8153" stroke="#262626" stroke-width="0.4147" stroke-miterlimit="10" stroke-linecap="round" stroke-linejoin="round"/>
<path d="M5.05083 30.6738C4.76051 30.9048 3.25887 32.147 3.01578 34.3414C2.75115 36.7321 4.18889 38.3685 4.41358 38.6158" stroke="white" stroke-width="0.4147" stroke-miterlimit="10" stroke-linecap="round" stroke-linejoin="round"/>
<path d="M40.7246 52.0996C41.1108 52.5285 42.6124 54.0937 45.1357 54.4347C47.5288 54.7584 49.3142 53.7749 49.8289 53.4665" stroke="white" stroke-width="0.4147" stroke-miterlimit="10" stroke-linecap="round" stroke-linejoin="round"/>
<path d="M106.335 60.3235L109.556 58.6017L114.334 59.4775L116.723 56.9292L122.376 58.4423L125.522 54.1423L131.139 57.5852L129.228 45.4433L121.816 40.2539L104.781 42.9349C104.143 43.0353 103.708 43.6336 103.808 44.2716L106.335 60.3235Z" fill="#F5F5F5"/>
<path d="M123.548 46.3372L129.228 45.4433L121.816 40.2539L122.674 45.701C122.739 46.1181 123.131 46.4028 123.548 46.3372Z" fill="#D6D6D6"/>
<path d="M121.816 40.2539L122.674 45.701C122.739 46.1181 123.131 46.4028 123.548 46.3372L129.228 45.4433" stroke="#262626" stroke-width="0.274" stroke-miterlimit="10" stroke-linecap="round" stroke-linejoin="round"/>
<path d="M108.631 76.2662C108.732 76.9041 109.33 77.3396 109.968 77.2392L132.283 73.7272C132.921 73.6268 133.356 73.0285 133.256 72.3905L131.139 58.939L125.522 55.4961L122.376 59.7961L116.723 58.283L114.334 60.8313L109.556 59.9555L106.335 61.6773L108.631 76.2662Z" fill="#F5F5F5"/>
<path d="M106.34 60.3235L109.561 58.6017L114.339 59.4775L116.727 56.9292L122.381 58.4423L125.527 54.1423L131.144 57.5852L129.233 45.4433L121.821 40.2539L104.786 42.9349C104.148 43.0353 103.713 43.6336 103.813 44.2716L106.34 60.3235Z" stroke="#262626" stroke-width="0.274" stroke-miterlimit="10" stroke-linecap="round" stroke-linejoin="round"/>
<path d="M108.635 76.2662C108.735 76.9041 109.334 77.3396 109.972 77.2392L132.287 73.7272C132.925 73.6268 133.36 73.0285 133.26 72.3905L131.143 58.939L125.526 55.4961L122.38 59.7961L116.727 58.283L114.338 60.8313L109.56 59.9555L106.339 61.6773L108.635 76.2662Z" stroke="#262626" stroke-width="0.274" stroke-miterlimit="10" stroke-linecap="round" stroke-linejoin="round"/>
<path d="M20.0089 22.5579L19.4457 23.0954L14.4629 18.5964L15.8972 17.2285L20.0089 22.5579Z" fill="#FF7129"/>
<path d="M21.2394 21.6363L20.4736 21.7779L18.7646 15.2859L20.7136 14.9258L21.2394 21.6363Z" fill="#FF7129"/>
<path d="M18.5848 23.7831L18.5209 24.5592L11.8076 24.5085L11.9705 22.5332L18.5848 23.7831Z" fill="#FF7129"/>
<path d="M98.7886 122.215C97.1043 120.56 97.0806 117.853 98.7361 116.168L118.424 96.1348L124.524 102.129L104.836 122.163C103.18 123.847 100.473 123.871 98.7886 122.215Z" fill="#FF7129"/>
<path opacity="0.2" d="M133.918 103.8C143.468 103.778 151.192 96.0189 151.17 86.4693C151.148 76.9197 143.388 69.1961 133.839 69.218C124.289 69.24 116.566 76.9993 116.588 86.5488C116.61 96.0984 124.369 103.822 133.918 103.8Z" fill="#DCF0FF"/>
<path opacity="0.5" d="M117.693 92.6091C118.276 94.1604 119.089 95.6439 120.133 97.007L151.162 86.2743C151.139 84.5966 150.872 82.9227 150.364 81.3086L117.693 92.6091Z" fill="white"/>
<path opacity="0.5" d="M116.625 87.6571C116.69 88.6381 116.838 89.614 117.069 90.5742L149.6 79.3224C149.194 78.4351 148.711 77.5756 148.148 76.7539L116.625 87.6571Z" fill="white"/>
<path d="M147.862 72.2815C140.002 64.5562 127.367 64.666 119.642 72.5266C111.917 80.387 112.026 93.0217 119.887 100.747C127.747 108.472 140.382 108.362 148.107 100.502C155.832 92.6411 155.723 80.0063 147.862 72.2815ZM122.355 98.235C115.882 91.8732 115.792 81.4684 122.154 74.9948C128.515 68.5215 138.92 68.4312 145.394 74.793C151.867 81.1548 151.957 91.5596 145.595 98.0333C139.234 104.507 128.829 104.597 122.355 98.235Z" fill="#FF7129"/>
<path d="M119.807 103.973L104.239 119.813" stroke="white" stroke-miterlimit="10" stroke-linecap="round" stroke-linejoin="round"/>
<path d="M135.305 67.993C130.4 67.4981 125.315 69.1911 121.686 72.527C118.056 75.8633 115.941 80.7881 116.022 85.7174" stroke="white" stroke-miterlimit="10" stroke-linecap="round" stroke-linejoin="round"/>
</svg>
