<svg width="644" height="232" viewBox="0 0 644 232" fill="none" xmlns="http://www.w3.org/2000/svg">
<g clip-path="url(#clip0_255_3294)">
<rect width="644" height="232" fill="#403F3F"/>
<path opacity="0.4" d="M459 155C366.768 155 292 80.0077 292 -12.5C292 -105.008 366.768 -180 459 -180C551.232 -180 626 -105.008 626 -12.5C626 80.0077 551.232 155 459 155ZM459 -62.1037C431.686 -62.1037 409.544 -39.8954 409.544 -12.5C409.544 14.8954 431.686 37.1037 459 37.1037C486.314 37.1037 508.456 14.8954 508.456 -12.5C508.456 -39.8954 486.314 -62.1037 459 -62.1037Z" fill="#555555" fill-opacity="0.69"/>
<path opacity="0.4" d="M511 432C418.768 432 344 357.008 344 264.5C344 171.992 418.768 97 511 97C603.232 97 678 171.992 678 264.5C678 357.008 603.232 432 511 432ZM511 214.896C483.686 214.896 461.544 237.105 461.544 264.5C461.544 291.895 483.686 314.104 511 314.104C538.314 314.104 560.456 291.895 560.456 264.5C560.456 237.105 538.314 214.896 511 214.896Z" fill="#777171" fill-opacity="0.5"/>
</g>
<defs>
<clipPath id="clip0_255_3294">
<rect width="644" height="232" rx="12" fill="white"/>
</clipPath>
</defs>
</svg>
