<svg width="76" height="87" viewBox="0 0 76 87" fill="none" xmlns="http://www.w3.org/2000/svg">
<g clip-path="url(#clip0_458_7875)">
<path d="M32.1949 25.8579L32.1876 25.8711C32.1953 25.8643 32.2041 25.8586 32.2121 25.8522C32.2063 25.8537 32.2008 25.856 32.1949 25.8579Z" fill="url(#paint0_linear_458_7875)"/>
<path d="M32.2109 25.8547C33.3623 25.4571 34.5044 25.0259 35.6682 24.6701C39.3101 23.5569 42.8852 23.5558 46.3219 25.4418C47.4076 26.0378 48.3883 26.7968 49.4046 27.5016C50.6675 28.3775 52.0082 28.6156 53.4343 27.9142C53.8797 27.6952 54.0239 27.5139 53.5036 27.1414C51.4828 25.6937 49.3705 24.4212 47.0242 23.6088C45.0227 22.916 43.0657 22.5423 41.1633 22.5423C38.0175 22.5423 35.0196 23.5644 32.2109 25.8547Z" fill="url(#paint1_linear_458_7875)"/>
<path d="M33.457 25.8824C34.2921 25.7685 35.1239 25.5999 35.9626 25.5499C39.3304 25.3496 42.3826 26.3664 45.1957 28.1803C46.2644 28.8694 47.316 28.77 48.399 28.3223C48.8826 28.1227 49.0239 27.8955 48.4926 27.489C45.753 25.3937 42.9003 24.4 39.946 24.4C37.8341 24.3996 35.6705 24.9071 33.457 25.8824Z" fill="url(#paint2_linear_458_7875)"/>
<path d="M50.4964 31.7863C50.3309 31.926 50.179 32.0822 50.0224 32.2294C50.0092 32.2242 49.9989 32.2231 49.993 32.2175C49.9531 32.179 49.9134 32.1394 49.8745 32.0994C49.1426 31.3371 48.2543 30.898 47.2105 30.8427C45.7946 30.7672 44.6304 31.3083 43.7506 32.4421C43.2406 33.0987 42.9695 33.8625 42.928 34.6981C42.8682 35.9115 43.2461 36.9709 44.0896 37.8349C46.0404 39.8326 48.0008 41.8203 49.9571 43.8117C49.9758 43.8304 49.9985 43.8446 50.022 43.8633C50.0576 43.8293 50.0884 43.8012 50.1174 43.7721C52.0631 41.7889 54.0216 39.8188 55.9489 37.8177C57.0309 36.6943 57.367 35.3236 56.9484 33.8109C56.4288 31.9335 54.7815 30.8318 53.0746 30.8318C52.1801 30.8315 51.2698 31.1342 50.4964 31.7863ZM49.3234 36.6828C49.5557 35.5834 49.7872 34.4896 50.0187 33.3954C50.0286 33.3961 50.0389 33.3965 50.0492 33.3969C50.2594 34.8446 50.4696 36.2926 50.6802 37.7403C50.6876 37.7407 50.6949 37.7414 50.7019 37.7422C50.7694 37.4451 50.8428 37.1495 50.9015 36.8506C50.9268 36.7239 50.9697 36.6656 51.1077 36.6786C51.1932 36.6865 51.2794 36.685 51.366 36.6831C51.4361 36.682 51.5065 36.6801 51.5766 36.6839C51.6705 36.6891 51.7127 36.6566 51.7439 36.565C51.8976 36.1144 52.0587 35.6667 52.2176 35.2175C52.2326 35.1749 52.2498 35.1334 52.266 35.0916C52.2751 35.0912 52.2843 35.0904 52.2935 35.0901C52.4586 35.7721 52.6241 36.4541 52.7976 37.1708C52.8798 37.0251 52.9506 36.9073 53.0137 36.7851C53.0523 36.71 53.1007 36.6786 53.1876 36.682L54.4879 36.6913C54.4182 36.8218 54.3261 36.9713 54.2395 37.1334C54.0242 37.139 53.7585 37.1532 53.4936 37.1491C53.3755 37.1476 53.3146 37.1902 53.2595 37.2937C53.0823 37.6271 52.8941 37.9544 52.7099 38.2844C52.6879 38.324 52.6626 38.3625 52.6208 38.4313C52.4773 37.8427 52.3412 37.2837 52.1955 36.6831C52.139 36.8337 52.0935 36.9455 52.0557 37.0602C52.0315 37.1338 51.9926 37.1626 51.9149 37.16C51.8286 37.157 51.7424 37.1574 51.6562 37.1581C51.5766 37.1585 51.4973 37.1589 51.4181 37.1566C51.3421 37.1544 51.3047 37.173 51.286 37.2575C51.1227 38.0015 50.954 38.7444 50.7881 39.4877C50.7287 39.7534 50.6711 40.0191 50.6127 40.2848C50.6006 40.284 50.5889 40.2833 50.5771 40.2826C50.3709 38.864 50.1647 37.4451 49.9582 36.0266C49.9519 36.0254 49.9453 36.0243 49.9391 36.0236C49.8742 36.33 49.811 36.6372 49.7424 36.9432C49.694 37.1611 49.7274 37.1592 49.566 37.157C49.5425 37.157 49.5142 37.1566 49.4816 37.157C49.2978 37.1592 49.1132 37.1633 48.9298 37.1544C48.8281 37.1499 48.7731 37.1846 48.725 37.2751C48.5096 37.6831 48.2873 38.0871 48.0668 38.4922C48.0452 38.5318 48.0209 38.5699 47.9787 38.6413C47.8419 37.929 47.7124 37.2519 47.5829 36.5751C47.5733 36.5718 47.5642 36.5688 47.555 36.5654C47.5003 36.7134 47.4376 36.8588 47.3939 37.0097C47.3605 37.1256 47.3004 37.157 47.1859 37.1547C46.79 37.1473 46.3945 37.1517 46.0177 37.1517V36.691C46.2998 36.691 46.5886 36.685 46.8766 36.694C46.9925 36.6973 47.0443 36.6592 47.0828 36.5475C47.2695 36.0041 47.4662 35.4641 47.6595 34.923C47.6698 34.8943 47.6849 34.8674 47.7146 34.8042C47.8764 35.645 48.0312 36.4481 48.1934 37.2893C48.2991 37.0957 48.3882 36.9387 48.4708 36.7781C48.5071 36.7067 48.5526 36.6786 48.6329 36.6805C48.7313 36.6831 48.8292 36.6839 48.9287 36.6839C49.0575 36.6839 49.1881 36.6828 49.3234 36.6828Z" fill="url(#paint3_linear_458_7875)"/>
<path d="M29.5685 4.65135C15.3595 7.01197 3.86124 18.9705 1.52885 33.4015C1.38576 34.286 1.3986 34.2931 2.27843 33.9919C5.93386 32.74 9.67991 32.0364 13.5474 32.0823C16.8495 32.1216 20.0449 32.9377 23.2754 33.493C26.0492 33.9698 28.8057 34.6313 31.6415 34.5375C34.2887 34.45 36.792 33.8585 38.8654 32.0259C39.2147 31.7169 39.6337 31.422 39.5247 30.8659C39.4106 30.2822 38.9087 30.1178 38.4324 29.9795C37.3519 29.6664 36.2575 29.8204 35.1758 29.9635C34.1687 30.0965 33.2078 29.9863 32.2997 29.5434C30.9627 28.8914 30.6391 27.746 31.3729 26.4328C32.0032 25.305 32.9209 24.4638 34.0406 23.9104C37.6575 22.1223 41.4395 21.4167 45.4289 22.2915C48.7489 23.0195 51.653 24.6652 54.4568 26.5322C55.1671 27.0053 55.8775 27.5001 56.7257 27.66C57.505 27.8061 58.3166 27.7714 58.7914 27.0154C59.2544 26.2796 58.9059 25.5666 58.4685 24.9246C57.7872 23.9261 56.8637 23.1809 55.9226 22.4616C49.7025 17.7075 42.5337 16.4148 34.9924 16.6222C31.4474 16.7198 28.0356 17.6989 24.6293 18.6271C20.7544 19.6832 16.8583 20.6488 12.8844 21.5505C12.8844 21.4193 12.8745 21.3853 12.8866 21.3648C12.9273 21.2938 12.971 21.2228 13.0224 21.1596C19.9146 12.7299 28.7272 8.87595 39.433 10.1794C49.0168 11.3461 56.2414 16.4705 61.0907 24.9369C64.0315 30.0719 65.2118 35.6862 64.7565 41.6317C64.7176 42.1429 64.7862 42.3361 65.3633 42.1918C66.9564 41.7942 68.5319 41.3469 70.0816 40.7969C70.4951 40.6496 70.6287 40.4478 70.6195 40.0207C70.5946 38.8787 70.5814 37.7393 70.4911 36.598C69.9624 29.9063 67.8542 23.7546 63.8209 18.4732C56.5496 8.95294 47.3382 4.07287 36.3319 4.07287C34.1474 4.07287 31.8928 4.26495 29.5685 4.65135Z" fill="url(#paint4_linear_458_7875)"/>
<path d="M18.11 51.0949C17.7805 51.2709 17.6319 51.4248 18.0425 51.7234C22.1925 54.7384 26.6449 56.8172 31.908 56.2944C34.6323 56.0243 37.0835 55.0183 39.1723 53.1468C38.2283 53.4891 37.2923 53.8565 36.3391 54.1696C31.6076 55.7249 27.1809 55.2481 23.1498 52.1057C22.61 51.6853 22.0237 51.3097 21.4162 51.0011C20.9051 50.7413 20.3907 50.6177 19.8777 50.6177C19.2845 50.6177 18.693 50.7828 18.11 51.0949Z" fill="url(#paint5_linear_458_7875)"/>
<path d="M22.7539 51.0473C27.12 55.1441 33.9003 55.448 38.272 52.9573C37.0652 53.2846 35.9609 53.4547 34.8422 53.4423C31.7235 53.4068 28.9094 52.3702 26.2901 50.7017C25.826 50.4057 25.2899 50.263 24.7561 50.263C24.0215 50.263 23.2903 50.5331 22.7539 51.0473Z" fill="url(#paint6_linear_458_7875)"/>
<path d="M18.11 51.0949C17.7805 51.2709 17.6319 51.4248 18.0425 51.7234C22.1925 54.7384 26.6449 56.8172 31.908 56.2944C34.6323 56.0243 37.0835 55.0183 39.1723 53.1468C38.2283 53.4891 37.2923 53.8565 36.3391 54.1696C31.6076 55.7249 27.1809 55.2481 23.1498 52.1057C22.61 51.6853 22.0237 51.3097 21.4162 51.0011C20.9051 50.7413 20.3907 50.6177 19.8777 50.6177C19.2845 50.6177 18.693 50.7828 18.11 51.0949Z" fill="url(#paint7_linear_458_7875)"/>
<path d="M22.7539 51.0473C27.12 55.1441 33.9003 55.448 38.272 52.9573C37.0652 53.2846 35.9609 53.4547 34.8422 53.4423C31.7235 53.4068 28.9094 52.3702 26.2901 50.7017C25.826 50.4057 25.2899 50.263 24.7561 50.263C24.0215 50.263 23.2903 50.5331 22.7539 51.0473Z" fill="url(#paint8_linear_458_7875)"/>
<path d="M20.637 36.6827C20.4715 36.8221 20.3196 36.9787 20.1629 37.1256C20.1501 37.1203 20.1395 37.1196 20.1336 37.1136C20.0936 37.0751 20.0543 37.0359 20.0158 36.9955C19.2835 36.2332 18.3948 35.7941 17.351 35.7388C15.9355 35.6637 14.7713 36.2048 13.8911 37.3386C13.3819 37.9948 13.11 38.7586 13.0685 39.5946C13.0091 40.8076 13.387 41.867 14.2305 42.731C16.1813 44.7287 18.1413 46.7164 20.0984 48.7078C20.1163 48.7269 20.1391 48.7407 20.1626 48.7598C20.1985 48.7254 20.229 48.6974 20.258 48.6682C22.2036 46.6854 24.1625 44.7149 26.0898 42.7138C27.1718 41.5905 27.5083 40.2197 27.0893 38.7074C26.5694 36.8296 24.9224 35.728 23.2156 35.728C22.3211 35.728 21.4104 36.0306 20.637 36.6827ZM19.4644 41.5789C19.6966 40.4798 19.9281 39.3857 20.1593 38.2915C20.1695 38.2922 20.1798 38.2926 20.1897 38.2934C20.4003 39.7407 20.6106 41.1887 20.8212 42.6364C20.8285 42.6368 20.8355 42.6375 20.8428 42.6383C20.9103 42.3412 20.9833 42.0456 21.0428 41.7467C21.0674 41.6203 21.1103 41.5617 21.2482 41.5748C21.3337 41.583 21.4203 41.5811 21.5069 41.5796C21.5773 41.5781 21.6474 41.5766 21.7171 41.58C21.8118 41.5852 21.8536 41.5527 21.8848 41.4615C22.0382 41.0109 22.1996 40.5628 22.3585 40.1136C22.3735 40.0714 22.3904 40.0295 22.4069 39.9877C22.4161 39.9869 22.4252 39.9866 22.4341 39.9862C22.5995 40.6682 22.765 41.3505 22.9385 42.0673C23.0207 41.9212 23.0915 41.8035 23.1546 41.6813C23.1932 41.6065 23.242 41.5748 23.3282 41.5781L24.6289 41.5875C24.5591 41.7183 24.467 41.8674 24.3805 42.0299C24.1647 42.0351 23.8995 42.0494 23.6349 42.0456C23.5164 42.0437 23.4551 42.0863 23.4005 42.1899C23.2229 42.5232 23.035 42.8509 22.8508 43.1809C22.8285 43.2205 22.8035 43.2586 22.7617 43.3274C22.6182 42.7388 22.4825 42.1798 22.3361 41.5796C22.28 41.7302 22.2341 41.842 22.1967 41.9567C22.1725 42.0303 22.1332 42.0587 22.0558 42.0561C21.9696 42.0535 21.883 42.0538 21.7967 42.0542C21.7175 42.0546 21.6379 42.055 21.5586 42.0527C21.4827 42.0505 21.4456 42.0692 21.4269 42.1536C21.264 42.898 21.0952 43.6409 20.9287 44.3842C20.8692 44.6495 20.8116 44.9156 20.7536 45.1813C20.7419 45.1802 20.7298 45.1794 20.7181 45.1787C20.5115 43.7601 20.3053 42.3412 20.0991 40.9227C20.0925 40.9215 20.0863 40.9208 20.0797 40.9197C20.0147 41.2265 19.952 41.5333 19.8837 41.8393C19.8346 42.0576 19.8679 42.0553 19.7069 42.0535C19.683 42.0531 19.6555 42.0527 19.6229 42.0531C19.4383 42.0553 19.2541 42.0594 19.0703 42.0505C18.969 42.046 18.9136 42.0811 18.8659 42.1715C18.6506 42.5792 18.4279 42.9832 18.2077 43.3883C18.1861 43.4279 18.1619 43.4664 18.1193 43.5374C17.9828 42.8251 17.8533 42.1484 17.7234 41.4716C17.7142 41.4683 17.7047 41.4653 17.6959 41.4619C17.6412 41.6099 17.5785 41.7549 17.5348 41.9062C17.5011 42.0217 17.4409 42.0531 17.3264 42.0508C16.9313 42.0437 16.5354 42.0479 16.1586 42.0479V41.5871C16.4404 41.5871 16.7291 41.5811 17.0175 41.5901C17.1334 41.5934 17.1852 41.5557 17.2233 41.4436C17.4105 40.9002 17.6067 40.3603 17.8001 39.8191C17.8104 39.7904 17.8258 39.7638 17.8551 39.7003C18.0173 40.5411 18.1721 41.3446 18.3339 42.1854C18.4396 41.9918 18.5291 41.8352 18.6117 41.6742C18.648 41.6032 18.6931 41.5748 18.7742 41.5766C18.8722 41.5792 18.9701 41.58 19.0696 41.58C19.198 41.58 19.3286 41.5789 19.4644 41.5789Z" fill="url(#paint9_linear_458_7875)"/>
<path d="M6.19507 36.7767C4.64858 37.1366 3.13439 37.6067 1.62863 38.1127C1.1524 38.2726 1.01921 38.5215 1.01627 39.0148C1.0038 41.2215 1.1711 43.4139 1.54571 45.5824C4.86579 64.7944 22.6814 77.5986 41.616 74.3961C56.0851 71.9488 67.6377 60.2563 70.0956 45.5724C70.242 44.6964 70.2045 44.6647 69.3427 44.9599C66.3752 45.976 63.3369 46.5944 60.2065 46.8067C55.9714 47.0944 51.898 46.069 47.7844 45.344C44.9585 44.8463 42.1403 44.2237 39.2451 44.4498C36.7689 44.643 34.4534 45.3093 32.5859 47.1015C31.8194 47.8369 31.9522 48.4625 32.934 48.853C33.9405 49.2525 34.9747 49.1591 36.0098 49.0223C37.164 48.8706 38.3011 48.8545 39.3783 49.4046C40.6379 50.0473 40.9864 51.1176 40.3304 52.3926C39.9972 53.0403 39.553 53.6075 38.989 54.063C36.5513 56.032 33.6546 56.701 30.6615 56.9689C26.7529 57.3179 23.2394 55.995 19.8786 54.1034C18.3487 53.242 16.9882 52.0799 15.347 51.4233C14.4067 51.0473 13.3379 51.2547 12.9061 51.8228C12.4665 52.4005 12.5905 53.2734 13.2997 54.1931C14.3105 55.5029 15.6127 56.4909 16.9746 57.368C24.4231 62.1666 32.5573 63.1898 41.0892 61.7264C44.9156 61.0702 48.6091 59.8093 52.3827 58.9016C54.477 58.3979 56.5705 57.8908 58.9044 57.3273C58.7004 57.6434 58.6512 57.7394 58.5844 57.8209C51.3114 66.6655 42.0398 70.3411 30.8618 68.5878C23.963 67.5059 18.2199 64.0508 13.7088 58.6135C8.62322 52.4842 6.3499 45.3702 6.87971 37.3533C6.91126 36.8743 6.79826 36.7252 6.53996 36.7252C6.44456 36.7252 6.32972 36.7453 6.19507 36.7767Z" fill="url(#paint10_linear_458_7875)"/>
</g>
<defs>
<linearGradient id="paint0_linear_458_7875" x1="16.2013" y1="87.9196" x2="31.8095" y2="31.1312" gradientUnits="userSpaceOnUse">
<stop stop-color="#543785"/>
<stop offset="0.504231" stop-color="#543785"/>
<stop offset="1" stop-color="#3E98BE"/>
</linearGradient>
<linearGradient id="paint1_linear_458_7875" x1="26.4757" y1="90.0276" x2="41.7294" y2="33.765" gradientUnits="userSpaceOnUse">
<stop stop-color="#543785"/>
<stop offset="0.504231" stop-color="#543785"/>
<stop offset="1" stop-color="#3E98BE"/>
</linearGradient>
<linearGradient id="paint2_linear_458_7875" x1="24.774" y1="89.5612" x2="40.0277" y2="33.2985" gradientUnits="userSpaceOnUse">
<stop stop-color="#543785"/>
<stop offset="0.504231" stop-color="#543785"/>
<stop offset="1" stop-color="#3E98BE"/>
</linearGradient>
<linearGradient id="paint3_linear_458_7875" x1="35.0247" y1="92.335" x2="50.2784" y2="36.0723" gradientUnits="userSpaceOnUse">
<stop stop-color="#543785"/>
<stop offset="0.504231" stop-color="#543785"/>
<stop offset="1" stop-color="#3E98BE"/>
</linearGradient>
<linearGradient id="paint4_linear_458_7875" x1="22.3785" y1="88.9082" x2="37.6321" y2="32.6455" gradientUnits="userSpaceOnUse">
<stop stop-color="#543785"/>
<stop offset="0.504231" stop-color="#543785"/>
<stop offset="1" stop-color="#3E98BE"/>
</linearGradient>
<linearGradient id="paint5_linear_458_7875" x1="19.1352" y1="88.0317" x2="34.3889" y2="31.769" gradientUnits="userSpaceOnUse">
<stop stop-color="#543785"/>
<stop offset="0.504231" stop-color="#543785"/>
<stop offset="1" stop-color="#3E98BE"/>
</linearGradient>
<linearGradient id="paint6_linear_458_7875" x1="20.9657" y1="88.533" x2="36.2193" y2="32.2704" gradientUnits="userSpaceOnUse">
<stop stop-color="#543785"/>
<stop offset="0.504231" stop-color="#543785"/>
<stop offset="1" stop-color="#3E98BE"/>
</linearGradient>
<linearGradient id="paint7_linear_458_7875" x1="26.0148" y1="56.6081" x2="30.9078" y2="48.2872" gradientUnits="userSpaceOnUse">
<stop stop-color="#4B3291"/>
<stop offset="0.0153061" stop-color="#4B3291"/>
<stop offset="0.179208" stop-color="#4B3291"/>
<stop offset="0.515306" stop-color="#3F8AD1"/>
<stop offset="0.791345" stop-color="#523091"/>
<stop offset="1" stop-color="#523091"/>
</linearGradient>
<linearGradient id="paint8_linear_458_7875" x1="28.8305" y1="54.9702" x2="32.136" y2="49.3491" gradientUnits="userSpaceOnUse">
<stop stop-color="#4B3291"/>
<stop offset="0.0153061" stop-color="#4B3291"/>
<stop offset="0.179208" stop-color="#4B3291"/>
<stop offset="0.515306" stop-color="#3F8AD1"/>
<stop offset="0.791345" stop-color="#523091"/>
<stop offset="1" stop-color="#523091"/>
</linearGradient>
<linearGradient id="paint9_linear_458_7875" x1="16.366" y1="46.5269" x2="23.1244" y2="35.0338" gradientUnits="userSpaceOnUse">
<stop stop-color="#4B3291"/>
<stop offset="0.0153061" stop-color="#4B3291"/>
<stop offset="0.179208" stop-color="#4B3291"/>
<stop offset="0.515306" stop-color="#3F8AD1"/>
<stop offset="0.791345" stop-color="#523091"/>
<stop offset="1" stop-color="#523091"/>
</linearGradient>
<linearGradient id="paint10_linear_458_7875" x1="20.2724" y1="71.2384" x2="44.6157" y2="29.841" gradientUnits="userSpaceOnUse">
<stop stop-color="#4B3291"/>
<stop offset="0.0153061" stop-color="#4B3291"/>
<stop offset="0.179208" stop-color="#4B3291"/>
<stop offset="0.515306" stop-color="#3F8AD1"/>
<stop offset="0.791345" stop-color="#523091"/>
<stop offset="1" stop-color="#523091"/>
</linearGradient>
<clipPath id="clip0_458_7875">
<rect width="74.6319" height="86.6692" fill="white" transform="translate(0.496094 0.119141)"/>
</clipPath>
</defs>
</svg>
