<svg xmlns="http://www.w3.org/2000/svg" fill="none" viewBox="22.5162109375 53.06723 246.9140625 133.48" style="max-height: 500px" width="246.9140625" height="133.48">
<path fill="url(#paint0_linear_255_3625)" d="M216.794 104.801L216.785 104.816C216.794 104.809 216.805 104.802 216.815 104.795C216.808 104.796 216.801 104.799 216.794 104.801Z"/>
<path fill="url(#paint1_linear_255_3625)" d="M216.82 104.798C218.153 104.357 219.475 103.878 220.823 103.484C225.039 102.249 229.177 102.248 233.156 104.34C234.413 105.001 235.548 105.843 236.725 106.625C238.187 107.596 239.739 107.86 241.39 107.082C241.905 106.839 242.072 106.638 241.47 106.225C239.13 104.619 236.685 103.208 233.969 102.307C231.652 101.538 229.386 101.124 227.184 101.124C223.542 101.124 220.072 102.257 216.82 104.798Z"/>
<path fill="url(#paint2_linear_255_3625)" d="M218.258 104.833C219.225 104.707 220.187 104.52 221.158 104.464C225.057 104.242 228.591 105.37 231.847 107.382C233.084 108.146 234.302 108.036 235.556 107.539C236.115 107.318 236.279 107.066 235.664 106.615C232.492 104.291 229.19 103.189 225.77 103.189C223.325 103.188 220.82 103.751 218.258 104.833Z"/>
<path fill="url(#paint3_linear_255_3625)" d="M237.987 111.385C237.796 111.54 237.62 111.713 237.439 111.877C237.423 111.871 237.412 111.87 237.405 111.863C237.358 111.821 237.313 111.777 237.268 111.732C236.42 110.887 235.392 110.4 234.183 110.338C232.544 110.255 231.197 110.855 230.178 112.112C229.588 112.841 229.274 113.688 229.226 114.615C229.157 115.961 229.594 117.136 230.571 118.094C232.829 120.31 235.098 122.515 237.363 124.724C237.385 124.745 237.411 124.761 237.438 124.781C237.479 124.744 237.515 124.712 237.549 124.68C239.801 122.48 242.068 120.295 244.3 118.075C245.552 116.829 245.941 115.309 245.457 113.631C244.855 111.548 242.948 110.326 240.972 110.326C239.937 110.326 238.883 110.662 237.987 111.385ZM236.63 116.816C236.898 115.597 237.166 114.384 237.434 113.17C237.446 113.171 237.458 113.171 237.47 113.172C237.713 114.777 237.956 116.384 238.2 117.989C238.209 117.99 238.217 117.991 238.225 117.992C238.303 117.662 238.388 117.334 238.456 117.002C238.486 116.862 238.535 116.797 238.695 116.812C238.794 116.821 238.894 116.819 238.994 116.817C239.075 116.816 239.157 116.813 239.238 116.818C239.347 116.823 239.396 116.787 239.432 116.686C239.61 116.186 239.796 115.689 239.98 115.191C239.997 115.144 240.017 115.098 240.036 115.051C240.047 115.051 240.057 115.05 240.068 115.05C240.259 115.806 240.451 116.563 240.651 117.358C240.747 117.196 240.829 117.065 240.902 116.93C240.946 116.847 241.002 116.812 241.103 116.816L242.608 116.826C242.528 116.971 242.421 117.136 242.321 117.316C242.071 117.322 241.764 117.338 241.457 117.334C241.32 117.332 241.25 117.379 241.186 117.494C240.981 117.864 240.763 118.227 240.55 118.593C240.524 118.637 240.495 118.68 240.447 118.756C240.281 118.103 240.123 117.483 239.954 116.817C239.889 116.984 239.836 117.108 239.793 117.235C239.765 117.317 239.72 117.349 239.63 117.346C239.53 117.342 239.43 117.343 239.33 117.344C239.238 117.344 239.146 117.344 239.054 117.342C238.967 117.339 238.923 117.36 238.902 117.454C238.713 118.279 238.517 119.103 238.325 119.928C238.256 120.222 238.19 120.517 238.122 120.812C238.108 120.811 238.095 120.81 238.081 120.809C237.842 119.236 237.604 117.662 237.364 116.088C237.357 116.087 237.35 116.086 237.342 116.085C237.267 116.425 237.194 116.766 237.115 117.105C237.059 117.347 237.097 117.345 236.91 117.342C236.883 117.342 236.85 117.342 236.813 117.342C236.6 117.345 236.386 117.349 236.174 117.339C236.056 117.335 235.992 117.373 235.937 117.473C235.687 117.926 235.43 118.374 235.175 118.823C235.15 118.867 235.122 118.91 235.073 118.989C234.914 118.199 234.765 117.448 234.615 116.697C234.604 116.693 234.593 116.69 234.582 116.686C234.519 116.85 234.446 117.012 234.396 117.179C234.357 117.308 234.288 117.342 234.155 117.34C233.697 117.332 233.239 117.337 232.803 117.337V116.826C233.129 116.826 233.464 116.819 233.797 116.829C233.931 116.833 233.991 116.79 234.036 116.666C234.252 116.064 234.48 115.465 234.703 114.864C234.715 114.833 234.733 114.803 234.767 114.733C234.954 115.665 235.134 116.556 235.321 117.489C235.444 117.274 235.547 117.1 235.642 116.922C235.685 116.843 235.737 116.812 235.83 116.814C235.944 116.817 236.057 116.818 236.173 116.818C236.322 116.818 236.473 116.816 236.63 116.816Z"/>
<path fill="url(#paint4_linear_255_3625)" d="M213.73 81.2878C197.281 83.9063 183.97 97.1711 181.27 113.178C181.104 114.16 181.119 114.167 182.138 113.833C186.37 112.445 190.706 111.664 195.183 111.715C199.006 111.759 202.705 112.664 206.445 113.28C209.656 113.809 212.847 114.543 216.13 114.438C219.195 114.342 222.093 113.685 224.493 111.653C224.897 111.31 225.382 110.983 225.256 110.366C225.124 109.718 224.543 109.536 223.992 109.383C222.741 109.035 221.474 109.206 220.222 109.365C219.056 109.512 217.943 109.39 216.892 108.899C215.344 108.176 214.97 106.905 215.819 105.449C216.549 104.198 217.611 103.264 218.908 102.651C223.095 100.667 227.473 99.8845 232.091 100.855C235.935 101.662 239.297 103.488 242.543 105.559C243.365 106.084 244.187 106.632 245.169 106.81C246.071 106.972 247.011 106.933 247.56 106.095C248.096 105.279 247.693 104.488 247.187 103.776C246.398 102.668 245.329 101.841 244.239 101.043C237.039 95.7701 228.74 94.3363 220.009 94.5663C215.905 94.6745 211.956 95.7605 208.012 96.7902C203.527 97.9616 199.016 99.0327 194.416 100.033C194.416 99.8874 194.404 99.8497 194.418 99.8269C194.466 99.7481 194.516 99.6694 194.576 99.5993C202.554 90.2487 212.756 85.9739 225.15 87.4197C236.245 88.7138 244.608 94.398 250.222 103.789C253.627 109.485 254.993 115.713 254.466 122.308C254.421 122.875 254.5 123.089 255.168 122.929C257.013 122.488 258.837 121.992 260.631 121.382C261.109 121.218 261.264 120.994 261.253 120.521C261.225 119.254 261.209 117.99 261.105 116.724C260.493 109.301 258.052 102.478 253.383 96.6194C244.965 86.0593 234.302 80.6461 221.56 80.6461C219.031 80.6461 216.421 80.8592 213.73 81.2878Z"/>
<path fill="url(#paint5_linear_255_3625)" d="M200.488 132.797C200.107 132.993 199.935 133.163 200.41 133.495C205.214 136.839 210.369 139.145 216.462 138.565C219.615 138.265 222.453 137.149 224.871 135.073C223.778 135.453 222.695 135.861 221.591 136.208C216.114 137.933 210.989 137.404 206.322 133.919C205.698 133.452 205.019 133.036 204.316 132.693C203.724 132.405 203.128 132.268 202.535 132.268C201.848 132.268 201.163 132.451 200.488 132.797Z"/>
<path fill="url(#paint6_linear_255_3625)" d="M205.863 132.738C210.918 137.282 218.767 137.619 223.828 134.856C222.431 135.219 221.152 135.408 219.857 135.394C216.247 135.355 212.989 134.205 209.957 132.354C209.42 132.026 208.799 131.868 208.181 131.868C207.331 131.868 206.484 132.167 205.863 132.738Z"/>
<mask height="235" width="301" y="0" x="0" maskUnits="userSpaceOnUse" style="mask-type:luminance" id="mask0_255_3625">
<path fill="white" d="M0 0H301V235H0V0Z"/>
</mask>
<g mask="url(#mask0_255_3625)">
<path fill="#5D3D91" d="M36.9553 101.176C37.053 101.25 37.166 101.308 37.2934 101.348C37.4221 101.388 37.555 101.408 37.6931 101.408C37.8264 101.408 37.9598 101.388 38.0928 101.348C38.2206 101.308 38.3387 101.25 38.4461 101.176C38.5485 101.096 38.6305 100.998 38.6921 100.883C38.7537 100.768 38.7842 100.636 38.7842 100.485C38.7842 100.331 38.7537 100.195 38.6921 100.081C38.6305 99.9653 38.5485 99.8708 38.4461 99.7953C38.3387 99.7207 38.2206 99.6631 38.0928 99.6229C37.9598 99.5831 37.8264 99.5632 37.6931 99.5632C37.555 99.5632 37.4221 99.5831 37.2934 99.6229C37.166 99.6631 37.053 99.7207 36.9553 99.7953C36.8529 99.8708 36.7709 99.9653 36.7094 100.081C36.6478 100.195 36.6172 100.331 36.6172 100.485C36.6172 100.636 36.6478 100.768 36.7094 100.883C36.7709 100.998 36.8529 101.096 36.9553 101.176Z"/>
<path fill="#5D3D91" d="M34.3283 101.176C34.4307 101.25 34.5458 101.308 34.6736 101.348C34.8019 101.388 34.9353 101.408 35.0733 101.408C35.2067 101.408 35.3375 101.388 35.465 101.348C35.5983 101.308 35.7168 101.25 35.8192 101.176C35.9216 101.096 36.0061 100.998 36.0723 100.883C36.1335 100.768 36.1645 100.636 36.1645 100.485C36.1645 100.331 36.1335 100.195 36.0723 100.081C36.0061 99.9653 35.9216 99.8708 35.8192 99.7953C35.7168 99.7207 35.5983 99.6631 35.465 99.6229C35.3375 99.5831 35.2067 99.5632 35.0733 99.5632C34.9353 99.5632 34.8019 99.5831 34.6736 99.6229C34.5458 99.6631 34.4307 99.7207 34.3283 99.7953C34.2306 99.8708 34.1487 99.9653 34.0824 100.081C34.0208 100.195 33.9902 100.331 33.9902 100.485C33.9902 100.636 34.0208 100.768 34.0824 100.883C34.1487 100.998 34.2306 101.096 34.3283 101.176Z"/>
<path fill="#5D3D91" d="M46.1093 111.411C45.8167 111.411 45.5686 111.488 45.3635 111.643C45.1379 111.813 45.0254 112.04 45.0254 112.326C45.0254 112.61 45.1379 112.841 45.3635 113.016C45.564 113.176 45.812 113.256 46.1093 113.256C46.3965 113.256 46.6445 113.176 46.8543 113.016C47.0799 112.841 47.1924 112.61 47.1924 112.326C47.1924 112.036 47.082 111.81 46.8624 111.651C46.6424 111.491 46.3909 111.411 46.1093 111.411Z"/>
<path fill="#5D3D91" d="M43.4747 111.411C43.1876 111.411 42.9417 111.488 42.737 111.643C42.5114 111.813 42.3984 112.04 42.3984 112.326C42.3984 112.61 42.5114 112.841 42.737 113.016C42.937 113.176 43.1821 113.256 43.4747 113.256C43.7665 113.256 44.018 113.176 44.2278 113.016C44.4529 112.841 44.5659 112.61 44.5659 112.326C44.5659 112.036 44.4555 111.81 44.2355 111.651C44.0146 111.491 43.7619 111.411 43.4747 111.411Z"/>
<path fill="#5D3D91" d="M49.9435 111.411C49.6564 111.411 49.4083 111.488 49.1976 111.643C48.9776 111.813 48.8672 112.04 48.8672 112.326C48.8672 112.61 48.9776 112.841 49.1976 113.016C49.4028 113.176 49.6508 113.256 49.9435 113.256C50.2306 113.256 50.4787 113.176 50.6885 113.016C50.9196 112.841 51.0347 112.61 51.0347 112.326C51.0347 112.036 50.9242 111.81 50.7042 111.651C50.4833 111.491 50.2306 111.411 49.9435 111.411Z"/>
<path fill="#5D3D91" d="M62.7271 107.227C62.6268 107.492 62.485 107.718 62.3006 107.905C62.1163 108.093 61.8916 108.237 61.6283 108.337C61.3641 108.437 61.0706 108.487 60.7482 108.487H56.5598V105.78C56.5598 105.255 56.6906 104.856 56.9518 104.583C57.2126 104.311 57.5745 104.175 58.0358 104.175H60.7482C61.0706 104.175 61.3641 104.227 61.6283 104.333C61.8916 104.437 62.1163 104.585 62.3006 104.775C62.485 104.965 62.6268 105.192 62.7271 105.457C62.8265 105.722 62.877 106.014 62.877 106.334C62.877 106.664 62.8265 106.962 62.7271 107.227ZM38.523 106.327C38.523 106.647 38.472 106.94 38.3692 107.204C38.2668 107.475 38.1258 107.702 37.947 107.887C37.7623 108.077 37.5367 108.225 37.2704 108.329C37.0096 108.439 36.717 108.495 36.3946 108.495C36.0815 108.495 35.7944 108.439 35.5336 108.329C35.2728 108.225 35.0473 108.077 34.8574 107.887C34.668 107.702 34.5189 107.475 34.4119 107.204C34.3095 106.94 34.2581 106.647 34.2581 106.327C34.2581 106.012 34.3095 105.725 34.4119 105.465C34.5189 105.205 34.6659 104.977 34.8493 104.782C35.0337 104.587 35.2592 104.437 35.526 104.333C35.7876 104.227 36.0743 104.175 36.3865 104.175H38.531L38.523 106.327ZM68.0555 106.882C68.0555 107.407 67.9255 107.807 67.6639 108.082C67.4086 108.351 67.0531 108.487 66.6016 108.492C66.5914 108.492 66.5829 108.487 66.5727 108.487C66.1123 108.487 65.7504 108.352 65.4896 108.082C65.2284 107.807 65.0976 107.407 65.0976 106.882V106.334C65.0976 105.695 64.9897 105.125 64.7744 104.625C64.5645 104.13 64.2676 103.713 63.8837 103.372C63.5044 103.032 63.0478 102.772 62.516 102.592C61.9829 102.418 61.3934 102.33 60.7482 102.33H58.0358C57.4411 102.33 56.9187 102.418 56.4676 102.592L56.4209 102.608V99.5625H53.5704V101.415H54.3541V108.487H52.5328V108.495C52.0719 108.495 51.7105 108.357 51.4488 108.082C51.188 107.812 51.0572 107.415 51.0572 106.89V105.097H51.9645V103.252H48.8672L48.8591 106.785C48.8591 107.374 48.7237 107.805 48.4522 108.075C48.1804 108.345 47.8219 108.48 47.3764 108.48V108.495C46.9151 108.495 46.5541 108.357 46.2924 108.082C46.0312 107.812 45.9004 107.415 45.9004 106.89V105.097H46.8081V103.252H43.7104L43.7027 106.785C43.7027 107.374 43.5668 107.805 43.2958 108.075C43.024 108.345 42.6651 108.48 42.2195 108.48V108.495C41.7532 108.495 41.3896 108.357 41.1288 108.082C40.8667 107.807 40.7359 107.407 40.7359 106.882V102.33H36.3865C35.7464 102.33 35.1624 102.42 34.6349 102.6C34.0967 102.785 33.6354 103.048 33.2515 103.387C32.8666 103.733 32.5702 104.152 32.3599 104.647C32.1446 105.142 32.0371 105.702 32.0371 106.327C32.0371 106.967 32.1446 107.537 32.3599 108.037C32.5702 108.537 32.8666 108.957 33.2515 109.297C33.6354 109.632 34.0967 109.89 34.6349 110.07C35.1671 110.249 35.7536 110.34 36.3946 110.34C37.0347 110.34 37.6238 110.249 38.1619 110.07C38.6691 109.9 39.1074 109.657 39.4761 109.342L39.4833 109.35C39.7964 109.66 40.1858 109.902 40.6518 110.077C41.0978 110.247 41.6126 110.334 42.1962 110.34H42.2195C42.2679 110.34 42.3083 110.321 42.3537 110.315C42.8715 110.303 43.346 110.234 43.7639 110.092C44.1691 109.952 44.5199 109.754 44.8173 109.5C45.0942 109.74 45.4242 109.932 45.8082 110.077C46.2546 110.242 46.766 110.33 47.3454 110.34H47.384C47.4324 110.34 47.4736 110.321 47.5195 110.314C48.0334 110.302 48.5049 110.233 48.9207 110.092C49.3259 109.952 49.6768 109.754 49.9741 109.5C50.2506 109.74 50.5811 109.932 50.965 110.077C51.411 110.242 51.9228 110.33 52.5022 110.34H52.5328H52.5408H60.7482C61.3934 110.34 61.9829 110.249 62.516 110.07C63.0227 109.9 63.461 109.657 63.8293 109.342L63.8369 109.35C64.1547 109.66 64.5441 109.902 65.0054 110.077C65.451 110.247 65.9658 110.334 66.5498 110.34H66.5727C67.1669 110.334 67.6936 110.246 68.1519 110.073C68.6107 109.9 68.9959 109.66 69.3081 109.35C69.6211 109.04 69.8577 108.671 70.0195 108.243C70.1809 107.816 70.2612 107.352 70.2612 106.852V100.485H68.0555V106.882Z"/>
<path fill="#5D3D91" d="M73.368 100.477H71.3008V110.332H74.1517V108.487H73.368V100.477Z"/>
<path fill="#5D3D91" d="M78.8361 103.244C79.1287 103.244 79.3793 103.164 79.5891 103.004C79.8143 102.83 79.9272 102.6 79.9272 102.314C79.9272 102.025 79.8177 101.799 79.5968 101.639C79.3768 101.479 79.1232 101.399 78.8361 101.399C78.5489 101.399 78.303 101.477 78.0983 101.632C77.8727 101.802 77.7598 102.029 77.7598 102.314C77.7598 102.6 77.8727 102.83 78.0983 103.004C78.2983 103.164 78.5443 103.244 78.8361 103.244Z"/>
<path fill="#5D3D91" d="M81.4707 103.244C81.7625 103.244 82.0105 103.164 82.2157 103.004C82.4467 102.83 82.5618 102.6 82.5618 102.314C82.5618 102.025 82.4514 101.799 82.2314 101.639C82.0105 101.479 81.7578 101.399 81.4707 101.399C81.1789 101.399 80.93 101.477 80.7248 101.632C80.4993 101.802 80.3867 102.029 80.3867 102.314C80.3867 102.6 80.4993 102.83 80.7248 103.004C80.9253 103.164 81.1733 103.244 81.4707 103.244Z"/>
<path fill="#5D3D91" d="M83.3789 106.792C83.3789 107.382 83.2434 107.812 82.972 108.082C82.7002 108.351 82.3413 108.487 81.8962 108.487H80.3815C79.9211 108.487 79.5533 108.351 79.2793 108.082C79.0053 107.812 78.8681 107.377 78.8681 106.777V104.175H76.6777V106.777C76.6777 107.942 77.0061 108.829 77.6619 109.44C78.302 110.034 79.2084 110.332 80.3815 110.332H81.8962C82.47 110.332 82.9831 110.254 83.4363 110.099C83.8899 109.944 84.2786 109.716 84.6009 109.413C84.9233 109.111 85.1671 108.741 85.3311 108.303C85.495 107.866 85.577 107.362 85.577 106.792V104.175H86.4834V102.33H83.3789V106.792Z"/>
<path fill="#5D3D91" d="M99.0181 107.205C98.9179 107.47 98.776 107.697 98.5917 107.887C98.4074 108.077 98.1827 108.225 97.9193 108.33C97.6551 108.435 97.3616 108.487 97.0393 108.487C96.7262 108.487 96.4395 108.435 96.1783 108.33C95.9167 108.225 95.6911 108.077 95.5021 107.887C95.3131 107.697 95.1653 107.47 95.0608 107.205C94.955 106.94 94.9028 106.648 94.9028 106.328C94.9028 106.012 94.955 105.725 95.0608 105.465C95.1653 105.205 95.3097 104.978 95.494 104.782C95.6788 104.588 95.9043 104.438 96.1707 104.333C96.437 104.227 96.7262 104.175 97.0393 104.175C97.3616 104.175 97.6551 104.227 97.9193 104.329C98.1827 104.431 98.4057 104.575 98.5879 104.76C98.7688 104.945 98.9115 105.171 99.0143 105.438C99.1167 105.706 99.1681 106.002 99.1681 106.328C99.1681 106.648 99.1175 106.94 99.0181 107.205ZM100.175 103.381C99.7954 103.035 99.3367 102.775 98.799 102.6C98.2659 102.42 97.6794 102.33 97.0393 102.33C96.3983 102.33 95.8117 102.42 95.2791 102.6C94.7461 102.785 94.2856 103.048 93.8961 103.387C93.5113 103.733 93.2144 104.153 93.0046 104.647C92.7893 105.142 92.6822 105.702 92.6822 106.328V106.89C92.6822 107.415 92.5514 107.813 92.2898 108.083C92.0345 108.351 91.6819 108.487 91.2355 108.493C91.2249 108.492 91.2169 108.487 91.2062 108.487C90.7454 108.487 90.3839 108.352 90.1231 108.083C89.8615 107.807 89.7315 107.407 89.7315 106.882V100.493H87.5254V106.853C87.5254 107.352 87.6052 107.817 87.7637 108.247C87.923 108.672 88.1608 109.04 88.4785 109.35C88.7907 109.66 89.1781 109.902 89.6389 110.078C90.0947 110.247 90.6175 110.332 91.2062 110.332V110.34C91.8009 110.334 92.3233 110.247 92.7744 110.078C93.2348 109.902 93.6243 109.66 93.942 109.35L93.9497 109.342C94.3234 109.658 94.7664 109.9 95.2791 110.07C95.8117 110.25 96.3983 110.34 97.0393 110.34C97.6794 110.34 98.2659 110.25 98.799 110.07C99.3367 109.89 99.7954 109.632 100.175 109.297C100.554 108.957 100.851 108.538 101.066 108.037C101.276 107.537 101.381 106.967 101.381 106.328C101.381 105.698 101.276 105.132 101.066 104.633C100.851 104.137 100.554 103.72 100.175 103.381Z"/>
<path fill="#5D3D91" d="M113.493 101.408C113.786 101.408 114.034 101.331 114.239 101.176C114.469 101 114.584 100.77 114.584 100.486C114.584 100.196 114.474 99.9694 114.254 99.8074C114.034 99.6449 113.78 99.5632 113.493 99.5632C113.201 99.5632 112.953 99.6411 112.748 99.7957C112.523 99.9657 112.41 100.196 112.41 100.486C112.41 100.766 112.523 100.996 112.748 101.176C112.948 101.331 113.196 101.408 113.493 101.408Z"/>
<path fill="#5D3D91" d="M120.673 106.882C120.673 107.407 120.543 107.807 120.282 108.082C120.026 108.351 119.671 108.487 119.22 108.493C119.21 108.492 119.201 108.487 119.191 108.487C118.724 108.487 118.361 108.352 118.099 108.082C117.838 107.807 117.707 107.407 117.707 106.882V106.328C117.707 105.692 117.603 105.127 117.393 104.633C117.178 104.137 116.88 103.717 116.501 103.373C116.122 103.032 115.665 102.772 115.133 102.593C114.595 102.418 114.006 102.33 113.366 102.33C112.725 102.33 112.138 102.42 111.606 102.6C111.452 102.655 111.304 102.715 111.16 102.78V105.585H113.366V104.175C113.688 104.175 113.98 104.225 114.242 104.325C114.508 104.43 114.734 104.575 114.918 104.76C115.103 104.945 115.243 105.17 115.341 105.435C115.443 105.7 115.495 105.998 115.495 106.328C115.495 106.648 115.443 106.94 115.341 107.205C115.243 107.47 115.103 107.697 114.918 107.887C114.734 108.077 114.508 108.225 114.242 108.329C113.98 108.435 113.688 108.487 113.366 108.487H111.16H111.159C110.698 108.487 110.337 108.352 110.076 108.082C109.815 107.807 109.684 107.407 109.684 106.882V106.334C109.684 105.695 109.576 105.125 109.361 104.625C109.152 104.125 108.854 103.707 108.47 103.373C108.091 103.032 107.635 102.772 107.102 102.593C106.569 102.418 105.98 102.33 105.334 102.33H103.882V104.175H105.342C105.66 104.175 105.952 104.227 106.218 104.333C106.485 104.437 106.708 104.585 106.887 104.775C107.071 104.965 107.214 105.192 107.317 105.458C107.415 105.722 107.464 106.014 107.464 106.334C107.464 106.665 107.415 106.962 107.317 107.227C107.214 107.493 107.071 107.717 106.887 107.903C106.708 108.093 106.485 108.237 106.218 108.337C105.952 108.437 105.66 108.487 105.342 108.487H102.422V110.34H105.334C105.98 110.34 106.569 110.25 107.102 110.07C107.609 109.9 108.047 109.654 108.416 109.334L108.432 109.35C108.744 109.66 109.131 109.902 109.592 110.077C110.038 110.247 110.552 110.334 111.136 110.34H111.159H111.16H113.366C114.006 110.34 114.595 110.25 115.133 110.07C115.64 109.9 116.079 109.658 116.448 109.342L116.455 109.35C116.768 109.66 117.157 109.902 117.623 110.077C118.069 110.247 118.583 110.334 119.167 110.34H119.191C119.785 110.334 120.312 110.246 120.769 110.074C121.228 109.9 121.614 109.66 121.926 109.35C122.239 109.04 122.475 108.671 122.637 108.243C122.799 107.816 122.879 107.352 122.879 106.853V100.485H120.673V106.882Z"/>
<path fill="#5D3D91" d="M125.977 100.477H123.91V110.332H126.761V108.487H125.977V100.477Z"/>
<path fill="#5D3D91" d="M134.211 101.176C134.309 101.25 134.422 101.308 134.549 101.348C134.678 101.388 134.811 101.408 134.949 101.408C135.082 101.408 135.216 101.388 135.349 101.348C135.476 101.308 135.595 101.25 135.702 101.176C135.804 101.096 135.886 100.998 135.948 100.883C136.01 100.768 136.04 100.636 136.04 100.485C136.04 100.331 136.01 100.195 135.948 100.081C135.886 99.9653 135.804 99.8708 135.702 99.7953C135.595 99.7207 135.476 99.6631 135.349 99.6229C135.216 99.5831 135.082 99.5632 134.949 99.5632C134.811 99.5632 134.678 99.5831 134.549 99.6229C134.422 99.6631 134.309 99.7207 134.211 99.7953C134.109 99.8708 134.027 99.9653 133.965 100.081C133.904 100.195 133.873 100.331 133.873 100.485C133.873 100.636 133.904 100.768 133.965 100.883C134.027 100.998 134.109 101.096 134.211 101.176Z"/>
<path fill="#5D3D91" d="M131.59 101.176C131.692 101.25 131.808 101.308 131.935 101.348C132.064 101.388 132.197 101.408 132.335 101.408C132.468 101.408 132.599 101.388 132.727 101.348C132.86 101.308 132.979 101.25 133.081 101.176C133.183 101.096 133.268 100.998 133.334 100.883C133.395 100.768 133.426 100.636 133.426 100.485C133.426 100.331 133.395 100.195 133.334 100.081C133.268 99.9653 133.183 99.8708 133.081 99.7953C132.979 99.7207 132.86 99.6631 132.727 99.6229C132.599 99.5831 132.468 99.5632 132.335 99.5632C132.197 99.5632 132.064 99.5831 131.935 99.6229C131.808 99.6631 131.692 99.7207 131.59 99.7953C131.492 99.8708 131.41 99.9653 131.344 100.081C131.283 100.195 131.252 100.331 131.252 100.485C131.252 100.636 131.283 100.768 131.344 100.883C131.41 100.998 131.492 101.096 131.59 101.176Z"/>
<path fill="#5D3D91" d="M143.359 111.411C143.067 111.411 142.819 111.488 142.613 111.643C142.388 111.813 142.275 112.04 142.275 112.326C142.275 112.61 142.388 112.841 142.613 113.016C142.814 113.176 143.062 113.256 143.359 113.256C143.646 113.256 143.895 113.176 144.104 113.016C144.33 112.841 144.442 112.61 144.442 112.326C144.442 112.036 144.332 111.81 144.112 111.651C143.892 111.491 143.641 111.411 143.359 111.411Z"/>
<path fill="#5D3D91" d="M140.731 111.411C140.443 111.411 140.198 111.488 139.993 111.643C139.767 111.813 139.654 112.04 139.654 112.326C139.654 112.61 139.767 112.841 139.993 113.016C140.193 113.176 140.438 113.256 140.731 113.256C141.022 113.256 141.274 113.176 141.484 113.016C141.709 112.841 141.822 112.61 141.822 112.326C141.822 112.036 141.711 111.81 141.491 111.651C141.27 111.491 141.018 111.411 140.731 111.411Z"/>
<path fill="#5D3D91" d="M165.672 111.411C165.385 111.411 165.139 111.488 164.934 111.643C164.709 111.813 164.596 112.04 164.596 112.326C164.596 112.61 164.709 112.841 164.934 113.016C165.134 113.176 165.379 113.256 165.672 113.256C165.964 113.256 166.215 113.176 166.425 113.016C166.65 112.846 166.763 112.616 166.763 112.326C166.763 112.036 166.653 111.81 166.433 111.651C166.212 111.491 165.959 111.411 165.672 111.411Z"/>
<path fill="#5D3D91" d="M160.48 107.205C160.38 107.47 160.238 107.697 160.053 107.887C159.869 108.077 159.644 108.225 159.381 108.33C159.117 108.435 158.823 108.487 158.501 108.487C158.188 108.487 157.901 108.435 157.64 108.33C157.378 108.225 157.153 108.077 156.964 107.887C156.775 107.697 156.627 107.47 156.522 107.205C156.417 106.94 156.364 106.648 156.364 106.328C156.364 106.012 156.417 105.725 156.522 105.465C156.627 105.205 156.771 104.978 156.956 104.782C157.14 104.588 157.366 104.438 157.632 104.333C157.899 104.227 158.188 104.175 158.501 104.175C158.823 104.175 159.117 104.227 159.381 104.329C159.644 104.431 159.867 104.575 160.05 104.76C160.23 104.945 160.373 105.171 160.476 105.438C160.578 105.706 160.63 106.002 160.63 106.328C160.63 106.648 160.579 106.94 160.48 107.205ZM135.785 106.328C135.785 106.648 135.733 106.94 135.631 107.205C135.529 107.475 135.387 107.703 135.208 107.887C135.024 108.077 134.798 108.225 134.532 108.33C134.271 108.44 133.979 108.495 133.656 108.495C133.343 108.495 133.056 108.44 132.795 108.33C132.534 108.225 132.309 108.077 132.119 107.887C131.93 107.703 131.781 107.475 131.674 107.205C131.571 106.94 131.52 106.648 131.52 106.328C131.52 106.012 131.571 105.725 131.674 105.465C131.781 105.205 131.927 104.978 132.111 104.782C132.295 104.588 132.521 104.438 132.787 104.333C133.049 104.227 133.336 104.175 133.648 104.175H135.793L135.785 106.328ZM170.555 104.633C170.342 104.137 170.046 103.719 169.667 103.376C169.288 103.034 168.831 102.774 168.296 102.596C167.76 102.418 167.172 102.33 166.532 102.33C165.707 102.33 164.972 102.48 164.326 102.78V105.585H166.532V104.175C166.854 104.175 167.148 104.227 167.412 104.329C167.675 104.431 167.9 104.575 168.084 104.76C168.269 104.945 168.411 105.17 168.511 105.435C168.61 105.7 168.66 105.998 168.66 106.328C168.66 106.648 168.61 106.94 168.511 107.205C168.411 107.47 168.269 107.697 168.084 107.887C167.9 108.077 167.675 108.225 167.412 108.33C167.148 108.435 166.854 108.487 166.532 108.487H164.326V108.495C163.86 108.495 163.496 108.357 163.234 108.083C162.973 107.813 162.843 107.415 162.843 106.89V106.328C162.843 105.698 162.738 105.132 162.528 104.633C162.313 104.137 162.016 103.72 161.636 103.381C161.257 103.035 160.798 102.775 160.261 102.6C159.728 102.42 159.141 102.33 158.501 102.33C157.86 102.33 157.273 102.42 156.741 102.6C156.208 102.785 155.747 103.048 155.358 103.387C154.973 103.733 154.676 104.153 154.466 104.647C154.251 105.142 154.144 105.702 154.144 106.328V106.89C154.144 107.415 154.013 107.813 153.751 108.083C153.49 108.357 153.129 108.495 152.668 108.495L148.987 108.487C148.665 108.487 148.37 108.435 148.104 108.33C147.842 108.225 147.619 108.077 147.435 107.887C147.25 107.697 147.107 107.47 147.004 107.205C146.907 106.94 146.859 106.648 146.859 106.328C146.859 105.998 146.907 105.7 147.004 105.435C147.107 105.17 147.25 104.945 147.435 104.76C147.619 104.575 147.842 104.43 148.104 104.325C148.37 104.225 148.665 104.175 148.987 104.175V105.585H151.193V102.78C151.05 102.715 150.901 102.655 150.748 102.6C150.215 102.42 149.628 102.33 148.987 102.33C148.341 102.33 147.753 102.418 147.22 102.593C146.687 102.772 146.231 103.035 145.852 103.381C145.468 103.72 145.171 104.137 144.96 104.633C144.745 105.128 144.638 105.692 144.638 106.328C144.638 106.967 144.745 107.537 144.96 108.037C145.027 108.197 145.104 108.347 145.191 108.487H144.638V108.495C144.177 108.495 143.816 108.357 143.554 108.083C143.293 107.813 143.162 107.415 143.162 106.89V105.097H144.069V103.252H140.972L140.964 106.785C140.964 107.375 140.829 107.805 140.558 108.075C140.285 108.345 139.927 108.48 139.481 108.48V108.495C139.014 108.495 138.651 108.357 138.39 108.083C138.128 107.807 137.998 107.407 137.998 106.882V102.33H133.648C133.008 102.33 132.424 102.42 131.897 102.6C131.358 102.785 130.897 103.048 130.513 103.387C130.128 103.733 129.832 104.153 129.621 104.647C129.406 105.142 129.299 105.702 129.299 106.328C129.299 106.967 129.406 107.537 129.621 108.037C129.832 108.538 130.128 108.957 130.513 109.297C130.897 109.632 131.358 109.89 131.897 110.07C132.429 110.25 133.015 110.34 133.656 110.34C134.296 110.34 134.885 110.25 135.424 110.07C135.93 109.9 136.369 109.658 136.738 109.342L136.745 109.35C137.058 109.66 137.447 109.902 137.913 110.078C138.359 110.247 138.874 110.334 139.457 110.34H139.481C139.529 110.34 139.57 110.321 139.615 110.315C140.133 110.303 140.607 110.234 141.026 110.092C141.431 109.952 141.782 109.755 142.079 109.5C142.356 109.74 142.686 109.932 143.07 110.078C143.516 110.242 144.028 110.33 144.607 110.34H144.638H144.646H152.669H152.67C153.263 110.334 153.785 110.247 154.236 110.078C154.696 109.902 155.086 109.66 155.404 109.35L155.411 109.342C155.785 109.658 156.228 109.9 156.741 110.07C157.273 110.25 157.86 110.34 158.501 110.34C159.141 110.34 159.728 110.25 160.261 110.07C160.773 109.9 161.214 109.658 161.583 109.342L161.59 109.35C161.903 109.66 162.292 109.902 162.758 110.078C163.209 110.247 163.726 110.334 164.311 110.34H164.326H166.532C167.172 110.34 167.76 110.25 168.296 110.07C168.831 109.89 169.288 109.631 169.667 109.294C170.046 108.956 170.342 108.538 170.555 108.037C170.767 107.537 170.873 106.967 170.873 106.328C170.873 105.692 170.767 105.128 170.555 104.633Z"/>
<path fill="#5D3D91" d="M34.4603 119.53C34.5686 119.609 34.6901 119.67 34.8247 119.712C34.9602 119.755 35.1008 119.775 35.2465 119.775C35.3871 119.775 35.5251 119.755 35.6602 119.712C35.8008 119.67 35.9252 119.609 36.0336 119.53C36.1419 119.446 36.2306 119.343 36.3007 119.222C36.3657 119.1 36.398 118.96 36.398 118.802C36.398 118.639 36.3657 118.496 36.3007 118.375C36.2306 118.253 36.1419 118.153 36.0336 118.074C35.9252 117.995 35.8008 117.934 35.6602 117.892C35.5251 117.85 35.3871 117.828 35.2465 117.828C35.1008 117.828 34.9602 117.85 34.8247 117.892C34.6901 117.934 34.5686 117.995 34.4603 118.074C34.3571 118.153 34.2704 118.253 34.2008 118.375C34.1358 118.496 34.1035 118.639 34.1035 118.802C34.1035 118.96 34.1358 119.1 34.2008 119.222C34.2704 119.343 34.3571 119.446 34.4603 119.53Z"/>
<path fill="#5D3D91" d="M37.2259 119.53C37.3291 119.609 37.4481 119.67 37.5827 119.712C37.7186 119.755 37.8592 119.775 38.0045 119.775C38.1455 119.775 38.2861 119.755 38.4267 119.712C38.5613 119.67 38.6862 119.609 38.7992 119.53C38.9075 119.446 38.9937 119.343 39.0587 119.222C39.1237 119.1 39.156 118.96 39.156 118.802C39.156 118.639 39.1237 118.496 39.0587 118.375C38.9937 118.253 38.9075 118.153 38.7992 118.074C38.6862 117.995 38.5613 117.934 38.4267 117.892C38.2861 117.85 38.1455 117.828 38.0045 117.828C37.8592 117.828 37.7186 117.85 37.5827 117.892C37.4481 117.934 37.3291 117.995 37.2259 118.074C37.1176 118.153 37.0314 118.253 36.9664 118.375C36.9014 118.496 36.8691 118.639 36.8691 118.802C36.8691 118.96 36.9014 119.1 36.9664 119.222C37.0314 119.343 37.1176 119.446 37.2259 119.53Z"/>
<path fill="#5D3D91" d="M44.1045 130.334C43.8017 130.334 43.5422 130.416 43.326 130.58C43.0877 130.759 42.9688 130.998 42.9688 131.3C42.9688 131.6 43.0877 131.843 43.326 132.028C43.5371 132.197 43.7957 132.281 44.1045 132.281C44.4125 132.281 44.6779 132.197 44.8992 132.028C45.1371 131.843 45.256 131.6 45.256 131.3C45.256 130.994 45.1396 130.756 44.9073 130.588C44.6745 130.419 44.4074 130.334 44.1045 130.334Z"/>
<path fill="#5D3D91" d="M46.886 130.334C46.5772 130.334 46.3152 130.416 46.099 130.58C45.8611 130.759 45.7422 130.998 45.7422 131.3C45.7422 131.6 45.8611 131.843 46.099 132.028C46.3105 132.197 46.5726 132.281 46.886 132.281C47.1889 132.281 47.4509 132.197 47.6722 132.028C47.9101 131.843 48.029 131.6 48.029 131.3C48.029 130.994 47.9126 130.756 47.6807 130.588C47.4484 130.419 47.1829 130.334 46.886 130.334Z"/>
<path fill="#5D3D91" d="M38.8819 124.969C38.8819 125.307 38.8279 125.615 38.7196 125.894C38.6113 126.18 38.4627 126.42 38.2736 126.615C38.0791 126.815 37.8413 126.971 37.5596 127.082C37.2844 127.198 36.9756 127.256 36.6354 127.256C36.305 127.256 36.0025 127.198 35.7269 127.082C35.4516 126.971 35.2138 126.815 35.0129 126.615C34.8132 126.42 34.6561 126.18 34.5431 125.894C34.4348 125.615 34.3809 125.307 34.3809 124.969C34.3809 124.636 34.4348 124.333 34.5431 124.059C34.6561 123.784 34.8107 123.544 35.0048 123.338C35.1993 123.132 35.4372 122.974 35.7188 122.864C35.9949 122.752 36.2977 122.697 36.6273 122.697H38.8904L38.8819 124.969ZM50.9502 121.031C50.3878 121.218 49.9053 121.493 49.5022 121.854C49.0996 122.216 48.7861 122.657 48.5622 123.18C48.3376 123.702 48.2254 124.298 48.2254 124.969C48.2254 125.844 48.42 126.604 48.8095 127.248H48.2254V127.256C47.7387 127.256 47.3577 127.111 47.0812 126.821C46.8059 126.536 46.6679 126.116 46.6679 125.562V123.671H47.6253V121.724H44.3564L44.3484 125.451C44.3484 126.074 44.2052 126.528 43.9189 126.813C43.6318 127.098 43.2534 127.24 42.7832 127.24V127.256C42.2905 127.256 41.9069 127.111 41.6317 126.821C41.3556 126.53 41.2171 126.108 41.2171 125.554V120.75H36.6273C35.9516 120.75 35.3348 120.845 34.7784 121.035C34.2101 121.23 33.7233 121.507 33.3181 121.865C32.9121 122.23 32.5995 122.673 32.3773 123.196C32.1501 123.717 32.0371 124.309 32.0371 124.969C32.0371 125.644 32.1501 126.245 32.3773 126.773C32.5995 127.301 32.9121 127.744 33.3181 128.103C33.7233 128.456 34.2101 128.728 34.7784 128.918C35.3399 129.108 35.9592 129.203 36.6354 129.203C37.3112 129.203 37.9326 129.108 38.5009 128.918C39.0356 128.739 39.4982 128.483 39.8877 128.15L39.8953 128.158C40.2258 128.486 40.6365 128.741 41.1284 128.926C41.5994 129.105 42.1426 129.198 42.7581 129.203H42.7832C42.8341 129.203 42.8766 129.183 42.9246 129.177C43.4713 129.165 43.9716 129.092 44.4129 128.942C44.8406 128.794 45.211 128.586 45.5245 128.316C45.8167 128.57 46.1654 128.773 46.5706 128.926C47.0412 129.1 47.5815 129.193 48.1927 129.203H48.2254H48.2335H55.1433V127.248H52.8156C52.475 127.248 52.1658 127.193 51.8867 127.082C51.6081 126.971 51.3719 126.815 51.1774 126.615C50.9824 126.414 50.8329 126.175 50.7272 125.894C50.6223 125.615 50.5692 125.307 50.5692 124.969C50.5692 124.621 50.6223 124.306 50.7272 124.027C50.8329 123.747 50.9824 123.51 51.1774 123.314C51.3719 123.119 51.6081 122.967 51.8867 122.859C52.1658 122.751 52.475 122.697 52.8156 122.697V124.185H55.1433V121.225C54.4569 120.908 53.6809 120.75 52.8156 120.75C52.1339 120.75 51.5125 120.843 50.9502 121.031Z"/>
<path fill="#5D3D91" d="M85.6748 120.748C85.9828 120.748 86.2482 120.663 86.4695 120.495C86.7074 120.31 86.8263 120.067 86.8263 119.766C86.8263 119.46 86.7099 119.223 86.4776 119.054C86.2448 118.885 85.9777 118.801 85.6748 118.801C85.372 118.801 85.1125 118.883 84.8963 119.046C84.658 119.226 84.5391 119.466 84.5391 119.766C84.5391 120.067 84.658 120.31 84.8963 120.495C85.1074 120.663 85.366 120.748 85.6748 120.748Z"/>
<path fill="#5D3D91" d="M88.4388 120.748C88.7416 120.748 89.0037 120.663 89.225 120.495C89.4628 120.31 89.5818 120.067 89.5818 119.766C89.5818 119.46 89.4654 119.223 89.2335 119.054C89.0011 118.885 88.7357 118.801 88.4388 118.801C88.13 118.801 87.8679 118.883 87.6517 119.046C87.4139 119.226 87.2949 119.466 87.2949 119.766C87.2949 120.067 87.4139 120.31 87.6517 120.495C87.8628 120.663 88.1253 120.748 88.4388 120.748Z"/>
<path fill="#5D3D91" d="M80.2888 125.918C80.183 126.198 80.0335 126.437 79.8386 126.634C79.644 126.832 79.407 126.984 79.1288 127.09C78.8502 127.195 78.541 127.248 78.2003 127.248H73.78V124.39C73.78 123.836 73.9181 123.415 74.1937 123.128C74.4689 122.84 74.8508 122.697 75.3375 122.697H78.2003C78.541 122.697 78.8502 122.752 79.1288 122.863C79.407 122.973 79.644 123.129 79.8386 123.33C80.0335 123.531 80.183 123.77 80.2888 124.05C80.3937 124.329 80.4468 124.638 80.4468 124.976C80.4468 125.324 80.3937 125.638 80.2888 125.918ZM62.915 125.894C62.8101 126.174 62.661 126.414 62.469 126.615C62.2766 126.815 62.0405 126.971 61.7593 127.081C61.4781 127.192 61.1676 127.248 60.8266 127.248C60.4969 127.248 60.1941 127.192 59.9189 127.081C59.6428 126.971 59.4045 126.815 59.2049 126.615C59.0044 126.414 58.8489 126.174 58.7381 125.894C58.6276 125.615 58.572 125.306 58.572 124.969C58.572 124.636 58.6276 124.331 58.7381 124.054C58.8489 123.776 59.0035 123.537 59.2006 123.334C59.3981 123.131 59.636 122.973 59.9146 122.863C60.1924 122.752 60.4995 122.697 60.835 122.697C61.1702 122.697 61.4781 122.751 61.7593 122.859C62.0405 122.967 62.2766 123.119 62.469 123.314C62.661 123.509 62.8101 123.747 62.915 124.027C63.0204 124.306 63.073 124.62 63.073 124.969C63.073 125.306 63.0204 125.615 62.915 125.894ZM91.3543 125.554C91.3543 126.108 91.2171 126.53 90.941 126.821C90.6658 127.11 90.2814 127.256 89.7895 127.256C89.3027 127.256 88.9218 127.11 88.6452 126.821C88.37 126.536 88.232 126.116 88.232 125.562V123.67H89.1898V121.723H85.9205L85.9124 125.451C85.9124 126.074 85.7693 126.528 85.483 126.813C85.1959 127.097 84.8174 127.24 84.3472 127.24V127.248C83.8613 127.248 83.4795 127.105 83.2043 126.821C82.9286 126.53 82.7906 126.108 82.7906 125.554V124.976C82.7906 124.301 82.6767 123.699 82.4495 123.172C82.2282 122.649 81.9147 122.209 81.5095 121.85C81.109 121.491 80.6273 121.216 80.0658 121.027C79.5034 120.842 78.8812 120.75 78.2003 120.75H75.3375C74.7102 120.75 74.1585 120.842 73.6827 121.027L73.6335 121.043V117.829H70.625V119.784H71.452V127.248H69.53V127.256C69.0432 127.256 66.1066 127.11 65.8309 126.821C65.5548 126.536 65.4176 126.116 65.4176 125.562V124.969C65.4176 124.298 65.3034 123.702 65.0766 123.18C64.8553 122.657 64.5439 122.217 64.1438 121.858C63.7386 121.493 63.2544 121.216 62.692 121.027C62.1297 120.842 61.5104 120.75 60.835 120.75C60.1533 120.75 59.5319 120.845 58.9696 121.034C58.4072 121.225 57.9238 121.502 57.5178 121.865C57.1126 122.224 56.7961 122.665 56.5693 123.187C56.3472 123.715 56.2363 124.309 56.2363 124.969C56.2363 125.643 56.3472 126.245 56.5693 126.773C56.7961 127.301 57.1126 127.741 57.5178 128.095C57.9238 128.453 58.4072 128.728 58.9696 128.918C59.5319 129.108 60.1533 129.203 60.835 129.203C61.5104 129.203 62.1297 129.108 62.692 128.918C62.8275 128.87 62.9575 128.821 63.0811 128.768C63.0548 129.231 62.9188 129.59 62.6759 129.844C62.3998 130.134 62.0163 130.279 61.5244 130.279V132.266C62.1509 132.261 62.7026 132.168 63.1788 131.989C63.6702 131.804 64.0814 131.548 64.4118 131.221C64.741 130.894 64.9899 130.506 65.1581 130.057C65.2876 129.71 65.3684 129.342 65.4011 128.958C65.8492 129.115 68.9218 129.197 69.5062 129.203H69.53H78.2003C78.8812 129.203 79.5034 129.108 80.0658 128.918C80.601 128.739 81.0635 128.483 81.4518 128.15L81.4603 128.158C81.7954 128.485 82.2065 128.741 82.6933 128.926C83.1635 129.105 83.7067 129.197 84.323 129.203H84.3472C84.3974 129.203 84.4386 129.183 84.4857 129.177C85.0336 129.165 85.5348 129.092 85.9774 128.942C86.4047 128.794 86.7751 128.585 87.089 128.316C87.3808 128.569 87.7295 128.773 88.1347 128.926C88.6053 129.1 89.1456 129.192 89.7572 129.203H89.7976C89.8001 129.203 89.8018 129.202 89.8044 129.202C90.4254 129.194 90.9767 129.102 91.4558 128.922C91.9404 128.739 92.3469 128.485 92.6765 128.158C93.007 127.831 93.2563 127.442 93.427 126.991C93.5978 126.54 93.6823 126.05 93.6823 125.522V118.803H91.3543V125.554Z"/>
<path fill="#5D3D91" d="M96.9647 118.795H94.7832V129.195H97.7917V127.248H96.9647V118.795Z"/>
<path fill="#5D3D91" d="M105.658 119.53C105.761 119.609 105.88 119.67 106.014 119.712C106.15 119.755 106.291 119.775 106.436 119.775C106.577 119.775 106.718 119.755 106.858 119.712C106.993 119.67 107.118 119.609 107.231 119.53C107.339 119.446 107.426 119.343 107.49 119.222C107.555 119.1 107.588 118.96 107.588 118.802C107.588 118.639 107.555 118.496 107.49 118.375C107.426 118.253 107.339 118.153 107.231 118.074C107.118 117.995 106.993 117.934 106.858 117.892C106.718 117.85 106.577 117.828 106.436 117.828C106.291 117.828 106.15 117.85 106.014 117.892C105.88 117.934 105.761 117.995 105.658 118.074C105.549 118.153 105.463 118.253 105.398 118.375C105.333 118.496 105.301 118.639 105.301 118.802C105.301 118.96 105.333 119.1 105.398 119.222C105.463 119.343 105.549 119.446 105.658 119.53Z"/>
<path fill="#5D3D91" d="M102.878 119.53C102.987 119.609 103.108 119.67 103.243 119.712C103.378 119.755 103.519 119.775 103.664 119.775C103.805 119.775 103.943 119.755 104.078 119.712C104.219 119.67 104.343 119.609 104.452 119.53C104.56 119.446 104.649 119.343 104.719 119.222C104.784 119.1 104.816 118.96 104.816 118.802C104.816 118.639 104.784 118.496 104.719 118.375C104.649 118.253 104.56 118.153 104.452 118.074C104.343 117.995 104.219 117.934 104.078 117.892C103.943 117.85 103.805 117.828 103.664 117.828C103.519 117.828 103.378 117.85 103.243 117.892C103.108 117.934 102.987 117.995 102.878 118.074C102.775 118.153 102.688 118.253 102.619 118.375C102.554 118.496 102.521 118.639 102.521 118.802C102.521 118.96 102.554 119.1 102.619 119.222C102.688 119.343 102.775 119.446 102.878 119.53Z"/>
<path fill="#5D3D91" d="M115.306 130.334C114.997 130.334 114.735 130.416 114.519 130.58C114.281 130.759 114.162 130.998 114.162 131.3C114.162 131.6 114.281 131.843 114.519 132.028C114.73 132.197 114.992 132.281 115.306 132.281C115.609 132.281 115.871 132.197 116.092 132.028C116.33 131.843 116.449 131.6 116.449 131.3C116.449 130.994 116.333 130.756 116.101 130.588C115.868 130.419 115.603 130.334 115.306 130.334Z"/>
<path fill="#5D3D91" d="M112.536 130.334C112.233 130.334 111.974 130.416 111.758 130.58C111.519 130.759 111.4 130.998 111.4 131.3C111.4 131.6 111.519 131.843 111.758 132.028C111.969 132.197 112.227 132.281 112.536 132.281C112.844 132.281 113.11 132.197 113.331 132.028C113.569 131.843 113.688 131.6 113.688 131.3C113.688 130.994 113.571 130.756 113.339 130.588C113.106 130.419 112.839 130.334 112.536 130.334Z"/>
<path fill="#5D3D91" d="M121.243 119.775C121.546 119.775 121.808 119.693 122.03 119.53C122.273 119.345 122.395 119.102 122.395 118.802C122.395 118.491 122.279 118.25 122.046 118.082C121.814 117.913 121.546 117.828 121.243 117.828C120.935 117.828 120.673 117.91 120.457 118.073C120.219 118.253 120.1 118.496 120.1 118.802C120.1 119.097 120.219 119.34 120.457 119.53C120.667 119.693 120.93 119.775 121.243 119.775Z"/>
<path fill="#5D3D91" d="M123.343 125.899C123.237 126.181 123.088 126.421 122.893 126.619C122.698 126.817 122.462 126.972 122.183 127.086C121.904 127.199 121.595 127.256 121.255 127.256C120.925 127.256 120.622 127.199 120.346 127.086C120.071 126.972 119.833 126.817 119.632 126.619C119.432 126.421 119.277 126.181 119.166 125.899C119.056 125.616 119 125.307 119 124.969C119 124.636 119.056 124.331 119.166 124.055C119.277 123.777 119.43 123.538 119.625 123.334C119.819 123.131 120.058 122.974 120.339 122.864C120.619 122.752 120.925 122.697 121.255 122.697C121.595 122.697 121.904 122.752 122.183 122.859C122.462 122.968 122.698 123.119 122.893 123.314C123.088 123.51 123.237 123.747 123.343 124.027C123.449 124.306 123.501 124.621 123.501 124.969C123.501 125.307 123.449 125.616 123.343 125.899ZM107.314 124.969C107.314 125.307 107.26 125.615 107.151 125.894C107.043 126.18 106.894 126.42 106.705 126.615C106.511 126.816 106.273 126.971 105.992 127.082C105.716 127.198 105.407 127.256 105.067 127.256C104.737 127.256 104.434 127.198 104.159 127.082C103.883 126.971 103.645 126.816 103.445 126.615C103.245 126.42 103.088 126.18 102.975 125.894C102.866 125.615 102.812 125.307 102.812 124.969C102.812 124.636 102.866 124.333 102.975 124.059C103.088 123.784 103.243 123.544 103.436 123.338C103.631 123.132 103.869 122.974 104.15 122.864C104.427 122.752 104.729 122.697 105.059 122.697H107.322L107.314 124.969ZM124.564 121.854C124.163 121.493 123.681 121.218 123.116 121.031C122.551 120.843 121.93 120.75 121.255 120.75C120.579 120.75 119.958 120.847 119.393 121.039C118.828 121.232 118.343 121.509 117.937 121.87C117.532 122.231 117.217 122.674 116.993 123.196C116.768 123.718 116.656 124.309 116.656 124.969C116.656 125.844 116.851 126.607 117.24 127.256H116.657C116.17 127.256 115.789 127.111 115.513 126.821C115.238 126.536 115.1 126.116 115.1 125.562V123.671H116.057V121.724H112.788L112.78 125.451C112.78 126.074 112.637 126.528 112.351 126.813C112.063 127.098 111.685 127.24 111.215 127.24V127.256C110.722 127.256 110.339 127.111 110.063 126.821C109.787 126.53 109.649 126.108 109.649 125.555V120.75H105.059C104.383 120.75 103.767 120.845 103.21 121.035C102.642 121.23 102.155 121.508 101.75 121.866C101.344 122.23 101.031 122.674 100.809 123.196C100.582 123.718 100.469 124.309 100.469 124.969C100.469 125.644 100.582 126.246 100.809 126.773C101.031 127.301 101.344 127.744 101.75 128.103C102.155 128.456 102.642 128.729 103.21 128.918C103.772 129.108 104.391 129.203 105.067 129.203C105.743 129.203 106.364 129.108 106.933 128.918C107.467 128.739 107.93 128.483 108.319 128.15L108.327 128.158C108.657 128.486 109.068 128.741 109.56 128.927C110.031 129.105 110.574 129.198 111.19 129.203H111.215C111.266 129.203 111.308 129.184 111.357 129.177C111.903 129.165 112.403 129.092 112.845 128.942C113.272 128.794 113.643 128.586 113.956 128.316C114.248 128.57 114.597 128.773 115.002 128.927C115.473 129.1 116.013 129.193 116.624 129.203H116.656H116.665H121.255C121.93 129.203 122.551 129.108 123.116 128.918C123.681 128.729 124.163 128.455 124.564 128.099C124.964 127.743 125.276 127.301 125.5 126.773C125.725 126.246 125.838 125.644 125.838 124.969C125.838 124.298 125.725 123.702 125.5 123.18C125.276 122.657 124.964 122.216 124.564 121.854Z"/>
<path fill="#5D3D91" d="M154.379 125.459C154.379 126.082 154.232 126.536 153.94 126.821C153.654 127.105 153.276 127.248 152.805 127.248C152.313 127.248 151.923 127.105 151.637 126.821C151.35 126.536 151.207 126.076 151.207 125.443V122.705H152.213V120.758H148.896V125.459C148.896 126.082 148.75 126.536 148.458 126.821C148.171 127.105 147.793 127.248 147.322 127.248C146.836 127.248 146.446 127.105 146.154 126.821C145.868 126.536 145.725 126.076 145.725 125.443V122.705H146.73V120.758H143.413V125.554C143.413 126.108 143.275 126.53 142.999 126.821C142.724 127.105 142.34 127.248 141.848 127.248V127.256L135.407 127.248C135.066 127.248 134.755 127.193 134.474 127.082C134.198 126.971 133.963 126.815 133.768 126.614C133.573 126.414 133.422 126.175 133.314 125.894C133.212 125.615 133.16 125.307 133.16 124.969C133.16 124.621 133.212 124.306 133.314 124.027C133.422 123.747 133.573 123.51 133.768 123.314C133.963 123.119 134.198 122.966 134.474 122.855C134.755 122.75 135.066 122.697 135.407 122.697V124.185H137.735V121.225C137.583 121.156 137.427 121.092 137.264 121.035C136.702 120.845 136.083 120.75 135.407 120.75C134.725 120.75 134.103 120.842 133.541 121.027C132.979 121.217 132.498 121.494 132.097 121.858C131.693 122.217 131.379 122.657 131.157 123.18C130.929 123.702 130.816 124.298 130.816 124.969C130.816 125.644 130.929 126.245 131.157 126.773C131.227 126.942 131.308 127.1 131.4 127.248H130.816C130.33 127.248 129.949 127.105 129.673 126.821C129.397 126.53 129.26 126.108 129.26 125.554V118.811H126.932V125.523C126.932 126.05 127.016 126.541 127.183 126.995C127.351 127.443 127.602 127.831 127.937 128.158C128.267 128.486 128.676 128.741 129.162 128.926C129.643 129.105 130.195 129.195 130.816 129.195V129.203H141.848C141.875 129.203 141.897 129.191 141.923 129.189C142.518 129.182 143.047 129.095 143.503 128.918C143.902 128.77 144.248 128.575 144.54 128.332C144.865 128.612 145.243 128.823 145.676 128.965C146.157 129.119 146.706 129.195 147.322 129.195C147.928 129.195 148.471 129.113 148.953 128.95C149.369 128.807 149.731 128.606 150.039 128.348C150.353 128.617 150.726 128.823 151.159 128.965C151.639 129.119 152.189 129.195 152.805 129.195C153.41 129.195 153.954 129.113 154.435 128.95C154.916 128.786 155.325 128.543 155.66 128.222C156 127.905 156.26 127.514 156.439 127.05C156.606 126.591 156.69 126.061 156.69 125.459V122.705H157.647V120.758H154.379V125.459Z"/>
<path fill="#5D3D91" d="M159.415 130.31C159.188 130.51 159.075 130.787 159.075 131.141C159.075 131.378 159.126 131.581 159.229 131.751H158.742V132.281H160.932V131.751H160.3C160.121 131.751 159.976 131.695 159.866 131.584C159.755 131.473 159.699 131.325 159.699 131.141C159.699 130.956 159.755 130.809 159.866 130.698C159.976 130.588 160.123 130.532 160.307 130.532V130.928H160.932V130.136C160.753 130.052 160.545 130.009 160.307 130.009C159.94 130.009 159.643 130.109 159.415 130.31Z"/>
<path fill="#5D3D91" d="M164.192 125.554C164.192 126.108 164.054 126.53 163.778 126.821C163.509 127.104 163.134 127.247 162.657 127.254C162.646 127.253 162.638 127.248 162.626 127.248C162.14 127.248 161.759 127.105 161.483 126.821C161.207 126.53 161.07 126.108 161.07 125.554V118.811H158.742V125.523C158.742 126.05 158.826 126.541 158.993 126.995C159.161 127.443 159.412 127.831 159.748 128.158C160.078 128.485 160.486 128.741 160.973 128.926C161.453 129.105 162.005 129.195 162.626 129.195V129.203C163.254 129.197 163.81 129.104 164.293 128.922C164.777 128.739 165.184 128.485 165.514 128.158C165.844 127.831 166.094 127.442 166.264 126.99C166.435 126.54 166.52 126.05 166.52 125.523V118.803H164.192V125.554Z"/>
<path fill="#5D3D91" d="M169.789 127.248V118.795H167.607V129.195H170.616V127.248H169.789Z"/>
<path fill="#3686A9" d="M32.0371 144.357H34.7933V143.418H32.9019V142.142H34.4178V141.218H32.9019V139.974H34.7933V139.035H32.0371V144.357Z"/>
<path fill="#3686A9" d="M38.8704 140.35C38.6911 140.35 38.5144 140.38 38.3411 140.44C38.1678 140.5 37.9831 140.593 37.7869 140.718C37.6994 140.593 37.5872 140.5 37.4517 140.44C37.3162 140.38 37.1752 140.35 37.0287 140.35C36.9034 140.35 36.7836 140.375 36.6689 140.424C36.5538 140.474 36.4192 140.553 36.265 140.663V140.444H35.4316V144.357H36.2709V141.43L36.3461 141.399C36.5215 141.326 36.6761 141.29 36.8095 141.29C36.9391 141.29 37.0363 141.322 37.1009 141.387C37.1659 141.452 37.2096 141.558 37.2321 141.705C37.2555 141.85 37.267 142.064 37.267 142.346V144.357H38.1063V142.33C38.1063 142.085 38.0978 141.788 38.0812 141.438L38.1751 141.399C38.3756 141.326 38.5365 141.29 38.6576 141.29C38.8288 141.29 38.9456 141.365 39.0084 141.516C39.0713 141.668 39.1023 141.918 39.1023 142.267V144.357H39.9416V142.236C39.9416 141.574 39.8605 141.093 39.6974 140.796C39.5347 140.499 39.259 140.35 38.8704 140.35Z"/>
<path fill="#3686A9" d="M41.3729 142.048C41.3767 141.745 41.4205 141.531 41.5046 141.402C41.5878 141.275 41.7297 141.211 41.9302 141.211C42.1264 141.211 42.2632 141.272 42.3405 141.395C42.4178 141.517 42.4564 141.735 42.4564 142.048H41.3729ZM41.9366 140.35C41.4562 140.35 41.1024 140.527 40.8747 140.882C40.6475 141.237 40.5332 141.774 40.5332 142.494C40.5332 143.183 40.6419 143.681 40.859 143.989C41.076 144.298 41.4294 144.451 41.9179 144.451C42.2895 144.451 42.7113 144.378 43.1832 144.232L43.1704 143.457L42.9955 143.48C42.9075 143.491 42.7674 143.502 42.5754 143.511C42.3834 143.522 42.2182 143.528 42.0806 143.528C41.9051 143.528 41.7684 143.508 41.6702 143.469C41.5721 143.43 41.5012 143.362 41.4574 143.266C41.4137 143.169 41.3874 143.029 41.3793 142.847H43.2206L43.2834 142.119C43.2834 141.529 43.1696 141.087 42.9419 140.792C42.7143 140.497 42.3791 140.35 41.9366 140.35Z"/>
<path fill="#3686A9" d="M44.7181 140.444H43.8848V144.357H44.7245V141.736L44.8498 141.68C45.117 141.576 45.4071 141.485 45.7201 141.406V140.349C45.4113 140.428 45.077 140.598 44.7181 140.859V140.444Z"/>
<path fill="#3686A9" d="M47.41 142.33C47.0884 142.33 46.9279 142.138 46.9279 141.751C46.9279 141.371 47.0884 141.179 47.41 141.179C47.7273 141.179 47.8861 141.371 47.8861 141.751C47.8861 142.138 47.7273 142.33 47.41 142.33ZM47.6104 144.569C47.6436 144.569 47.7115 144.571 47.8139 144.577C47.9163 144.582 48.0059 144.601 48.0832 144.636C48.1605 144.669 48.1996 144.752 48.1996 144.882C48.1996 145.023 48.1456 145.127 48.0394 145.195C47.9328 145.263 47.7608 145.297 47.5225 145.297C47.3055 145.297 47.1437 145.268 47.0375 145.211C46.9309 145.154 46.8778 145.062 46.8778 144.937C46.8778 144.796 46.9338 144.655 47.0468 144.514L47.6104 144.569ZM47.4036 140.366C46.9903 140.366 46.6679 140.482 46.4356 140.714C46.2041 140.947 46.0882 141.3 46.0882 141.775C46.0882 142.276 46.2304 142.656 46.5142 142.918C46.4139 143.116 46.3481 143.257 46.3167 143.34C46.2852 143.423 46.2699 143.504 46.2699 143.583C46.2699 143.692 46.2899 143.797 46.3294 143.895C46.3693 143.995 46.4263 144.076 46.5014 144.138C46.3473 144.295 46.2334 144.448 46.1604 144.597C46.0869 144.745 46.0508 144.916 46.0508 145.109C46.0508 145.48 46.1748 145.747 46.4233 145.912C46.6718 146.076 47.0192 146.158 47.4665 146.158C48.0008 146.158 48.3975 146.046 48.6566 145.822C48.9153 145.597 49.0448 145.248 49.0448 144.772C49.0448 144.465 48.993 144.231 48.8885 144.072C48.784 143.913 48.6366 143.807 48.4468 143.755C48.2565 143.703 48.0008 143.672 47.6793 143.661C47.4456 143.656 47.2855 143.641 47.2001 143.618C47.1143 143.594 47.0719 143.528 47.0719 143.418C47.0719 143.33 47.0927 143.223 47.1343 143.097C47.201 143.119 47.2974 143.129 47.4223 143.129C47.8568 143.129 48.1805 143.029 48.3937 142.828C48.6065 142.627 48.7131 142.291 48.7131 141.822C48.7131 141.686 48.7037 141.579 48.6846 141.5C48.6659 141.422 48.6294 141.329 48.575 141.218L49.0448 141.266V140.429L48.036 140.468C47.7901 140.4 47.579 140.366 47.4036 140.366Z"/>
<path fill="#3686A9" d="M50.2343 142.048C50.2381 141.745 50.2818 141.531 50.3659 141.402C50.4492 141.275 50.591 141.211 50.7915 141.211C50.9878 141.211 51.1245 141.272 51.2018 141.395C51.2791 141.517 51.3178 141.735 51.3178 142.048H50.2343ZM50.7979 140.35C50.3175 140.35 49.9637 140.527 49.736 140.882C49.5088 141.237 49.3945 141.774 49.3945 142.494C49.3945 143.183 49.5033 143.681 49.7203 143.989C49.9374 144.298 50.2907 144.451 50.7792 144.451C51.1509 144.451 51.5726 144.378 52.0445 144.232L52.0318 143.457L51.8568 143.48C51.7689 143.491 51.6287 143.502 51.4367 143.511C51.2447 143.522 51.0795 143.528 50.9419 143.528C50.7665 143.528 50.6297 143.508 50.5316 143.469C50.4335 143.43 50.3625 143.362 50.3188 143.266C50.275 143.169 50.2487 143.029 50.2406 142.847H52.0819L52.1448 142.119C52.1448 141.529 52.0309 141.087 51.8033 140.792C51.5756 140.497 51.2405 140.35 50.7979 140.35Z"/>
<path fill="#3686A9" d="M54.4113 140.35C54.2691 140.35 54.137 140.374 54.0138 140.42C53.8902 140.468 53.7496 140.548 53.5912 140.663V140.444H52.7578V144.357H53.5971V141.43L53.6723 141.399C53.8477 141.326 54.0044 141.29 54.1421 141.29C54.334 141.29 54.4644 141.362 54.5337 141.508C54.6025 141.655 54.6369 141.908 54.6369 142.267V144.357H55.4762V142.236C55.4762 141.594 55.3951 141.12 55.232 140.812C55.0693 140.504 54.7957 140.35 54.4113 140.35Z"/>
<path fill="#3686A9" d="M57.1916 141.387C57.2919 141.321 57.438 141.289 57.63 141.289C57.7676 141.289 58.0144 141.31 58.3695 141.352L58.3945 140.522C58.1477 140.46 57.9519 140.415 57.8054 140.389C57.6593 140.363 57.5255 140.35 57.4044 140.35C56.9325 140.35 56.5923 140.51 56.3833 140.831C56.1748 141.152 56.0703 141.675 56.0703 142.401C56.0703 143.115 56.1718 143.636 56.374 143.962C56.5766 144.289 56.9037 144.451 57.3543 144.451C57.6049 144.451 57.9519 144.396 58.3945 144.287L58.3695 143.449L57.6427 143.511C57.4465 143.511 57.297 143.478 57.1946 143.41C57.0922 143.343 57.0213 143.23 56.9818 143.074C56.9419 142.917 56.9224 142.69 56.9224 142.392C56.9224 142.1 56.9419 141.876 56.9818 141.72C57.0213 141.563 57.0914 141.452 57.1916 141.387Z"/>
<path fill="#3686A9" d="M60.2636 143.466H60.1196L59.5496 140.444H58.7227L59.4931 144.358H60.0818L59.7374 146.002H60.558L61.6606 140.444H60.8336L60.2636 143.466Z"/>
<path fill="#3686A9" d="M66.9622 140.35C66.7829 140.35 66.6062 140.38 66.4329 140.44C66.2596 140.5 66.0749 140.593 65.8787 140.718C65.7912 140.593 65.679 140.5 65.5435 140.44C65.408 140.38 65.267 140.35 65.1205 140.35C64.9952 140.35 64.8754 140.375 64.7603 140.424C64.6456 140.474 64.511 140.553 64.3564 140.663V140.444H63.5234V144.357H64.3627V141.43L64.4379 141.399C64.6133 141.326 64.7679 141.29 64.9013 141.29C65.0309 141.29 65.1281 141.322 65.1927 141.387C65.2577 141.452 65.3014 141.558 65.3239 141.705C65.3473 141.85 65.3588 142.064 65.3588 142.346V144.357H66.1981V142.33C66.1981 142.085 66.1896 141.788 66.173 141.438L66.2669 141.399C66.4673 141.326 66.6283 141.29 66.7494 141.29C66.9206 141.29 67.0374 141.365 67.1002 141.516C67.1631 141.668 67.1941 141.918 67.1941 142.267V144.357H68.0334V142.236C68.0334 141.574 67.9523 141.093 67.7892 140.796C67.6265 140.499 67.3508 140.35 66.9622 140.35Z"/>
<path fill="#3686A9" d="M69.4647 142.048C69.4685 141.745 69.5123 141.531 69.5964 141.402C69.6796 141.275 69.8215 141.211 70.022 141.211C70.2182 141.211 70.355 141.272 70.4323 141.395C70.5096 141.517 70.5482 141.735 70.5482 142.048H69.4647ZM70.0284 140.35C69.548 140.35 69.1942 140.527 68.9665 140.882C68.7393 141.237 68.625 141.774 68.625 142.494C68.625 143.183 68.7337 143.681 68.9508 143.989C69.1678 144.298 69.5212 144.451 70.0097 144.451C70.3813 144.451 70.8031 144.378 71.275 144.232L71.2622 143.457L71.0872 143.48C70.9993 143.491 70.8592 143.502 70.6672 143.511C70.4752 143.522 70.31 143.528 70.1723 143.528C69.9969 143.528 69.8602 143.508 69.762 143.469C69.6639 143.43 69.593 143.362 69.5492 143.266C69.5055 143.169 69.4792 143.029 69.4711 142.847H71.3124L71.3752 142.119C71.3752 141.529 71.2614 141.087 71.0337 140.792C70.8061 140.497 70.4709 140.35 70.0284 140.35Z"/>
<path fill="#3686A9" d="M73.7952 143.395L73.7077 143.417C73.5153 143.48 73.3441 143.511 73.1942 143.511C73.006 143.511 72.8722 143.43 72.7932 143.266C72.7138 143.101 72.6743 142.823 72.6743 142.432C72.6743 142.003 72.7181 141.701 72.8056 141.523C72.8935 141.346 73.0375 141.258 73.2379 141.258C73.3883 141.258 73.5739 141.284 73.7952 141.336V143.395ZM73.7952 140.459C73.4779 140.386 73.2422 140.35 73.0876 140.35C72.6573 140.35 72.3388 140.517 72.1323 140.854C71.9255 141.191 71.8223 141.725 71.8223 142.455C71.8223 143.123 71.914 143.623 72.0975 143.954C72.2818 144.285 72.5821 144.451 72.9997 144.451C73.1207 144.451 73.2422 144.433 73.3632 144.396C73.4839 144.36 73.6304 144.292 73.8016 144.193V144.357H74.6349V138.878H73.7952V140.459Z"/>
<path fill="#3686A9" d="M75.4082 144.357H76.2479V140.444H75.4082V144.357Z"/>
<path fill="#3686A9" d="M75.4082 139.941H76.2479V138.885H75.4082V139.941Z"/>
<path fill="#3686A9" d="M77.967 141.387C78.0673 141.321 78.2134 141.289 78.4054 141.289C78.543 141.289 78.7898 141.31 79.1448 141.352L79.1699 140.522C78.9231 140.46 78.7273 140.415 78.5808 140.389C78.4347 140.363 78.3009 140.35 78.1798 140.35C77.7079 140.35 77.3677 140.51 77.1587 140.831C76.9502 141.152 76.8457 141.675 76.8457 142.401C76.8457 143.115 76.9472 143.636 77.1494 143.962C77.352 144.289 77.6791 144.451 78.1297 144.451C78.3803 144.451 78.7273 144.396 79.1699 144.287L79.1448 143.449L78.4181 143.511C78.2219 143.511 78.0724 143.478 77.97 143.41C77.8676 143.343 77.7967 143.23 77.7572 143.074C77.7173 142.917 77.6977 142.69 77.6977 142.392C77.6977 142.1 77.7173 141.876 77.7572 141.72C77.7967 141.563 77.8668 141.452 77.967 141.387Z"/>
<path fill="#3686A9" d="M81.3525 143.473L81.2586 143.504C81.0708 143.567 80.8971 143.598 80.7387 143.598C80.534 143.598 80.432 143.454 80.432 143.168C80.432 142.881 80.5484 142.724 80.7824 142.698L81.3525 142.635V143.473ZM82.1922 143.293V141.664C82.1922 141.205 82.103 140.871 81.9259 140.663C81.7483 140.454 81.4591 140.35 81.0581 140.35C80.6571 140.35 80.2316 140.425 79.78 140.576L79.8051 141.305C79.9682 141.289 80.1708 141.275 80.4129 141.261C80.655 141.249 80.8453 141.242 80.9829 141.242C81.1163 141.242 81.2114 141.273 81.2679 141.336C81.3244 141.398 81.3525 141.508 81.3525 141.664V141.907L80.6822 141.97C80.2978 142.001 80.0192 142.107 79.8459 142.287C79.6726 142.467 79.5859 142.76 79.5859 143.168C79.5859 144.023 79.9096 144.451 80.5569 144.451C80.8661 144.451 81.1728 144.36 81.4778 144.177C81.6031 144.287 81.7292 144.36 81.8571 144.396C81.984 144.433 82.1565 144.451 82.3735 144.451L82.3986 143.66C82.3234 143.64 82.2725 143.606 82.2453 143.559C82.2177 143.511 82.2002 143.423 82.1922 143.293Z"/>
<path fill="#3686A9" d="M83.0254 144.357H83.8651V138.878H83.0254V144.357Z"/>
<path fill="#3686A9" d="M87.4832 141.97L87.264 141.923C87.0763 141.881 86.9403 141.838 86.8571 141.793C86.773 141.75 86.7318 141.673 86.7318 141.563C86.7318 141.459 86.7726 141.388 86.8537 141.352C86.9352 141.315 87.0469 141.297 87.1888 141.297C87.4309 141.297 87.8047 141.339 88.3101 141.422L88.3229 140.553L88.116 140.506C87.6773 140.407 87.3455 140.357 87.12 140.357C86.7399 140.357 86.4413 140.464 86.2242 140.678C86.0067 140.893 85.8984 141.221 85.8984 141.664C85.8984 141.942 85.9401 142.156 86.0237 142.311C86.1074 142.464 86.2157 142.576 86.3491 142.647C86.4833 142.717 86.6541 142.776 86.863 142.823C86.8923 142.834 86.9446 142.844 87.0198 142.854C87.2202 142.897 87.363 142.94 87.4488 142.988C87.5346 143.034 87.577 143.111 87.577 143.214C87.577 143.329 87.532 143.408 87.4424 143.449C87.3528 143.491 87.2304 143.511 87.0763 143.511C86.8465 143.511 86.4786 143.47 85.9736 143.387L85.9486 144.263L86.149 144.311C86.5457 144.404 86.8821 144.451 87.1574 144.451C87.5834 144.451 87.899 144.344 88.1037 144.13C88.308 143.916 88.4104 143.585 88.4104 143.136C88.4104 142.771 88.339 142.506 88.1976 142.342C88.0553 142.178 87.8174 142.053 87.4832 141.97Z"/>
<path fill="#3686A9" d="M89.6952 142.048C89.699 141.745 89.7428 141.531 89.8269 141.402C89.9101 141.275 90.052 141.211 90.2525 141.211C90.4487 141.211 90.5855 141.272 90.6628 141.395C90.7401 141.517 90.7787 141.735 90.7787 142.048H89.6952ZM90.2588 140.35C89.7784 140.35 89.4246 140.527 89.197 140.882C88.9697 141.237 88.8555 141.774 88.8555 142.494C88.8555 143.183 88.9642 143.681 89.1812 143.989C89.3983 144.298 89.7517 144.451 90.2401 144.451C90.6118 144.451 91.0336 144.378 91.5055 144.232L91.4927 143.457L91.3177 143.48C91.2298 143.491 91.0896 143.502 90.8976 143.511C90.7057 143.522 90.5404 143.528 90.4028 143.528C90.2274 143.528 90.0906 143.508 89.9925 143.469C89.8944 143.43 89.8235 143.362 89.7797 143.266C89.736 143.169 89.7096 143.029 89.7016 142.847H91.5428L91.6057 142.119C91.6057 141.529 91.4919 141.087 91.2642 140.792C91.0365 140.497 90.7014 140.35 90.2588 140.35Z"/>
<path fill="#3686A9" d="M93.0521 140.444H92.2188V144.357H93.0585V141.736L93.1838 141.68C93.4509 141.576 93.741 141.485 94.0541 141.406V140.349C93.7453 140.428 93.411 140.598 93.0521 140.859V140.444Z"/>
<path fill="#3686A9" d="M95.8033 143.465H95.6279L95.1271 140.444H94.25L95.0018 144.357H96.4294L97.1816 140.444H96.3296L95.8033 143.465Z"/>
<path fill="#3686A9" d="M97.6562 139.941H98.496V138.885H97.6562V139.941Z"/>
<path fill="#3686A9" d="M97.6562 144.357H98.496V140.444H97.6562V144.357Z"/>
<path fill="#3686A9" d="M100.209 141.387C100.309 141.321 100.456 141.289 100.648 141.289C100.785 141.289 101.032 141.31 101.387 141.352L101.412 140.522C101.165 140.46 100.97 140.415 100.823 140.389C100.677 140.363 100.543 140.35 100.422 140.35C99.9501 140.35 99.6099 140.51 99.4009 140.831C99.1924 141.152 99.0879 141.675 99.0879 142.401C99.0879 143.115 99.1894 143.636 99.3916 143.962C99.5942 144.289 99.9212 144.451 100.372 144.451C100.622 144.451 100.97 144.396 101.412 144.287L101.387 143.449L100.66 143.511C100.464 143.511 100.315 143.478 100.212 143.41C100.11 143.343 100.039 143.23 99.9994 143.074C99.9595 142.917 99.9399 142.69 99.9399 142.392C99.9399 142.1 99.9595 141.876 99.9994 141.72C100.039 141.563 100.109 141.452 100.209 141.387Z"/>
<path fill="#3686A9" d="M102.701 142.048C102.705 141.745 102.749 141.531 102.833 141.402C102.916 141.275 103.058 141.211 103.258 141.211C103.455 141.211 103.591 141.272 103.669 141.395C103.746 141.517 103.785 141.735 103.785 142.048H102.701ZM103.265 140.35C102.784 140.35 102.43 140.527 102.203 140.882C101.976 141.237 101.861 141.774 101.861 142.494C101.861 143.183 101.97 143.681 102.187 143.989C102.404 144.298 102.758 144.451 103.246 144.451C103.618 144.451 104.039 144.378 104.511 144.232L104.499 143.457L104.324 143.48C104.236 143.491 104.095 143.502 103.904 143.511C103.712 143.522 103.546 143.528 103.409 143.528C103.233 143.528 103.096 143.508 102.998 143.469C102.9 143.43 102.829 143.362 102.786 143.266C102.742 143.169 102.715 143.029 102.707 142.847H104.549L104.612 142.119C104.612 141.529 104.498 141.087 104.27 140.792C104.042 140.497 103.707 140.35 103.265 140.35Z"/>
<path fill="#3686A9" d="M106.626 141.97L106.407 141.923C106.219 141.881 106.083 141.838 106 141.793C105.916 141.75 105.874 141.673 105.874 141.563C105.874 141.459 105.915 141.388 105.996 141.352C106.078 141.315 106.19 141.297 106.331 141.297C106.573 141.297 106.947 141.339 107.453 141.422L107.465 140.553L107.259 140.506C106.82 140.407 106.488 140.357 106.263 140.357C105.882 140.357 105.584 140.464 105.366 140.678C105.149 140.893 105.041 141.221 105.041 141.664C105.041 141.942 105.083 142.156 105.166 142.311C105.25 142.464 105.358 142.576 105.492 142.647C105.626 142.717 105.797 142.776 106.006 142.823C106.035 142.834 106.087 142.844 106.162 142.854C106.363 142.897 106.506 142.94 106.591 142.988C106.677 143.034 106.72 143.111 106.72 143.214C106.72 143.329 106.675 143.408 106.585 143.449C106.495 143.491 106.373 143.511 106.219 143.511C105.989 143.511 105.621 143.47 105.116 143.387L105.091 144.263L105.292 144.311C105.688 144.404 106.025 144.451 106.3 144.451C106.726 144.451 107.042 144.344 107.246 144.13C107.451 143.916 107.553 143.585 107.553 143.136C107.553 142.771 107.482 142.506 107.34 142.342C107.198 142.178 106.96 142.053 106.626 141.97Z"/>
<path fill="#3686A9" d="M110.805 143.465H110.63L110.129 140.444H109.252L110.004 144.357H111.431L112.184 140.444H111.331L110.805 143.465Z"/>
<path fill="#3686A9" d="M114.348 143.285C114.252 143.467 114.104 143.559 113.904 143.559C113.703 143.559 113.555 143.467 113.459 143.285C113.363 143.102 113.315 142.805 113.315 142.392C113.315 141.981 113.363 141.686 113.459 141.508C113.555 141.331 113.703 141.242 113.904 141.242C114.104 141.242 114.252 141.331 114.348 141.508C114.445 141.686 114.492 141.981 114.492 142.392C114.492 142.805 114.445 143.102 114.348 143.285ZM113.904 140.35C113.432 140.35 113.074 140.527 112.829 140.882C112.585 141.237 112.463 141.74 112.463 142.392C112.463 143.05 112.585 143.557 112.829 143.915C113.074 144.273 113.432 144.451 113.904 144.451C114.376 144.451 114.734 144.273 114.978 143.915C115.222 143.557 115.344 143.05 115.344 142.392C115.344 141.74 115.222 141.237 114.978 140.882C114.734 140.527 114.376 140.35 113.904 140.35Z"/>
<path fill="#3686A9" d="M115.986 144.357H116.826V138.878H115.986V144.357Z"/>
<path fill="#3686A9" d="M119.492 143.371C119.355 143.423 119.247 143.46 119.17 143.48C119.093 143.502 119.006 143.511 118.91 143.511C118.776 143.511 118.677 143.485 118.612 143.43C118.547 143.375 118.505 143.279 118.484 143.14C118.463 143.002 118.453 142.792 118.453 142.51V140.444H117.613V142.494C117.613 142.964 117.645 143.339 117.707 143.622C117.77 143.904 117.877 144.112 118.03 144.248C118.182 144.383 118.392 144.451 118.659 144.451C118.797 144.451 118.927 144.429 119.051 144.385C119.174 144.34 119.323 144.258 119.499 144.138V144.357H120.332V140.444H119.492V143.371Z"/>
<path fill="#3686A9" d="M122.751 140.35C122.609 140.35 122.477 140.374 122.354 140.42C122.23 140.468 122.089 140.548 121.931 140.663V140.444H121.098V144.357H121.937V141.43L122.012 141.399C122.188 141.326 122.344 141.29 122.482 141.29C122.674 141.29 122.804 141.362 122.874 141.508C122.942 141.655 122.977 141.908 122.977 142.267V144.357H123.816V142.236C123.816 141.594 123.735 141.12 123.572 140.812C123.409 140.504 123.136 140.35 122.751 140.35Z"/>
<path fill="#3686A9" d="M125.792 143.511C125.675 143.517 125.602 143.474 125.573 143.383C125.544 143.291 125.53 143.144 125.53 142.94V141.336H126.3V140.443H125.53V139.356H124.69V140.443H124.32V141.336H124.69V142.964C124.69 143.339 124.719 143.635 124.778 143.848C124.836 144.062 124.932 144.217 125.066 144.311C125.2 144.404 125.387 144.451 125.63 144.451C125.725 144.451 125.821 144.443 125.915 144.428C126.009 144.412 126.139 144.381 126.306 144.333L126.269 143.496L125.792 143.511Z"/>
<path fill="#3686A9" d="M127.535 142.048C127.539 141.745 127.583 141.531 127.667 141.402C127.75 141.275 127.892 141.211 128.092 141.211C128.289 141.211 128.425 141.272 128.503 141.395C128.58 141.517 128.619 141.735 128.619 142.048H127.535ZM128.099 140.35C127.618 140.35 127.264 140.527 127.037 140.882C126.81 141.237 126.695 141.774 126.695 142.494C126.695 143.183 126.804 143.681 127.021 143.989C127.238 144.298 127.592 144.451 128.08 144.451C128.452 144.451 128.873 144.378 129.345 144.232L129.333 143.457L129.158 143.48C129.07 143.491 128.929 143.502 128.737 143.511C128.546 143.522 128.38 143.528 128.243 143.528C128.067 143.528 127.93 143.508 127.832 143.469C127.734 143.43 127.663 143.362 127.62 143.266C127.576 143.169 127.549 143.029 127.541 142.847H129.383L129.446 142.119C129.446 141.529 129.332 141.087 129.104 140.792C128.876 140.497 128.541 140.35 128.099 140.35Z"/>
<path fill="#3686A9" d="M130.728 142.048C130.732 141.745 130.776 141.531 130.86 141.402C130.943 141.275 131.085 141.211 131.286 141.211C131.482 141.211 131.619 141.272 131.696 141.395C131.773 141.517 131.812 141.735 131.812 142.048H130.728ZM131.292 140.35C130.812 140.35 130.458 140.527 130.23 140.882C130.003 141.237 129.889 141.774 129.889 142.494C129.889 143.183 129.997 143.681 130.214 143.989C130.432 144.298 130.785 144.451 131.273 144.451C131.645 144.451 132.067 144.378 132.539 144.232L132.526 143.457L132.351 143.48C132.263 143.491 132.123 143.502 131.931 143.511C131.739 143.522 131.574 143.528 131.436 143.528C131.261 143.528 131.124 143.508 131.026 143.469C130.928 143.43 130.857 143.362 130.813 143.266C130.769 143.169 130.743 143.029 130.735 142.847H132.576L132.639 142.119C132.639 141.529 132.525 141.087 132.297 140.792C132.07 140.497 131.735 140.35 131.292 140.35Z"/>
<path fill="#3686A9" d="M134.072 140.444H133.238V144.357H134.078V141.736L134.203 141.68C134.47 141.576 134.761 141.485 135.074 141.406V140.349C134.765 140.428 134.431 140.598 134.072 140.859V140.444Z"/>
<path fill="#3686A9" d="M136.995 141.97L136.776 141.923C136.588 141.881 136.452 141.838 136.369 141.793C136.285 141.75 136.244 141.673 136.244 141.563C136.244 141.459 136.284 141.388 136.365 141.352C136.447 141.315 136.559 141.297 136.701 141.297C136.943 141.297 137.317 141.339 137.822 141.422L137.835 140.553L137.628 140.506C137.189 140.407 136.857 140.357 136.632 140.357C136.252 140.357 135.953 140.464 135.736 140.678C135.518 140.893 135.41 141.221 135.41 141.664C135.41 141.942 135.452 142.156 135.535 142.311C135.619 142.464 135.727 142.576 135.861 142.647C135.995 142.717 136.166 142.776 136.375 142.823C136.404 142.834 136.456 142.844 136.531 142.854C136.732 142.897 136.875 142.94 136.96 142.988C137.046 143.034 137.089 143.111 137.089 143.214C137.089 143.329 137.044 143.408 136.954 143.449C136.864 143.491 136.742 143.511 136.588 143.511C136.358 143.511 135.99 143.47 135.485 143.387L135.46 144.263L135.661 144.311C136.057 144.404 136.394 144.451 136.669 144.451C137.095 144.451 137.411 144.344 137.615 144.13C137.82 143.916 137.922 143.585 137.922 143.136C137.922 142.771 137.851 142.506 137.709 142.342C137.567 142.178 137.329 142.053 136.995 141.97Z"/>
<path fill="#3686A9" d="M140.822 142.455L141.253 139.927H141.554L141.987 142.455H140.822ZM140.584 139.035L139.625 144.357H140.49L140.659 143.395H142.15L142.319 144.357H143.183L142.225 139.035H140.584Z"/>
<path fill="#3686A9" d="M145.1 141.97L144.881 141.923C144.693 141.881 144.558 141.838 144.474 141.793C144.39 141.75 144.349 141.673 144.349 141.563C144.349 141.459 144.39 141.388 144.471 141.352C144.552 141.315 144.664 141.297 144.806 141.297C145.048 141.297 145.422 141.339 145.927 141.422L145.94 140.553L145.733 140.506C145.294 140.407 144.963 140.357 144.737 140.357C144.357 140.357 144.058 140.464 143.841 140.678C143.624 140.893 143.516 141.221 143.516 141.664C143.516 141.942 143.557 142.156 143.641 142.311C143.725 142.464 143.833 142.576 143.966 142.647C144.1 142.717 144.271 142.776 144.48 142.823C144.51 142.834 144.562 142.844 144.637 142.854C144.837 142.897 144.98 142.94 145.066 142.988C145.152 143.034 145.194 143.111 145.194 143.214C145.194 143.329 145.149 143.408 145.06 143.449C144.97 143.491 144.848 143.511 144.693 143.511C144.464 143.511 144.096 143.47 143.591 143.387L143.566 144.263L143.766 144.311C144.163 144.404 144.499 144.451 144.775 144.451C145.201 144.451 145.516 144.344 145.721 144.13C145.925 143.916 146.028 143.585 146.028 143.136C146.028 142.771 145.956 142.506 145.815 142.342C145.672 142.178 145.435 142.053 145.1 141.97Z"/>
<path fill="#3686A9" d="M148.052 141.97L147.832 141.923C147.645 141.881 147.509 141.838 147.425 141.793C147.341 141.75 147.3 141.673 147.3 141.563C147.3 141.459 147.341 141.388 147.422 141.352C147.504 141.315 147.615 141.297 147.757 141.297C147.999 141.297 148.373 141.339 148.879 141.422L148.891 140.553L148.684 140.506C148.246 140.407 147.914 140.357 147.688 140.357C147.308 140.357 147.01 140.464 146.792 140.678C146.575 140.893 146.467 141.221 146.467 141.664C146.467 141.942 146.508 142.156 146.592 142.311C146.676 142.464 146.784 142.576 146.917 142.647C147.052 142.717 147.222 142.776 147.431 142.823C147.461 142.834 147.513 142.844 147.588 142.854C147.789 142.897 147.931 142.94 148.017 142.988C148.103 143.034 148.145 143.111 148.145 143.214C148.145 143.329 148.1 143.408 148.011 143.449C147.921 143.491 147.799 143.511 147.645 143.511C147.415 143.511 147.047 143.47 146.542 143.387L146.517 144.263L146.717 144.311C147.114 144.404 147.451 144.451 147.726 144.451C148.152 144.451 148.467 144.344 148.672 144.13C148.876 143.916 148.979 143.585 148.979 143.136C148.979 142.771 148.907 142.506 148.766 142.342C148.624 142.178 148.386 142.053 148.052 141.97Z"/>
<path fill="#3686A9" d="M151.309 143.285C151.213 143.467 151.065 143.559 150.865 143.559C150.664 143.559 150.516 143.467 150.42 143.285C150.324 143.102 150.276 142.805 150.276 142.392C150.276 141.981 150.324 141.686 150.42 141.508C150.516 141.331 150.664 141.242 150.865 141.242C151.065 141.242 151.213 141.331 151.309 141.508C151.406 141.686 151.453 141.981 151.453 142.392C151.453 142.805 151.406 143.102 151.309 143.285ZM150.865 140.35C150.393 140.35 150.035 140.527 149.79 140.882C149.546 141.237 149.424 141.74 149.424 142.392C149.424 143.05 149.546 143.557 149.79 143.915C150.035 144.273 150.393 144.451 150.865 144.451C151.337 144.451 151.695 144.273 151.939 143.915C152.183 143.557 152.305 143.05 152.305 142.392C152.305 141.74 152.183 141.237 151.939 140.882C151.695 140.527 151.337 140.35 150.865 140.35Z"/>
<path fill="#3686A9" d="M153.885 141.387C153.985 141.321 154.131 141.289 154.323 141.289C154.461 141.289 154.708 141.31 155.063 141.352L155.088 140.522C154.841 140.46 154.645 140.415 154.499 140.389C154.353 140.363 154.219 140.35 154.098 140.35C153.626 140.35 153.286 140.51 153.077 140.831C152.868 141.152 152.764 141.675 152.764 142.401C152.764 143.115 152.865 143.636 153.067 143.962C153.27 144.289 153.597 144.451 154.048 144.451C154.298 144.451 154.645 144.396 155.088 144.287L155.063 143.449L154.336 143.511C154.14 143.511 153.99 143.478 153.888 143.41C153.786 143.343 153.715 143.23 153.675 143.074C153.635 142.917 153.616 142.69 153.616 142.392C153.616 142.1 153.635 141.876 153.675 141.72C153.715 141.563 153.785 141.452 153.885 141.387Z"/>
<path fill="#3686A9" d="M155.715 144.357H156.555V140.444H155.715V144.357Z"/>
<path fill="#3686A9" d="M155.715 139.941H156.555V138.885H155.715V139.941Z"/>
<path fill="#3686A9" d="M158.89 143.473L158.796 143.504C158.608 143.567 158.434 143.598 158.276 143.598C158.071 143.598 157.969 143.454 157.969 143.168C157.969 142.881 158.086 142.724 158.32 142.698L158.89 142.635V143.473ZM159.729 143.293V141.664C159.729 141.205 159.64 140.871 159.463 140.663C159.285 140.454 158.996 140.35 158.595 140.35C158.194 140.35 157.769 140.425 157.317 140.576L157.342 141.305C157.505 141.289 157.708 141.275 157.95 141.261C158.192 141.249 158.382 141.242 158.52 141.242C158.653 141.242 158.749 141.273 158.805 141.336C158.862 141.398 158.89 141.508 158.89 141.664V141.907L158.219 141.97C157.835 142.001 157.556 142.107 157.383 142.287C157.21 142.467 157.123 142.76 157.123 143.168C157.123 144.023 157.447 144.451 158.094 144.451C158.403 144.451 158.71 144.36 159.015 144.177C159.14 144.287 159.266 144.36 159.394 144.396C159.521 144.433 159.694 144.451 159.911 144.451L159.936 143.66C159.861 143.64 159.81 143.606 159.782 143.559C159.755 143.511 159.737 143.423 159.729 143.293Z"/>
<path fill="#3686A9" d="M161.763 143.511C161.646 143.517 161.573 143.474 161.544 143.383C161.515 143.291 161.5 143.144 161.5 142.94V141.336H162.27V140.443H161.5V139.356H160.661V140.443H160.291V141.336H160.661V142.964C160.661 143.339 160.69 143.635 160.748 143.848C160.807 144.062 160.903 144.217 161.037 144.311C161.17 144.404 161.358 144.451 161.601 144.451C161.696 144.451 161.791 144.443 161.886 144.428C161.979 144.412 162.11 144.381 162.277 144.333L162.239 143.496L161.763 143.511Z"/>
<path fill="#3686A9" d="M162.814 144.357H163.654V140.444H162.814V144.357Z"/>
<path fill="#3686A9" d="M162.814 139.941H163.654V138.885H162.814V139.941Z"/>
<path fill="#3686A9" d="M166.114 143.285C166.018 143.467 165.87 143.559 165.669 143.559C165.469 143.559 165.321 143.467 165.225 143.285C165.129 143.102 165.081 142.805 165.081 142.392C165.081 141.981 165.129 141.686 165.225 141.508C165.321 141.331 165.469 141.242 165.669 141.242C165.87 141.242 166.018 141.331 166.114 141.508C166.21 141.686 166.258 141.981 166.258 142.392C166.258 142.805 166.21 143.102 166.114 143.285ZM165.669 140.35C165.197 140.35 164.84 140.527 164.595 140.882C164.351 141.237 164.229 141.74 164.229 142.392C164.229 143.05 164.351 143.557 164.595 143.915C164.84 144.273 165.197 144.451 165.669 144.451C166.142 144.451 166.5 144.273 166.744 143.915C166.988 143.557 167.11 143.05 167.11 142.392C167.11 141.74 166.988 141.237 166.744 140.882C166.5 140.527 166.142 140.35 165.669 140.35Z"/>
<path fill="#3686A9" d="M170.205 140.812C170.042 140.504 169.769 140.35 169.384 140.35C169.242 140.35 169.11 140.374 168.986 140.42C168.863 140.468 168.722 140.548 168.564 140.663V140.444H167.73V144.357H168.57V141.43L168.645 141.399C168.821 141.326 168.977 141.29 169.115 141.29C169.307 141.29 169.438 141.362 169.506 141.508C169.575 141.655 169.61 141.908 169.61 142.267V144.357H170.449V142.236C170.449 141.594 170.368 141.12 170.205 140.812Z"/>
<path fill="#3E7993" d="M171 135.674H32.0352V135.28H171V135.674Z"/>
</g>
<path fill="url(#paint7_linear_255_3625)" d="M200.488 132.797C200.107 132.993 199.935 133.163 200.41 133.495C205.214 136.839 210.369 139.145 216.462 138.565C219.615 138.265 222.453 137.149 224.871 135.073C223.778 135.453 222.695 135.861 221.591 136.208C216.114 137.933 210.989 137.404 206.322 133.919C205.698 133.452 205.019 133.036 204.316 132.693C203.724 132.405 203.128 132.268 202.535 132.268C201.848 132.268 201.163 132.451 200.488 132.797Z"/>
<path fill="url(#paint8_linear_255_3625)" d="M205.863 132.738C210.918 137.282 218.767 137.619 223.828 134.856C222.431 135.219 221.152 135.408 219.857 135.394C216.247 135.355 212.989 134.205 209.957 132.354C209.42 132.026 208.799 131.868 208.181 131.868C207.331 131.868 206.484 132.167 205.863 132.738Z"/>
<path fill="url(#paint9_linear_255_3625)" d="M203.429 116.807C203.237 116.961 203.061 117.135 202.88 117.298C202.865 117.292 202.853 117.291 202.846 117.285C202.8 117.242 202.754 117.199 202.71 117.154C201.862 116.308 200.833 115.821 199.625 115.76C197.986 115.677 196.638 116.277 195.619 117.534C195.03 118.262 194.715 119.109 194.667 120.037C194.598 121.382 195.036 122.557 196.012 123.516C198.271 125.732 200.54 127.937 202.805 130.146C202.826 130.167 202.852 130.182 202.88 130.203C202.921 130.165 202.956 130.134 202.99 130.102C205.242 127.902 207.51 125.716 209.741 123.497C210.994 122.251 211.383 120.73 210.898 119.053C210.297 116.97 208.39 115.748 206.414 115.748C205.378 115.748 204.324 116.084 203.429 116.807ZM202.071 122.238C202.34 121.019 202.608 119.805 202.876 118.591C202.888 118.592 202.9 118.593 202.911 118.593C203.155 120.199 203.398 121.805 203.642 123.411C203.651 123.411 203.659 123.412 203.667 123.413C203.745 123.083 203.83 122.756 203.899 122.424C203.927 122.284 203.977 122.219 204.136 122.233C204.235 122.242 204.336 122.24 204.436 122.239C204.517 122.237 204.599 122.235 204.679 122.239C204.789 122.245 204.837 122.209 204.873 122.108C205.051 121.608 205.238 121.111 205.422 120.613C205.439 120.566 205.459 120.519 205.478 120.473C205.488 120.472 205.499 120.472 205.509 120.471C205.701 121.228 205.892 121.985 206.093 122.78C206.188 122.618 206.27 122.487 206.343 122.351C206.388 122.269 206.444 122.233 206.544 122.237L208.05 122.247C207.969 122.392 207.863 122.558 207.762 122.738C207.513 122.744 207.206 122.76 206.899 122.756C206.762 122.753 206.691 122.801 206.628 122.916C206.422 123.285 206.205 123.649 205.992 124.015C205.966 124.059 205.937 124.101 205.889 124.177C205.722 123.524 205.565 122.904 205.396 122.239C205.331 122.406 205.278 122.53 205.234 122.657C205.206 122.739 205.161 122.77 205.071 122.767C204.971 122.764 204.871 122.765 204.771 122.765C204.68 122.766 204.588 122.766 204.496 122.763C204.408 122.761 204.365 122.782 204.343 122.875C204.155 123.701 203.959 124.525 203.766 125.35C203.698 125.644 203.631 125.939 203.564 126.234C203.55 126.233 203.536 126.232 203.523 126.231C203.284 124.657 203.045 123.083 202.806 121.51C202.798 121.509 202.791 121.508 202.784 121.507C202.708 121.847 202.636 122.187 202.557 122.527C202.5 122.769 202.539 122.766 202.352 122.764C202.324 122.764 202.293 122.763 202.255 122.764C202.041 122.766 201.828 122.771 201.615 122.761C201.498 122.756 201.434 122.795 201.379 122.895C201.129 123.347 200.871 123.796 200.617 124.245C200.592 124.289 200.563 124.332 200.514 124.41C200.356 123.62 200.206 122.87 200.056 122.119C200.045 122.115 200.034 122.112 200.024 122.108C199.961 122.272 199.888 122.433 199.838 122.601C199.799 122.729 199.729 122.764 199.596 122.761C199.139 122.753 198.681 122.758 198.244 122.758V122.247C198.571 122.247 198.905 122.24 199.239 122.25C199.373 122.254 199.433 122.212 199.477 122.088C199.694 121.485 199.921 120.886 200.145 120.286C200.157 120.254 200.174 120.225 200.208 120.154C200.396 121.087 200.575 121.978 200.763 122.911C200.885 122.696 200.989 122.522 201.084 122.344C201.126 122.265 201.179 122.233 201.272 122.235C201.386 122.238 201.499 122.239 201.614 122.239C201.763 122.239 201.914 122.238 202.071 122.238Z"/>
<path fill="url(#paint10_linear_255_3625)" d="M186.67 116.92C184.88 117.32 183.127 117.841 181.383 118.402C180.832 118.58 180.678 118.856 180.675 119.403C180.66 121.851 180.854 124.283 181.287 126.688C185.131 147.999 205.755 162.202 227.675 158.649C244.425 155.934 257.799 142.965 260.645 126.677C260.814 125.705 260.771 125.67 259.773 125.998C256.338 127.125 252.821 127.811 249.197 128.046C244.294 128.365 239.578 127.228 234.816 126.424C231.545 125.871 228.282 125.181 224.931 125.432C222.064 125.646 219.383 126.385 217.221 128.373C216.334 129.189 216.488 129.883 217.624 130.316C218.79 130.759 219.987 130.655 221.185 130.504C222.521 130.335 223.838 130.318 225.085 130.928C226.543 131.641 226.946 132.828 226.187 134.242C225.801 134.961 225.287 135.59 224.634 136.095C221.812 138.279 218.459 139.021 214.994 139.318C210.469 139.705 206.401 138.238 202.511 136.14C200.74 135.184 199.165 133.895 197.265 133.167C196.176 132.75 194.939 132.98 194.439 133.61C193.93 134.251 194.074 135.219 194.895 136.239C196.065 137.692 197.572 138.788 199.149 139.761C207.772 145.084 217.188 146.219 227.065 144.595C231.495 143.868 235.771 142.469 240.139 141.462C242.564 140.903 244.987 140.341 247.689 139.716C247.453 140.066 247.396 140.173 247.319 140.263C238.899 150.074 228.166 154.151 215.225 152.206C207.239 151.006 200.59 147.174 195.368 141.143C189.481 134.344 186.849 126.453 187.462 117.56C187.499 117.029 187.368 116.863 187.069 116.863C186.959 116.863 186.826 116.886 186.67 116.92Z"/>
<defs>
<linearGradient gradientUnits="userSpaceOnUse" y2="110.599" x2="215.162" y1="176.694" x1="197.614" id="paint0_linear_255_3625">
<stop stop-color="#543785"/>
<stop stop-color="#543785" offset="0.504231"/>
<stop stop-color="#3E98BE" offset="1"/>
</linearGradient>
<linearGradient gradientUnits="userSpaceOnUse" y2="113.22" x2="226.484" y1="175.981" x1="210.181" id="paint1_linear_255_3625">
<stop stop-color="#543785"/>
<stop stop-color="#543785" offset="0.504231"/>
<stop stop-color="#3E98BE" offset="1"/>
</linearGradient>
<linearGradient gradientUnits="userSpaceOnUse" y2="112.707" x2="224.509" y1="175.468" x1="208.206" id="paint2_linear_255_3625">
<stop stop-color="#543785"/>
<stop stop-color="#543785" offset="0.504231"/>
<stop stop-color="#3E98BE" offset="1"/>
</linearGradient>
<linearGradient gradientUnits="userSpaceOnUse" y2="115.787" x2="236.38" y1="178.548" x1="220.077" id="paint3_linear_255_3625">
<stop stop-color="#543785"/>
<stop stop-color="#543785" offset="0.504231"/>
<stop stop-color="#3E98BE" offset="1"/>
</linearGradient>
<linearGradient gradientUnits="userSpaceOnUse" y2="111.988" x2="221.71" y1="174.748" x1="205.407" id="paint4_linear_255_3625">
<stop stop-color="#543785"/>
<stop stop-color="#543785" offset="0.504231"/>
<stop stop-color="#3E98BE" offset="1"/>
</linearGradient>
<linearGradient gradientUnits="userSpaceOnUse" y2="111.009" x2="217.979" y1="173.769" x1="201.675" id="paint5_linear_255_3625">
<stop stop-color="#543785"/>
<stop stop-color="#543785" offset="0.504231"/>
<stop stop-color="#3E98BE" offset="1"/>
</linearGradient>
<linearGradient gradientUnits="userSpaceOnUse" y2="111.558" x2="220.097" y1="174.318" x1="203.793" id="paint6_linear_255_3625">
<stop stop-color="#543785"/>
<stop stop-color="#543785" offset="0.504231"/>
<stop stop-color="#3E98BE" offset="1"/>
</linearGradient>
<linearGradient gradientUnits="userSpaceOnUse" y2="129.485" x2="214.951" y1="138.913" x1="209.639" id="paint7_linear_255_3625">
<stop stop-color="#4B3291"/>
<stop stop-color="#4B3291" offset="0.0153061"/>
<stop stop-color="#4B3291" offset="0.179208"/>
<stop stop-color="#3F8AD1" offset="0.515306"/>
<stop stop-color="#523091" offset="0.791345"/>
<stop stop-color="#523091" offset="1"/>
</linearGradient>
<linearGradient gradientUnits="userSpaceOnUse" y2="130.72" x2="216.487" y1="137.089" x1="212.898" id="paint8_linear_255_3625">
<stop stop-color="#4B3291"/>
<stop stop-color="#4B3291" offset="0.0153061"/>
<stop stop-color="#4B3291" offset="0.179208"/>
<stop stop-color="#3F8AD1" offset="0.515306"/>
<stop stop-color="#523091" offset="0.791345"/>
<stop stop-color="#523091" offset="1"/>
</linearGradient>
<linearGradient gradientUnits="userSpaceOnUse" y2="114.704" x2="205.822" y1="127.726" x1="198.484" id="paint9_linear_255_3625">
<stop stop-color="#4B3291"/>
<stop stop-color="#4B3291" offset="0.0153061"/>
<stop stop-color="#4B3291" offset="0.179208"/>
<stop stop-color="#3F8AD1" offset="0.515306"/>
<stop stop-color="#523091" offset="0.791345"/>
<stop stop-color="#523091" offset="1"/>
</linearGradient>
<linearGradient gradientUnits="userSpaceOnUse" y2="108.24" x2="229.396" y1="155.147" x1="202.967" id="paint10_linear_255_3625">
<stop stop-color="#4B3291"/>
<stop stop-color="#4B3291" offset="0.0153061"/>
<stop stop-color="#4B3291" offset="0.179208"/>
<stop stop-color="#3F8AD1" offset="0.515306"/>
<stop stop-color="#523091" offset="0.791345"/>
<stop stop-color="#523091" offset="1"/>
</linearGradient>
</defs>
</svg>