<svg width="104" height="118" viewBox="0 0 104 118" fill="none" xmlns="http://www.w3.org/2000/svg">
<circle cx="52" cy="52" r="52" fill="#252428"/>
<g filter="url(#filter0_d_1_398)">
<path d="M76 47.6883C75.9494 44.1431 74.4902 40.5469 71.9744 37.8126C69.1065 34.7217 65.1317 33 60.8043 33C57.6348 33 54.5667 33.9617 52 35.6345C49.4842 33.9128 46.3656 33 43.1958 33C38.8686 33 34.8936 34.7217 32.0256 37.8615C29.5604 40.547 28.1012 44.143 28 47.6886V47.7905C28 53.6156 30.5663 59.2372 35.6482 64.5043C39.5726 68.6078 44.4016 71.9496 48.6782 74.8875L48.9292 75.0892C49.834 75.6964 50.8905 76 51.9489 76C53.0054 76 54.0619 75.6964 54.9686 75.0892C59.3444 72.1531 64.3252 68.7095 68.3508 64.5044C73.4328 59.2374 75.999 53.6138 75.999 47.7907L76 47.6883Z" fill="#9F5FFE"/>
</g>
<path d="M44 52.5L49.6599 58.6315C49.8475 58.8348 50.1647 58.8471 50.3675 58.6588L64 46" stroke="white" stroke-width="3" stroke-linecap="round"/>
<defs>
<filter id="filter0_d_1_398" x="3.14146" y="28.4341" width="94.335" height="89.335" filterUnits="userSpaceOnUse" color-interpolation-filters="sRGB">
<feFlood floodOpacity="0" result="BackgroundImageFix"/>
<feColorMatrix in="SourceAlpha" type="matrix" values="0 0 0 0 0 0 0 0 0 0 0 0 0 0 0 0 0 0 127 0" result="hardAlpha"/>
<feOffset dx="-1.69106" dy="18.6016"/>
<feGaussianBlur stdDeviation="11.5837"/>
<feComposite in2="hardAlpha" operator="out"/>
<feColorMatrix type="matrix" values="0 0 0 0 0.256275 0 0 0 0 0.133333 0 0 0 0 0.952941 0 0 0 0.16 0"/>
<feBlend mode="normal" in2="BackgroundImageFix" result="effect1_dropShadow_1_398"/>
<feBlend mode="normal" in="SourceGraphic" in2="effect1_dropShadow_1_398" result="shape"/>
</filter>
</defs>
</svg>
