<svg width="35" height="35" viewBox="0 0 35 35" fill="none" xmlns="http://www.w3.org/2000/svg">
<path d="M18.0023 33.0778C9.13671 33.0778 1.92383 25.8649 1.92383 16.9994C1.92383 8.13378 9.13671 0.920898 18.0023 0.920898C26.8679 0.920898 34.0807 8.13378 34.0807 16.9994C34.0804 25.8653 26.8679 33.0778 18.0023 33.0778ZM18.0023 1.58402C9.50225 1.58402 2.58662 8.49931 2.58662 16.9997C2.58662 25.5001 9.50191 32.4153 18.0023 32.4153C26.5027 32.4153 33.4179 25.5001 33.4179 16.9997C33.4179 8.49931 26.5023 1.58402 18.0023 1.58402Z" fill="#F32261"/>
<path d="M16.3859 34.6107C8.88602 34.6107 2.30743 29.2951 0.743231 21.9715C0.714731 21.8373 0.800231 21.705 0.934447 21.6765C1.06866 21.648 1.20089 21.7332 1.22939 21.8678C2.74454 28.9637 9.11899 34.1136 16.3859 34.1136C18.027 34.1136 19.6429 33.8584 21.1882 33.355C21.3184 33.3133 21.4589 33.3838 21.5014 33.5144C21.5441 33.645 21.4725 33.7852 21.3423 33.8279C19.7466 34.3472 18.0793 34.6107 16.3859 34.6107ZM26.929 30.5603C26.8611 30.5603 26.7935 30.5328 26.7444 30.4785C26.6526 30.3764 26.6606 30.2193 26.7626 30.1272C30.0173 27.1917 31.8841 22.9955 31.8841 18.6154V18.5498C31.8841 18.4126 31.9954 18.3012 32.1326 18.3012C32.2698 18.3012 32.3812 18.4126 32.3812 18.5498V18.6154C32.3812 23.1363 30.4544 27.4667 27.0954 30.4967C27.0483 30.5391 26.9887 30.5603 26.929 30.5603ZM0.639174 18.8802C0.501975 18.8802 0.390625 18.7851 0.390625 18.6479V18.6151C0.390625 14.1067 2.3081 9.78463 5.65157 6.75632C5.75331 6.66419 5.91039 6.67181 6.00252 6.77355C6.09465 6.87529 6.08703 7.03237 5.98529 7.1245C2.74587 10.0587 0.887723 14.2469 0.887723 18.6147C0.887723 18.7523 0.776373 18.8802 0.639174 18.8802ZM31.7784 15.5271C31.6637 15.5271 31.561 15.4476 31.5358 15.3309C30.009 8.25358 23.6376 3.11657 16.3859 3.11657C14.7339 3.1169 13.1074 3.37539 11.5528 3.88508C11.4219 3.92783 11.282 3.85691 11.239 3.72634C11.1962 3.59577 11.2671 3.45559 11.3977 3.41251C13.0027 2.88625 14.6809 2.61947 16.3859 2.61914C23.8699 2.61914 30.4458 7.92118 32.0219 15.2255C32.0508 15.3597 31.9656 15.492 31.8314 15.5208C31.8135 15.5255 31.7959 15.5271 31.7784 15.5271Z" fill="#ABA7A7"/>
<g filter="url(#filter0_d_255_2310)">
<path d="M26.1217 12.482L23.1355 9.49609L17.8898 14.7418L12.6441 9.49609L9.6582 12.482L14.9039 17.7277L9.6582 22.9737L12.6441 25.9596L17.8898 20.7136L23.1355 25.9596L26.1217 22.9737L20.8757 17.7277L26.1217 12.482Z" fill="#F32261"/>
</g>
<defs>
<filter id="filter0_d_255_2310" x="5.6582" y="9.49609" width="24.4639" height="24.4639" filterUnits="userSpaceOnUse" color-interpolation-filters="sRGB">
<feFlood floodOpacity="0" result="BackgroundImageFix"/>
<feColorMatrix in="SourceAlpha" type="matrix" values="0 0 0 0 0 0 0 0 0 0 0 0 0 0 0 0 0 0 127 0" result="hardAlpha"/>
<feOffset dy="4"/>
<feGaussianBlur stdDeviation="2"/>
<feComposite in2="hardAlpha" operator="out"/>
<feColorMatrix type="matrix" values="0 0 0 0 0 0 0 0 0 0 0 0 0 0 0 0 0 0 0.25 0"/>
<feBlend mode="normal" in2="BackgroundImageFix" result="effect1_dropShadow_255_2310"/>
<feBlend mode="normal" in="SourceGraphic" in2="effect1_dropShadow_255_2310" result="shape"/>
</filter>
</defs>
</svg>
